<?xml version="1.0" encoding="utf-8"?>
<!-- Generator: Adobe Illustrator 21.0.0, SVG Export Plug-In . SVG Version: 6.00 Build 0)  -->
<svg version="1.1" id="Layer_1" xmlns="http://www.w3.org/2000/svg" xmlns:xlink="http://www.w3.org/1999/xlink" x="0px" y="0px"
	 viewBox="0 0 117.8 117.8" style="enable-background:new 0 0 117.8 117.8;" xml:space="preserve">
<style type="text/css">
	.st0{display:none;fill:none;stroke:#262626;stroke-width:6;stroke-miterlimit:10;}
	.st1{display:none;fill:#F1F2F2;stroke:#262626;stroke-width:6;stroke-miterlimit:10;}
	.st2{display:none;fill:#262626;}
	.st3{fill:none;stroke:#303030;stroke-width:6;stroke-linejoin:round;stroke-miterlimit:10;}
</style>
<path class="st0" d="M84.5,102.1H28.8c-12.1,0-22-9.9-22-22V37.9c0-12.1,9.9-22,22-22h55.8c12.1,0,22,9.9,22,22v42.3
	C106.5,92.2,96.6,102.1,84.5,102.1z"/>
<path class="st1" d="M105,69.9H83.7c-6,0-11-4.9-11-11l0,0c0-6,4.9-11,11-11H105c3.8,0,7,3.1,7,7v8C112,66.7,108.8,69.9,105,69.9z"
	/>
<circle class="st2" cx="85.2" cy="59" r="4.9"/>
<path class="st3" d="M59.5,104.8L59.5,104.8L14.4,59.7c-9.7-9.7-9.7-25.5,0-35.2l1.3-1.3c9.7-9.7,25.5-9.7,35.2,0
	c0.8,0.7,1.7,1.5,2.3,2.2c2.2,2,4.2,4.2,6,6.2c1.8-2,3.8-4.2,6-6.2c0.8-0.8,1.7-1.5,2.3-2.2c9.7-9.7,25.5-9.7,35.2,0l1.3,1.3
	c9.7,9.7,9.7,25.5,0,35.2L59.5,104.8L59.5,104.8z"/>
</svg>
