<?xml version="1.0" encoding="utf-8"?>
<!-- Generator: Adobe Illustrator 21.0.0, SVG Export Plug-In . SVG Version: 6.00 Build 0)  -->
<svg version="1.1" id="Layer_1" xmlns="http://www.w3.org/2000/svg" xmlns:xlink="http://www.w3.org/1999/xlink" x="0px" y="0px"
	 viewBox="0 0 117.8 117.8" style="enable-background:new 0 0 117.8 117.8;" xml:space="preserve">
<style type="text/css">
	.st0{display:none;fill:none;stroke:#262626;stroke-width:6;stroke-miterlimit:10;}
	.st1{display:none;fill:#F1F2F2;stroke:#262626;stroke-width:6;stroke-miterlimit:10;}
	.st2{display:none;fill:#262626;}
	.st3{fill:none;stroke:#303030;stroke-width:6;stroke-miterlimit:10;}
</style>
<path class="st0" d="M84.5,102.1H28.8c-12.1,0-22-9.9-22-22V37.9c0-12.1,9.9-22,22-22h55.8c12.1,0,22,9.9,22,22v42.3
	C106.5,92.2,96.6,102.1,84.5,102.1z"/>
<path class="st1" d="M105,69.9H83.7c-6,0-11-4.9-11-11v0c0-6,4.9-11,11-11H105c3.8,0,7,3.1,7,7v8C112,66.7,108.8,69.9,105,69.9z"/>
<circle class="st2" cx="85.2" cy="59" r="4.9"/>
<path class="st3" d="M94.2,108H22.8c-3.3,0-6-2.7-6-6V59h84.4v42C101.2,104.9,98.1,108,94.2,108z"/>
<path class="st3" d="M13,33.4h93.3c3.3,0,6,2.7,6,6V59H7V39.4C7,36.1,9.7,33.4,13,33.4z"/>
<path class="st3" d="M90.2,33.4c0.4-0.2,7-4,7-11c0-5-3.4-9.2-7.2-11.1c-8-3.9-19,1.8-24.4,8.2c-4.4,5.3-5,11.1-5.1,13.8"/>
<path class="st3" d="M30.6,33.4c-0.4-0.2-7-4-7-11c0-5,3.4-9.2,7.2-11.1c8-3.9,19,1.8,24.4,8.2c4.4,5.3,5,11.1,5.1,13.8V108"/>
</svg>
