<?xml version="1.0" encoding="utf-8"?>
<!-- Generator: Adobe Illustrator 19.0.0, SVG Export Plug-In . SVG Version: 6.00 Build 0)  -->
<svg version="1.1" id="Layer_1" xmlns="http://www.w3.org/2000/svg" xmlns:xlink="http://www.w3.org/1999/xlink" x="0px" y="0px"
	 viewBox="-230 400.9 135 40" style="enable-background:new -230 400.9 135 40;" xml:space="preserve">
<style type="text/css">
	.st0{fill:#7B7B7B;stroke:#7B7B7B;stroke-miterlimit:10;}
	.st1{fill:#7B7B7B;}
	.st2{fill:#FFFFFF;}
	.st3{display:none;fill:#7B7B7B;}
</style>
<title>google-play-badge</title>
<desc>Created with Sketch.</desc>
<g id="Page-1">
	<g id="google-play-badge">
		<g id="artwork">
			<g id="Group">
				<path id="Shape_1_" class="st0" d="M-100.7,402.8c2.3,0,4.2,1.8,4.2,3.9v28.2c0,2.2-1.9,3.9-4.2,3.9h-123.5
					c-2.3,0-4.2-1.8-4.2-3.9v-28.2c0-2.2,1.9-3.9,4.2-3.9H-100.7L-100.7,402.8z M-100.7,402h-123.5c-2.8,0-4.9,2.1-4.9,4.7v28.2
					c0,2.6,2.2,4.7,4.9,4.7h123.5c2.8,0,4.9-2.1,4.9-4.7v-28.2C-95.8,404.2-98,402-100.7,402L-100.7,402L-100.7,402z"/>
			</g>
		</g>
	</g>
</g>
<g>
	<path class="st1" d="M-215.4,429.8c0.2,0.3,0.4,0.5,0.6,0.8l3-2.4c-0.2-0.2-0.4-0.4-0.6-0.7c-2.4-3.1-1.8-7.6,1.3-10
		c2.9-2.3,7-1.9,9.5,0.7v-0.1c-5.7-6.3-14.4-3.8-14.4-3.8C-220.6,425-215.4,429.8-215.4,429.8z"/>
	<path class="st2" d="M-214.8,431.1l-0.3-0.3c-0.2-0.2-0.4-0.5-0.7-0.8c-0.2-0.2-1.4-1.5-2.1-3.9c-0.4-1.5-0.6-3.2-0.4-5
		c0.2-2.2,0.8-4.6,1.9-7l0.1-0.2l0.2-0.1c0.1,0,2.3-0.7,5.2-0.5c1.7,0.1,3.3,0.4,4.8,1c1.8,0.7,3.5,1.9,4.8,3.4l0,0v0.1l-0.6,0.5
		c-1.1-1.2-2.7-1.9-4.3-2.1c-1.7-0.1-3.3,0.4-4.6,1.4c-2.9,2.3-3.5,6.5-1.2,9.4c0.2,0.2,0.4,0.5,0.6,0.7l0.3,0.3L-214.8,431.1z
		 M-215.7,414.7c-1,2.3-1.6,4.5-1.7,6.6c-0.1,1.7,0,3.2,0.4,4.7c0.7,2.4,1.9,3.6,1.9,3.6l0,0l0,0c0.1,0.2,0.2,0.3,0.4,0.5l2.4-1.9
		c-0.1-0.1-0.2-0.3-0.3-0.4c-2.5-3.3-1.9-8,1.3-10.6c1.5-1.1,3.3-1.7,5.2-1.6c0.2,0,0.5,0.1,0.7,0.1c-0.3-0.2-0.7-0.3-1-0.5
		c-1.4-0.6-2.9-0.9-4.5-1C-213.3,414.1-215.2,414.5-215.7,414.7z"/>
</g>
<g>
	<path class="st1" d="M-202,430.7l0.7-1.3l-3.1,1.1l-0.7-0.6c-2.6,0.7-5.6-0.2-7.3-2.5c-2.2-2.9-1.9-6.9,0.7-9.4h-0.1
		c-6.2,5.6-3.7,14.2-3.7,14.2c10.5,4.5,15.3-0.6,15.3-0.6c0.3-0.2,0.5-0.4,0.8-0.6L-202,430.7z"/>
	<path class="st2" d="M-207.5,434.4c-0.4,0-0.9,0-1.3-0.1c-2.2-0.2-4.5-0.8-6.9-1.8l-0.1-0.1v-0.1c0-0.1-0.6-2.2-0.5-5.1
		c0.1-1.7,0.4-3.3,1-4.7c0.7-1.8,1.8-3.4,3.3-4.7l0,0l0.4,0.4c-1.2,1.1-1.9,2.7-2.1,4.3c-0.1,1.7,0.4,3.3,1.4,4.6
		c1.7,2.1,4.4,3.1,7,2.4h0.2l0.7,0.5l3.7-1.3l-0.8,1.6l2.7,0.4l-0.5,0.4c-0.3,0.2-0.5,0.4-0.8,0.6c-0.2,0.2-1.4,1.4-3.8,2.1
		C-205,434.3-206.2,434.4-207.5,434.4z M-215.2,432c2.3,1,4.5,1.6,6.5,1.7c1.7,0.1,3.2,0,4.6-0.4c2.4-0.7,3.6-1.9,3.6-1.9l0,0l0,0
		c0.1-0.1,0.2-0.1,0.2-0.2l-2.3-0.3l0.5-1l-2.5,0.9l-0.7-0.6c-0.6,0.1-1.1,0.2-1.7,0.2c-2.2,0-4.4-1-5.8-2.8
		c-1.1-1.4-1.7-3.2-1.5-5.1c0-0.4,0.1-0.9,0.2-1.3c-0.3,0.5-0.5,1-0.7,1.5c-0.6,1.4-0.9,2.9-1,4.5
		C-215.8,429.6-215.4,431.5-215.2,432z"/>
</g>
<g>
	<path class="st1" d="M-198.1,416.4c-0.2-0.3-0.4-0.5-0.6-0.8l-3,2.4c0.2,0.2,0.4,0.4,0.6,0.7c2.4,3.1,1.8,7.6-1.3,10
		c-2.9,2.3-7,1.9-9.5-0.7l0.1,0.1c5.7,6.3,14.3,3.8,14.3,3.8C-192.9,421.3-198.1,416.4-198.1,416.4z"/>
	<path class="st2" d="M-201.6,432.7c-0.3,0-0.6,0-0.9,0c-1.7-0.1-3.3-0.4-4.8-1c-1.8-0.7-3.4-1.8-4.7-3.3c0,0,0,0-0.1-0.1l0.4-0.4
		l0.1,0.1l0,0c1.1,1.2,2.7,1.9,4.3,2c1.7,0.1,3.4-0.4,4.7-1.4c1.4-1.1,2.4-2.7,2.6-4.5s-0.3-3.6-1.4-5c-0.2-0.2-0.4-0.4-0.6-0.7
		l-0.2-0.2l3.5-2.8l0.2,0.2c0.2,0.2,0.4,0.5,0.7,0.8c0.2,0.2,1.4,1.4,2.1,3.9c0.4,1.5,0.6,3.2,0.4,4.9c-0.2,2.2-0.8,4.5-1.9,7
		l-0.1,0.1l-0.1-0.1C-197.5,432.2-199.2,432.7-201.6,432.7z M-208.6,430.3c0.5,0.3,1,0.5,1.5,0.7c1.4,0.6,2.9,0.9,4.5,1
		c2.4,0.1,4.3-0.3,4.8-0.4c1-2.3,1.6-4.5,1.8-6.6c0.1-1.7,0-3.3-0.4-4.7c-0.7-2.4-1.9-3.6-1.9-3.7l0,0l0,0c-0.1-0.2-0.3-0.4-0.4-0.5
		l-2.5,2c0.1,0.2,0.3,0.3,0.4,0.5c1.2,1.6,1.7,3.5,1.5,5.5c-0.3,2-1.3,3.7-2.8,4.9c-1.5,1.1-3.3,1.7-5.1,1.5
		C-207.8,430.5-208.2,430.4-208.6,430.3z"/>
</g>
<g>
	<path class="st1" d="M-212.7,413.9c2.8-0.2,7.1,0.2,10.8,3.9c0.3,0.3,0.6,0.6,0.8,0.9c2.2,2.9,1.9,6.9-0.7,9.4h0.1
		c6.2-5.6,3.7-14.2,3.7-14.2C-206.4,410.2-211.2,412.7-212.7,413.9z"/>
	<path class="st2" d="M-201.7,428.3l-0.3-0.4c1.2-1.2,1.9-2.7,2.1-4.4c0.1-1.7-0.4-3.3-1.4-4.7c-0.2-0.3-0.5-0.6-0.8-0.9l0,0
		c-3.5-3.5-7.7-4-10.6-3.8l-0.9,0.1l0.7-0.5c1.7-1.2,6.5-3.8,14.9-0.1h0.1v0.1c0,0.1,0.6,2.2,0.5,5.1c-0.1,1.7-0.4,3.3-1,4.7
		C-199.1,425.3-200.2,426.9-201.7,428.3L-201.7,428.3z M-201.8,417.6c0.3,0.3,0.6,0.6,0.8,0.9c1.1,1.4,1.6,3.2,1.5,5
		c0,0.6-0.2,1.2-0.3,1.7c0.4-0.6,0.7-1.3,1-1.9c0.6-1.4,0.9-2.9,1-4.5c0.1-2.4-0.3-4.3-0.4-4.8c-7.1-3-11.5-1.6-13.6-0.4
		C-208.9,413.6-205.1,414.3-201.8,417.6z"/>
</g>
<g>
	<path class="st1" d="M-202.5,409c1.2-1.1,2.2-2.7,2.2-4.4c-1.5-0.2-3.4,0.5-4.7,1.6c-1.1,0.9-2.2,2.6-2.2,4.2
		C-205.5,410.8-203.7,410.1-202.5,409z"/>
</g>
<g>
	<path class="st3" d="M-98.6,440.7h-125.5c-2.6,0-4.7-2.1-4.7-4.7v-30.6c0-2.6,2.1-4.7,4.7-4.7h125.5c2.6,0,4.8,2.1,4.8,4.7v30.5
		C-93.8,438.6-96,440.7-98.6,440.7L-98.6,440.7z"/>
	<path class="st3" d="M-94.8,436c0,2.1-1.7,3.8-3.8,3.8h-125.5c-2.1,0-3.8-1.7-3.8-3.8v-30.6c0-2.1,1.7-3.8,3.8-3.8h125.5
		c2.1,0,3.8,1.7,3.8,3.8V436L-94.8,436z"/>
	<g>
		<g>
			<path class="st1" d="M-179.8,410.7c0,1.2-0.4,2.1-1.1,2.7c-0.6,0.5-1.5,0.8-2.7,0.8c-0.6,0-1.1,0-1.5-0.1v-6.4
				c0.6-0.1,1.2-0.1,1.8-0.1c1.1,0,2,0.2,2.6,0.7C-180.1,408.9-179.8,409.7-179.8,410.7z M-180.9,410.7c0-0.8-0.2-1.3-0.6-1.8
				c-0.4-0.4-1-0.6-1.8-0.6c-0.3,0-0.6,0-0.8,0.1v4.9c0.1,0,0.4,0,0.7,0c0.8,0,1.4-0.2,1.9-0.7
				C-181.1,412.2-180.9,411.6-180.9,410.7z"/>
			<path class="st1" d="M-173.9,411.7c0,0.7-0.2,1.3-0.6,1.8c-0.4,0.5-1,0.7-1.7,0.7s-1.2-0.2-1.7-0.7c-0.4-0.5-0.6-1-0.6-1.7
				c0-0.7,0.2-1.3,0.6-1.8s1-0.7,1.7-0.7s1.2,0.2,1.7,0.7C-174.1,410.5-173.9,411-173.9,411.7z M-175,411.8c0-0.4-0.1-0.8-0.3-1.1
				c-0.2-0.4-0.5-0.6-0.9-0.6c-0.4,0-0.7,0.2-1,0.6c-0.2,0.3-0.3,0.7-0.3,1.1c0,0.4,0.1,0.8,0.3,1.1c0.2,0.4,0.5,0.6,1,0.6
				c0.4,0,0.7-0.2,0.9-0.6C-175.1,412.6-175,412.2-175,411.8z"/>
			<path class="st1" d="M-166.1,409.4l-1.5,4.7h-1l-0.6-2c-0.2-0.5-0.3-1-0.4-1.5l0,0c-0.1,0.5-0.2,1-0.4,1.5l-0.6,2h-1l-1.4-4.7
				h1.1l0.5,2.2c0.1,0.5,0.2,1,0.3,1.5l0,0c0.1-0.4,0.2-0.9,0.4-1.5l0.7-2.3h0.9l0.6,2.2c0.2,0.5,0.3,1.1,0.4,1.6l0,0
				c0.1-0.5,0.2-1,0.3-1.6l0.6-2.2h1.1V409.4z"/>
			<path class="st1" d="M-160.6,414.1h-1v-2.7c0-0.8-0.3-1.2-1-1.2c-0.3,0-0.6,0.1-0.8,0.3c-0.2,0.2-0.3,0.5-0.3,0.8v2.8h-1v-3.4
				c0-0.4,0-0.9,0-1.3h0.9v0.7l0,0c0.1-0.2,0.3-0.4,0.5-0.6c0.3-0.2,0.6-0.3,1-0.3c0.4,0,0.8,0.1,1.1,0.4c0.4,0.3,0.5,0.9,0.5,1.6
				v2.9H-160.6z"/>
			<path class="st1" d="M-157.7,414.1h-1v-6.8h1V414.1z"/>
			<path class="st1" d="M-151.6,411.7c0,0.7-0.2,1.3-0.6,1.8c-0.4,0.5-1,0.7-1.7,0.7s-1.2-0.2-1.7-0.7c-0.4-0.5-0.6-1-0.6-1.7
				c0-0.7,0.2-1.3,0.6-1.8c0.4-0.5,1-0.7,1.7-0.7s1.2,0.2,1.7,0.7C-151.8,410.5-151.6,411-151.6,411.7z M-152.7,411.8
				c0-0.4-0.1-0.8-0.3-1.1c-0.2-0.4-0.5-0.6-0.9-0.6c-0.4,0-0.7,0.2-1,0.6c-0.2,0.3-0.3,0.7-0.3,1.1c0,0.4,0.1,0.8,0.3,1.1
				c0.2,0.4,0.5,0.6,1,0.6c0.4,0,0.7-0.2,0.9-0.6C-152.8,412.6-152.7,412.2-152.7,411.8z"/>
			<path class="st1" d="M-146.5,414.1h-0.9l-0.1-0.5l0,0c-0.3,0.4-0.8,0.6-1.4,0.6c-0.4,0-0.8-0.1-1.1-0.4c-0.2-0.3-0.4-0.6-0.4-1
				c0-0.6,0.2-1,0.7-1.3c0.5-0.3,1.2-0.5,2-0.4V411c0-0.6-0.3-0.9-1-0.9c-0.5,0-0.9,0.1-1.2,0.3l-0.2-0.7c0.4-0.3,1-0.4,1.6-0.4
				c1.2,0,1.8,0.6,1.8,1.9v1.7C-146.6,413.5-146.5,413.9-146.5,414.1z M-147.6,412.5v-0.7c-1.2,0-1.7,0.3-1.7,1
				c0,0.2,0.1,0.4,0.2,0.6c0.1,0.1,0.3,0.2,0.5,0.2s0.4-0.1,0.6-0.2c0.2-0.1,0.3-0.3,0.4-0.6C-147.6,412.6-147.6,412.6-147.6,412.5z
				"/>
			<path class="st1" d="M-140.5,414.1h-0.9v-0.8l0,0c-0.5,0.7-1,0.9-1.7,0.9c-0.6,0-1-0.2-1.4-0.7c-0.4-0.4-0.6-1-0.6-1.7
				c0-0.8,0.2-1.4,0.6-1.9c0.4-0.4,0.9-0.7,1.5-0.7c0.6,0,1.1,0.2,1.3,0.6l0,0v-2.5h1v5.6C-140.6,413.3-140.6,413.7-140.5,414.1z
				 M-141.6,412.1v-0.8c0-0.1,0-0.2,0-0.3c-0.1-0.3-0.2-0.5-0.4-0.6c-0.2-0.2-0.4-0.3-0.7-0.3c-0.4,0-0.7,0.2-0.9,0.5
				c-0.2,0.3-0.3,0.7-0.3,1.2s0.1,0.8,0.3,1.1c0.2,0.3,0.5,0.5,0.9,0.5c0.3,0,0.6-0.1,0.8-0.4C-141.7,412.8-141.6,412.5-141.6,412.1
				z"/>
			<path class="st1" d="M-131.6,411.7c0,0.7-0.2,1.3-0.6,1.8c-0.4,0.5-1,0.7-1.7,0.7s-1.2-0.2-1.7-0.7c-0.4-0.5-0.6-1-0.6-1.7
				c0-0.7,0.2-1.3,0.6-1.8c0.4-0.5,1-0.7,1.7-0.7s1.2,0.2,1.7,0.7C-131.8,410.5-131.6,411-131.6,411.7z M-132.7,411.8
				c0-0.4-0.1-0.8-0.3-1.1c-0.2-0.4-0.5-0.6-0.9-0.6c-0.4,0-0.7,0.2-1,0.6c-0.2,0.3-0.3,0.7-0.3,1.1c0,0.4,0.1,0.8,0.3,1.1
				c0.2,0.4,0.5,0.6,1,0.6c0.4,0,0.7-0.2,0.9-0.6C-132.8,412.6-132.7,412.2-132.7,411.8z"/>
			<path class="st1" d="M-126,414.1h-1v-2.7c0-0.8-0.3-1.2-1-1.2c-0.3,0-0.6,0.1-0.8,0.3c-0.2,0.2-0.3,0.5-0.3,0.8v2.8h-1v-3.4
				c0-0.4,0-0.9,0-1.3h0.9v0.7l0,0c0.1-0.2,0.3-0.4,0.5-0.6c0.3-0.2,0.6-0.3,1-0.3c0.4,0,0.8,0.1,1.1,0.4c0.4,0.3,0.5,0.9,0.5,1.6
				v2.9H-126z"/>
			<path class="st1" d="M-118.9,410.2h-1.2v2.3c0,0.6,0.2,0.9,0.6,0.9c0.2,0,0.3,0,0.5,0v0.8c-0.2,0.1-0.5,0.1-0.8,0.1
				c-0.4,0-0.7-0.1-1-0.4c-0.2-0.3-0.3-0.7-0.3-1.3v-2.4h-0.7v-0.8h0.7v-0.8l1-0.3v1.2h1.2C-118.9,409.5-118.9,410.2-118.9,410.2z"
				/>
			<path class="st1" d="M-113.3,414.1h-1v-2.7c0-0.8-0.3-1.3-0.9-1.3c-0.5,0-0.8,0.2-1,0.7c0,0.1,0,0.2,0,0.4v2.8h-1v-6.7h1v2.8l0,0
				c0.3-0.5,0.8-0.8,1.4-0.8c0.4,0,0.8,0.1,1.1,0.4c0.4,0.4,0.5,0.9,0.5,1.6L-113.3,414.1L-113.3,414.1z"/>
			<path class="st1" d="M-107.6,411.6c0,0.2,0,0.3,0,0.5h-3.1c0,0.5,0.2,0.8,0.5,1.1c0.3,0.2,0.6,0.3,1,0.3c0.5,0,0.9-0.1,1.3-0.2
				l0.2,0.7c-0.4,0.2-1,0.3-1.6,0.3c-0.7,0-1.3-0.2-1.7-0.6c-0.4-0.4-0.6-1-0.6-1.7c0-0.7,0.2-1.3,0.6-1.8s1-0.8,1.6-0.8
				c0.7,0,1.2,0.3,1.5,0.8C-107.8,410.5-107.6,411-107.6,411.6z M-108.6,411.3c0-0.3-0.1-0.6-0.2-0.8c-0.2-0.3-0.5-0.4-0.8-0.4
				s-0.6,0.1-0.8,0.4c-0.2,0.2-0.3,0.5-0.3,0.8H-108.6z"/>
		</g>
	</g>
</g>
<g>
	<path class="st1" d="M-175.5,430.8c0.8,0.5,2,0.9,3.2,0.9c1.8,0,2.9-1,2.9-2.3c0-1.3-0.7-2-2.6-2.7c-2.2-0.8-3.6-2-3.6-3.9
		c0-2.1,1.8-3.7,4.4-3.7c1.4,0,2.4,0.3,3,0.7l-0.5,1.4c-0.4-0.2-1.4-0.7-2.6-0.7c-1.9,0-2.6,1.1-2.6,2.1c0,1.3,0.8,1.9,2.7,2.7
		c2.3,0.9,3.5,2,3.5,4c0,2.1-1.6,4-4.8,4c-1.3,0-2.8-0.4-3.5-0.9L-175.5,430.8z"/>
	<path class="st1" d="M-163.3,420.3c0,0.6-0.4,1.1-1.1,1.1c-0.6,0-1.1-0.5-1.1-1.1c0-0.6,0.5-1.1,1.1-1.1
		C-163.7,419.2-163.3,419.7-163.3,420.3z M-165.3,433v-9.9h1.8v9.9H-165.3z"/>
	<path class="st1" d="M-160.6,433c0-0.7,0.1-1.7,0.1-2.5v-12h1.8v6.2l0,0c0.6-1.1,1.8-1.8,3.4-1.8c2.4,0,4.2,2,4.2,5
		c0,3.5-2.2,5.3-4.4,5.3c-1.4,0-2.6-0.6-3.3-1.9h-0.1l-0.1,1.6h-1.6V433z M-158.7,429c0,0.2,0,0.4,0.1,0.7c0.3,1.2,1.4,2.1,2.7,2.1
		c1.9,0,3-1.5,3-3.8c0-2-1-3.7-2.9-3.7c-1.2,0-2.4,0.8-2.7,2.2c0,0.2-0.1,0.4-0.1,0.7L-158.7,429L-158.7,429z"/>
	<path class="st1" d="M-146.6,428.6l-1.4,4.3h-1.8l4.6-13.7h2.1l4.7,13.8h-1.9l-1.5-4.3h-4.8V428.6z M-142.1,427.3l-1.3-4
		c-0.3-0.9-0.5-1.7-0.7-2.5l0,0c-0.2,0.8-0.4,1.7-0.7,2.5l-1.3,4H-142.1z"/>
	<path class="st1" d="M-136.5,426.3c0-1.3,0-2.3-0.1-3.2h1.6l0.1,1.7l0,0c0.7-1.2,1.9-1.9,3.5-1.9c2.4,0,4.2,2,4.2,5
		c0,3.5-2.2,5.3-4.5,5.3c-1.3,0-2.4-0.6-3-1.6l0,0v5.4h-1.8C-136.5,437-136.5,426.3-136.5,426.3z M-134.7,429c0,0.3,0,0.5,0.1,0.7
		c0.3,1.2,1.4,2.1,2.7,2.1c1.9,0,3-1.5,3-3.8c0-2-1-3.7-2.9-3.7c-1.2,0-2.4,0.9-2.7,2.2c-0.1,0.2-0.1,0.5-0.1,0.7L-134.7,429
		L-134.7,429z"/>
	<path class="st1" d="M-124.8,426.3c0-1.3,0-2.3-0.1-3.2h1.6l0.1,1.7l0,0c0.7-1.2,1.9-1.9,3.5-1.9c2.4,0,4.2,2,4.2,5
		c0,3.5-2.2,5.3-4.5,5.3c-1.3,0-2.4-0.6-3-1.6l0,0v5.4h-1.8C-124.8,437-124.8,426.3-124.8,426.3z M-123.1,429c0,0.3,0,0.5,0.1,0.7
		c0.3,1.2,1.4,2.1,2.7,2.1c1.9,0,3-1.5,3-3.8c0-2-1-3.7-2.9-3.7c-1.2,0-2.4,0.9-2.7,2.2c-0.1,0.2-0.1,0.5-0.1,0.7L-123.1,429
		L-123.1,429z"/>
</g>
</svg>
