<?xml version="1.0" encoding="utf-8"?>
<!-- Generator: Adobe Illustrator 19.0.0, SVG Export Plug-In . SVG Version: 6.00 Build 0)  -->
<svg version="1.1" id="Layer_1" xmlns="http://www.w3.org/2000/svg" xmlns:xlink="http://www.w3.org/1999/xlink" x="0px" y="0px"
	 viewBox="726 -604.1 2048 2048" style="enable-background:new 726 -604.1 2048 2048;" xml:space="preserve">
<style type="text/css">
	.st0{fill:#A3A3A3;}
</style>
<path class="st0" d="M2249,259.9c0,8.7-3.3,16.3-10,23l-466,466c-6.7,6.7-14.3,10-23,10c-8.7,0-16.3-3.3-23-10l-466-466
	c-6.7-6.7-10-14.3-10-23c0-8.7,3.3-16.3,10-23l50-50c6.7-6.7,14.3-10,23-10s16.3,3.3,23,10l393,393l393-393c6.7-6.7,14.3-10,23-10
	s16.3,3.3,23,10l50,50C2245.7,243.6,2249,251.2,2249,259.9z"/>
</svg>
