<?xml version="1.0" encoding="utf-8"?>
<!-- Generator: Adobe Illustrator 21.0.0, SVG Export Plug-In . SVG Version: 6.00 Build 0)  -->
<svg version="1.1" id="Layer_1" xmlns="http://www.w3.org/2000/svg" xmlns:xlink="http://www.w3.org/1999/xlink" x="0px" y="0px"
	 viewBox="0 0 135 40" style="enable-background:new 0 0 135 40;" xml:space="preserve">
<style type="text/css">
	.st0{fill:#4A4A4A;}
</style>
<title>google-play-badge</title>
<desc>Created with Sketch.</desc>
<g id="Page-1">
	<g id="google-play-badge">
		<g id="artwork">
			<g id="Group">
				<path id="Shape_2_" class="st0" d="M31.6,17.6v-2.4v-2.4c0-0.5,0.2-1,0.5-1.4c0.4-0.4,0.8-0.6,1.3-0.6s0.9,0.2,1.3,0.5
					c0.4,0.4,0.6,0.8,0.6,1.3v0.2v0.1v4.2v4.3c0,0.3,0.1,0.5,0.2,0.6c0.1,0.1,0.3,0.2,0.6,0.2h1.5H39c0.6,0,1,0.2,1.4,0.6
					s0.5,0.8,0.5,1.4c0,0.5-0.2,0.9-0.5,1.3S39.6,26,39.2,26c-0.7,0-1.4,0-2.1,0c-0.7,0-1.4,0-2,0c-0.9,0-1.6-0.4-2.3-1
					s-1.1-1.4-1.2-2.3c0-0.1,0-0.2,0-0.3s0-0.2,0-0.3v-2.3V17.6L31.6,17.6L31.6,17.6L31.6,17.6L31.6,17.6z M29.7,21.5v1.4v1.4
					c0,1.1-0.4,2-1.1,2.8c-0.7,0.7-1.6,1.1-2.7,1.1H24h-1.9c-0.4,0-0.8-0.2-1.1-0.5s-0.5-0.6-0.6-1.1c-0.1-0.4,0-0.9,0.2-1.2
					c0.2-0.4,0.5-0.7,0.9-0.8c0.1-0.1,0.3-0.1,0.4-0.1c0.1,0,0.3,0,0.4,0c0.5,0,1,0,1.4,0h1.4c0.3,0,0.5-0.1,0.7-0.2
					c0.1-0.1,0.2-0.3,0.2-0.7v-2.4v-2.4c0-0.5,0.1-0.9,0.4-1.2s0.6-0.6,1-0.7c0.6-0.1,1.1,0,1.6,0.3c0.5,0.4,0.7,0.9,0.7,1.5v1.5
					L29.7,21.5L29.7,21.5L29.7,21.5L29.7,21.5L29.7,21.5L29.7,21.5z M24.1,15.7v2.4c0,0,0,0.8,0,2.4c0,0.7-0.3,1.3-0.9,1.6
					c-0.6,0.4-1.2,0.4-1.8,0.1c-0.3-0.2-0.5-0.4-0.7-0.7c-0.2-0.3-0.3-0.6-0.3-0.9v-0.3v-0.2v-4.5v-4.5c0-0.4,0.1-0.8,0.4-1.2
					s0.6-0.6,1-0.7c0.6-0.2,1.1-0.1,1.6,0.3s0.8,0.9,0.8,1.5v2.4L24.1,15.7L24.1,15.7L24.1,15.7L24.1,15.7L24.1,15.7z M29.7,12.8
					c0,0.5-0.2,1-0.5,1.3c-0.4,0.4-0.8,0.6-1.3,0.6s-1-0.2-1.3-0.6c-0.4-0.4-0.5-0.8-0.5-1.4c0-0.5,0.2-1,0.5-1.3
					c0.4-0.4,0.8-0.6,1.3-0.6s1,0.2,1.3,0.6S29.7,12.3,29.7,12.8L29.7,12.8L29.7,12.8L29.7,12.8L29.7,12.8z M33.5,28.1
					c0,0.5-0.2,1-0.5,1.4c-0.4,0.4-0.8,0.6-1.3,0.6s-1-0.2-1.3-0.6c-0.4-0.4-0.5-0.8-0.5-1.4c0-0.5,0.2-0.9,0.5-1.3
					c0.4-0.4,0.8-0.6,1.3-0.6s1,0.2,1.3,0.5C33.3,27.1,33.5,27.6,33.5,28.1L33.5,28.1L33.5,28.1L33.5,28.1L33.5,28.1z M18.4,14.6
					c0-0.6-0.3-1-0.8-1.4s-1-0.5-1.5-0.3c-0.4,0.1-0.8,0.3-1,0.7c-0.3,0.3-0.4,0.7-0.4,1.2c0,0.8,0,1.6,0,2.4s0,1.6,0,2.5
					c0,0.3-0.1,0.4-0.2,0.6c-0.1,0.1-0.3,0.2-0.6,0.2h-1.5h-1.5c-0.1,0-0.1,0-0.2,0c-0.1,0-0.1,0-0.2,0c-0.5,0.1-0.8,0.3-1.1,0.6
					C9.1,21.4,9,21.9,9,22.3c0,0.4,0.1,0.7,0.3,1S9.7,23.8,10,24l0,0c0,0,0,0,0.1,0c0,0,0,0,0.1,0l0.1,0.1c0.1,0,0.2,0.1,0.4,0.1
					c0.1,0,0.3,0,0.4,0c0.2,0,0.5,0,0.7,0h0.7c0.5,0,0.9,0,1.4,0s0.9,0,1.4-0.1c0.9-0.1,1.7-0.4,2.3-1.1s1-1.5,1-2.4v-3L18.4,14.6
					L18.4,14.6L18.4,14.6L18.4,14.6L18.4,14.6z"/>
				<g id="cafebazaar" transform="translate(101.000000, 7.000000)">
					<path id="Shape_3_" class="st0" d="M16.1,6.6c0.5,1,0.8,2,1.2,2.8c0.8,0.1,1.2,0.1,1.3,0.1c0.5,0,1,0.1,1.5,0.2
						c0.6,0.1,1.3,0.2,2,0.2c1,0.1,1.7-0.1,2-0.6c0,0,0,0,0-0.1C23.6,8.5,22.2,7,16.1,6.6L16.1,6.6L16.1,6.6z M12.3,0.5
						c-1.8,0-3.6,2.8-4.6,5.3c0.4,0,0.8-0.1,1.3-0.1c1-1.9,2.1-3.6,3.4-3.6c1.2,0,2.4,1.6,3.4,3.6c0.4,0,0.9,0.1,1.3,0.1
						C15.9,3.3,14.1,0.5,12.3,0.5L12.3,0.5z M1,9.3C0.9,9.3,0.9,9.3,1,9.3C1.3,9.8,1.9,10,2.9,9.9c0.7,0,1.3-0.1,2-0.2
						c0.5-0.1,1-0.1,1.5-0.2c0,0,0.5-0.1,1.1-0.1c0.3-0.9,0.7-1.9,1.1-2.8C2.6,7.1,1.3,8.6,1,9.3L1,9.3L1,9.3z M15.1,5.7
						c-0.9-1.7-1.9-3-2.7-3c-0.9,0-1.8,1.3-2.7,3c0.9,0,1.8-0.1,2.9-0.1l0,0C13.4,5.6,14.3,5.7,15.1,5.7L15.1,5.7L15.1,5.7z
						 M12.5,6.5L12.5,6.5c-1.2,0-2.3,0-3.3,0.1C8.8,7.5,8.4,8.5,8.1,9.4c1.2-0.1,2.9-0.2,4.3-0.2c1.4,0,3,0.1,4.2,0.2
						c-0.3-0.9-0.7-1.9-1.2-2.8C14.6,6.5,13.6,6.5,12.5,6.5L12.5,6.5L12.5,6.5z M0.1,9C0.6,7.8,2.3,6.5,7,6c0.7-1.6,2.6-5.9,5.3-5.9
						S17,4.4,17.7,6c4.8,0.5,6.5,1.8,7.1,3C25,9.5,25,9.8,25,10c0,0.3-0.2,2.8-1.2,6.2c-0.9,3.1-2.5,6.6-3.5,7.9
						c-0.8,1-2.4,2.1-7.7,2.1s-6.9-1-7.7-2.1c-1.1-1.3-2.6-4.8-3.5-7.9c-1-3.4-1.2-5.9-1.2-6.2C0,9.7,0,9.4,0.1,9L0.1,9L0.1,9z"/>
				</g>
			</g>
		</g>
	</g>
</g>
<g>
	<path class="st0" d="M56.6,22c0,0.8-0.2,1.4-0.7,2s-1.1,0.9-1.9,0.9h-1.4l-0.2-1.1h1.2c0.5,0,0.9-0.1,1.3-0.4
		c0.4-0.3,0.6-0.7,0.6-1.2v-3.4h1.1L56.6,22L56.6,22z M56.5,16c0,0.2-0.1,0.4-0.2,0.5s-0.3,0.2-0.5,0.2c-0.5,0-0.8-0.2-0.8-0.7
		c0-0.4,0.3-0.6,0.8-0.6S56.5,15.6,56.5,16z"/>
	<path class="st0" d="M59.4,22.2h-1v-6.8h1V22.2z"/>
	<path class="st0" d="M73.5,22.2c-0.8,0-1.4-0.1-1.7-0.4c-0.4,0.3-0.7,0.4-1,0.4h-5.6c-0.4,0-0.8-0.2-1.1-0.5s-0.4-0.7-0.4-1.2v-1.6
		h1.1v1.5c0,0.3,0.1,0.5,0.2,0.6s0.3,0.2,0.6,0.2h4.9c0.3,0,0.5-0.1,0.6-0.2s0.2-0.3,0.2-0.6v-1.5h1.1v1.4c0,0.5,0.4,0.8,1.2,0.8
		L73.5,22.2L73.5,22.2z M67.8,17.1c0,0.2-0.1,0.3-0.2,0.4s-0.3,0.2-0.5,0.2c-0.5,0-0.8-0.2-0.8-0.6s0.2-0.6,0.7-0.6
		C67.5,16.6,67.8,16.8,67.8,17.1z M69.8,17.1c0,0.2-0.1,0.3-0.2,0.4s-0.3,0.2-0.5,0.2c-0.5,0-0.8-0.2-0.8-0.6s0.2-0.6,0.7-0.6
		C69.6,16.6,69.8,16.8,69.8,17.1z"/>
	<path class="st0" d="M78,20.5c0,0.5-0.1,0.8-0.5,1.2c-0.3,0.3-0.8,0.5-1.2,0.5h-3.2v-1h3.2c0.4,0,0.6-0.3,0.6-0.8
		c-0.5,0-1.2,0-1.9-0.1c-0.6-0.2-0.9-0.7-0.9-1.4c0-0.5,0.2-0.9,0.5-1.2c0.3-0.3,0.7-0.5,1.2-0.5c0.4,0,0.8,0.1,1.1,0.3
		c0.6,0.4,0.9,0.9,0.9,1.8L78,20.5z M76.9,19.4c0-0.8-0.4-1.2-1-1.2c-0.5,0-0.7,0.2-0.7,0.6c0,0.3,0.1,0.5,0.3,0.6
		c0.1,0,0.3,0,0.7,0.1C76.1,19.4,76.9,19.4,76.9,19.4z M76.7,15.8c0,0.2-0.1,0.4-0.2,0.5s-0.3,0.2-0.5,0.2c-0.5,0-0.8-0.2-0.8-0.7
		c0-0.4,0.2-0.6,0.7-0.6S76.7,15.4,76.7,15.8z"/>
	<path class="st0" d="M81.7,22.2c-0.9,0-1.5-0.2-1.9-0.5c-0.2-0.2-0.4-0.6-0.4-1.1v-5h1.1v4.5c0,0.5,0.1,0.8,0.2,0.9
		c0.1,0.1,0.4,0.1,0.9,0.1C81.7,21.2,81.7,22.2,81.7,22.2z"/>
	<path class="st0" d="M85,20.5c0,0.5-0.1,0.9-0.4,1.2c-0.3,0.4-0.7,0.5-1.1,0.5h-2.3v-1h1.9c0.3,0,0.5-0.1,0.6-0.2s0.2-0.3,0.2-0.6
		v-1.5H85V20.5z M82.8,24.2c0,0.2-0.1,0.3-0.2,0.4s-0.3,0.2-0.5,0.2s-0.4-0.1-0.5-0.2c-0.2-0.1-0.2-0.3-0.2-0.5
		c0-0.4,0.2-0.6,0.7-0.6C82.6,23.6,82.8,23.8,82.8,24.2z M84.8,24.2c0,0.2-0.1,0.3-0.2,0.4s-0.3,0.2-0.5,0.2s-0.4-0.1-0.5-0.2
		c-0.2-0.1-0.2-0.3-0.2-0.5c0-0.4,0.2-0.6,0.7-0.6C84.6,23.6,84.8,23.8,84.8,24.2z"/>
	<path class="st0" d="M89.9,22c0,0.8-0.2,1.4-0.7,2s-1.1,0.9-1.9,0.9h-1.4l-0.2-1.1h1.2c0.5,0,0.9-0.1,1.3-0.4
		c0.4-0.3,0.6-0.7,0.6-1.2v-3.4h1.1C89.9,18.9,89.9,22,89.9,22z"/>
	<path class="st0" d="M96.1,20.8c0,0.4-0.2,0.8-0.5,1s-0.7,0.4-1.1,0.4h-3.3l-0.1-1h3.3c0.4,0,0.6-0.1,0.6-0.4
		c0-0.1-0.1-0.3-0.2-0.4l-2.4-2.5l0.7-0.7l2.4,2.5C95.9,20,96.1,20.4,96.1,20.8z"/>
</g>
</svg>
