<?xml version="1.0" encoding="utf-8"?>
<!-- Generator: Adobe Illustrator 19.0.0, SVG Export Plug-In . SVG Version: 6.00 Build 0)  -->
<svg version="1.1" id="Layer_1" xmlns="http://www.w3.org/2000/svg" xmlns:xlink="http://www.w3.org/1999/xlink" x="0px" y="0px"
	 viewBox="0 0 94.5 94.5" style="enable-background:new 0 0 94.5 94.5;" xml:space="preserve">
<style type="text/css">
	.st0{fill:#414042;}
</style>
<g id="XMLID_2_">
	<path id="XMLID_3_" class="st0" d="M24.7,69.6v6.8c0,3.8-3,6.8-6.8,6.8s-6.8-3-6.8-6.8v-6.8H4.4V47.5l0,0c0-4.8,3.3-8.9,7.7-10.1
		l8-18.8c1.2-2.7,3.9-4.7,7.1-4.7h40.4c3.2,0,5.9,2,7.1,4.7l8,18.8c4.5,1.2,7.7,5.3,7.7,10.1l0,0v22.1h-6.9v6.8c0,3.8-3,6.8-6.8,6.8
		s-6.8-3-6.8-6.8v-6.8C69.7,69.6,24.7,69.6,24.7,69.6z M18.4,57.4c3.8,0,6.9-3.2,6.9-6.9c0-3.8-3.2-6.8-6.9-6.8s-6.9,3-6.9,6.8
		C11.5,54.3,14.6,57.4,18.4,57.4z M82.4,50.5c0-3.8-3-6.8-6.9-6.8c-3.8,0-6.9,3-6.9,6.8c0,3.8,3.2,6.9,6.9,6.9
		C79.3,57.4,82.4,54.3,82.4,50.5z M75.5,37l-6.8-16.2c-0.3-0.8-1.1-1.4-2-1.4H27.5c-0.9,0-1.7,0.6-2,1.4L18.8,37H75.5z"/>
</g>
</svg>
