<?xml version="1.0" encoding="utf-8"?>
<!-- Generator: Adobe Illustrator 21.0.0, SVG Export Plug-In . SVG Version: 6.00 Build 0)  -->
<svg version="1.1" id="Layer_1" xmlns="http://www.w3.org/2000/svg" xmlns:xlink="http://www.w3.org/1999/xlink" x="0px" y="0px"
	 viewBox="0 0 209 63" style="enable-background:new 0 0 209 63;" xml:space="preserve">
<style type="text/css">
	.st0{fill:#4A4A4A;}
</style>
<g>
	<g>
		<g>
			<path class="st0" d="M111.9,22.1c-0.3,0.4-0.8,0.6-1.5,0.6c-1.4,0-2.1-0.8-2.1-2.3v-1.1v0h0c-0.9,0.1-1.4,0.9-1.4,2.3v3.8h-1
				v-3.8v0c0-2.3,0.9-3.4,2.8-3.4h1.6c1.4,0,2.1,0.6,2.1,1.9v0.3c0,0.7,0.3,1.1,0.9,1.1h0.2c0.1,0,0.1,0.2,0.1,0.5v0.1
				c0,0.1,0,0.2,0,0.2s0,0.1,0,0.2s0,0.1,0,0.1s0,0-0.1,0h-0.2C112.6,22.6,112.2,22.5,111.9,22.1L111.9,22.1L111.9,22.1z
				 M110.2,19.3h-0.9h0v0v1.2c0,0.9,0.4,1.3,1.1,1.3c0.6,0,1-0.4,1-1.3v-0.2C111.3,19.6,110.9,19.3,110.2,19.3z"/>
			<path class="st0" d="M118.5,22.6h-0.1c-0.9,0-1.5-0.3-1.8-0.8c-0.4,0.5-1.1,0.8-2.1,0.8h-1.1c-0.2,0-0.3-0.2-0.3-0.5v-0.1
				c0-0.2,0-0.3,0.1-0.4s0.1-0.1,0.2-0.1h1.1c1,0,1.5-0.4,1.5-1.1v-1.5h1v1.5c0,0.8,0.4,1.1,1.3,1.1h0.1c0.1,0,0.1,0.2,0.1,0.5v0.1
				C118.6,22.5,118.5,22.6,118.5,22.6z M113.5,24.4l0.5-0.5c0.1-0.1,0.2-0.1,0.4,0l0.6,0.6c0.1,0.1,0.1,0.2,0,0.4l-0.5,0.5
				c-0.1,0.1-0.2,0.1-0.4,0l-0.6-0.6C113.4,24.7,113.4,24.5,113.5,24.4z M115.5,24.4l0.5-0.5c0.1-0.1,0.2-0.1,0.4,0l0.6,0.6
				c0.1,0.1,0.1,0.2,0,0.4l-0.5,0.5c-0.1,0.1-0.2,0.1-0.4,0l-0.6-0.6C115.4,24.7,115.4,24.5,115.5,24.4z"/>
			<path class="st0" d="M124.4,22.6h-0.8c-0.8,0-1.5-0.2-2.1-0.5l0,0l0,0c-0.7,0.3-1.4,0.5-2.1,0.5h-1.1c-0.2,0-0.3-0.2-0.3-0.5
				v-0.1c0-0.3,0.1-0.5,0.3-0.5h1.7h0l0,0c-0.4-0.4-0.6-0.9-0.6-1.4c0-0.6,0.2-1.1,0.6-1.5c0.4-0.4,0.9-0.6,1.5-0.6s1.1,0.2,1.5,0.6
				c0.4,0.4,0.6,0.9,0.6,1.5c0,0.6-0.2,1.1-0.6,1.5l0,0h0h1.4c0.1,0,0.1,0.2,0.1,0.5v0.1C124.6,22.5,124.5,22.6,124.4,22.6z
				 M119.7,15.9l0.5-0.5c0.1-0.1,0.2-0.1,0.4,0l0.6,0.6c0.1,0.1,0.1,0.2,0,0.4l-0.5,0.5c-0.1,0.1-0.2,0.1-0.4,0l-0.6-0.6
				C119.6,16.1,119.6,16,119.7,15.9z M120.5,20.1c0,0.3,0.1,0.5,0.3,0.8s0.5,0.3,0.8,0.3s0.6-0.1,0.8-0.3c0.2-0.2,0.3-0.5,0.3-0.8
				s-0.1-0.5-0.3-0.8c-0.2-0.2-0.5-0.3-0.8-0.3s-0.6,0.1-0.8,0.3C120.6,19.6,120.5,19.8,120.5,20.1z M121.8,15.9l0.5-0.5
				c0.1-0.1,0.2-0.1,0.4,0l0.6,0.6c0.1,0.1,0.1,0.2,0,0.4l-0.5,0.5c-0.1,0.1-0.2,0.1-0.4,0l-0.6-0.6C121.7,16.1,121.7,16,121.8,15.9
				z"/>
			<path class="st0" d="M129.5,22.6h-0.1c-0.9,0-1.5-0.3-1.8-0.8c-0.4,0.5-1.1,0.8-2.1,0.8h-1.1c-0.2,0-0.3-0.2-0.3-0.5v-0.1
				c0-0.2,0-0.3,0.1-0.4s0.1-0.1,0.2-0.1h1.1c1,0,1.5-0.4,1.5-1.1v-1.5h1v1.5c0,0.8,0.4,1.1,1.3,1.1h0.1c0.1,0,0.1,0.2,0.1,0.5v0.1
				C129.6,22.5,129.6,22.6,129.5,22.6z M124.9,16.4l0.5-0.5c0.1-0.1,0.2-0.1,0.4,0l0.6,0.6c0.1,0.1,0.1,0.2,0,0.4l-0.5,0.5
				c-0.1,0.1-0.2,0.1-0.4,0l-0.6-0.6C124.8,16.6,124.8,16.5,124.9,16.4z M126.9,16.4l0.5-0.5c0.1-0.1,0.2-0.1,0.4,0l0.6,0.6
				c0.1,0.1,0.1,0.2,0,0.4l-0.5,0.5c-0.1,0.1-0.2,0.1-0.4,0l-0.6-0.6C126.8,16.6,126.8,16.5,126.9,16.4z"/>
			<path class="st0" d="M138.5,20.4c0,0.8,0.4,1.1,1.3,1.1h0.2c0.1,0,0.1,0.2,0.1,0.5v0.1c0,0.1,0,0.2,0,0.2s0,0.1,0,0.2
				s0,0.1,0,0.1s0,0-0.1,0h-0.1c-0.9,0-1.5-0.3-1.8-0.8l0,0l0,0c-0.2,0.5-0.7,0.8-1.5,0.8c-0.4,0-0.6-0.1-0.9-0.2s-0.4-0.3-0.6-0.6
				l0,0l0,0c-0.3,0.5-0.8,0.8-1.6,0.8c-0.7,0-1.3-0.3-1.5-0.8l0,0l0,0c-0.3,0.5-1,0.8-1.9,0.8h-0.6c-0.2,0-0.3-0.2-0.3-0.5v-0.1
				c0-0.2,0-0.3,0.1-0.4s0.1-0.1,0.2-0.1h0.6c0.9,0,1.4-0.4,1.4-1.1v-1.5h1l0,1.5c0,0.7,0.4,1.1,1.1,1.1c0.7,0,1-0.4,1-1.1v-1.5h1
				l0,1.5c0,0.7,0.3,1.1,1,1.1c0.6,0,0.9-0.4,0.9-1.1v-1.5h1L138.5,20.4z"/>
			<path class="st0" d="M139.9,22.6c-0.2,0-0.3-0.2-0.3-0.5v-0.1c0-0.2,0-0.3,0.1-0.4s0.1-0.1,0.2-0.1h0.4c0.5,0,0.8-0.2,0.8-0.5
				c0-0.9,0.1-1.5,0.2-1.8c0.3-0.8,0.9-1.1,1.8-1.1c1.3,0,2,0.8,2,2.3c0,1.5-0.7,2.2-2,2.2c-0.7,0-1.2-0.2-1.6-0.6l0,0l0,0
				c-0.2,0.3-0.6,0.5-1.3,0.5H139.9z M143.2,19.2c-0.7,0-1,0.4-1,1.2c0,0.8,0.3,1.3,1,1.3c0.6,0,0.9-0.4,0.9-1.3
				C144.1,19.6,143.8,19.2,143.2,19.2z"/>
			<path class="st0" d="M151.7,22.6h-2.1v-1.1h2.1c1,0,1.5-0.2,1.5-0.7c0-0.3-0.2-0.6-0.6-1.1l-1.6-1.9l0.7-0.8l1.7,2
				c0.5,0.6,0.8,1.2,0.8,1.8C154.3,22.1,153.5,22.6,151.7,22.6z"/>
			<path class="st0" d="M159.5,20.6v1v0h0h0.9c0.1,0,0.1,0.2,0.1,0.5v0.1c0,0.2,0,0.3,0,0.4s-0.1,0.1-0.1,0.1h-0.9h0v0
				c0,1.8-1.1,2.6-3.3,2.6h-0.4v-1h0.4c1.6,0,2.4-0.5,2.4-1.6v0h0h-0.9c-1.4,0-2-0.7-2-2c0-0.7,0.2-1.3,0.5-1.7
				c0.3-0.4,0.9-0.6,1.5-0.6c0.6,0,1,0.2,1.4,0.5c0.2,0.2,0.3,0.4,0.4,0.7S159.5,20.2,159.5,20.6z M156.5,20.6c0,0.6,0.4,1,1.1,1
				h0.9h0v0l0-1c0-0.8-0.3-1.2-1-1.2c-0.3,0-0.6,0.1-0.8,0.3S156.5,20.2,156.5,20.6z"/>
			<path class="st0" d="M164.5,22.6h-0.3c-0.7,0-1.2-0.3-1.7-0.8l0,0l0,0c-0.4,0.5-0.9,0.8-1.6,0.8h-0.6c-0.2,0-0.3-0.2-0.3-0.5
				v-0.1c0-0.2,0-0.3,0.1-0.4c0.1-0.1,0.1-0.1,0.2-0.1h0.5c0.8,0,1.2-0.4,1.2-1.1v-5.8h1v5.8c0,0.7,0.4,1.1,1.2,1.1h0.2
				c0.1,0,0.1,0.2,0.1,0.5v0.1C164.7,22.5,164.6,22.6,164.5,22.6z"/>
			<path class="st0" d="M164.5,22.6c-0.2,0-0.3-0.2-0.3-0.5v-0.1c0-0.3,0.1-0.5,0.3-0.5h1.2c0.8,0,1.2-0.4,1.2-1.1v-1.7h1v1.7
				c0,1.5-0.7,2.2-2.2,2.2H164.5z M166.1,16.4l0.5-0.5c0.1-0.1,0.3-0.1,0.4,0l0.6,0.6c0.1,0.1,0.1,0.3,0,0.4l-0.5,0.5
				c-0.1,0.1-0.3,0.1-0.4,0l-0.6-0.6C166,16.6,166,16.5,166.1,16.4z"/>
			<path class="st0" d="M169.4,14.7h1v7.9h-1V14.7z"/>
			<path class="st0" d="M173.9,22.6h-2.1v-1.1h2.1c1,0,1.5-0.2,1.5-0.7c0-0.3-0.2-0.6-0.6-1.1l-1.6-1.9l0.7-0.8l1.7,2
				c0.5,0.6,0.8,1.2,0.8,1.8C176.5,22.1,175.7,22.6,173.9,22.6z"/>
		</g>
		<g>
			<path class="st0" d="M85.7,34.5c0-0.5,0.2-0.8,0.5-1.1c0.3-0.3,0.7-0.5,1.3-0.5c0.3,0,0.5,0,0.7,0.1c0.2,0.1,0.4,0.2,0.5,0.3
				s0.3,0.3,0.3,0.5c0.1,0.2,0.1,0.4,0.1,0.6c0,0.2,0,0.5-0.1,0.7c-0.1,0.2-0.2,0.4-0.3,0.5c-0.2,0.1-0.3,0.3-0.5,0.3
				s-0.5,0.1-0.7,0.1s-0.5,0-0.7-0.1s-0.4-0.2-0.5-0.3c-0.2-0.1-0.3-0.3-0.3-0.5C85.7,35,85.7,34.7,85.7,34.5z M89,49.1h-3.1V37.5
				H89V49.1z"/>
			<path class="st0" d="M104.6,41.7c0,1.2-0.2,2.3-0.5,3.2s-0.8,1.8-1.4,2.4c-0.6,0.7-1.3,1.2-2.1,1.5c-0.8,0.4-1.7,0.5-2.7,0.5
				s-1.9-0.2-2.7-0.5c-0.8-0.4-1.5-0.9-2.1-1.5c-0.6-0.7-1.1-1.5-1.4-2.4s-0.5-2-0.5-3.2V41c0-1.2,0.2-2.3,0.5-3.2
				c0.3-1,0.8-1.8,1.4-2.4s1.3-1.2,2.1-1.5c0.8-0.4,1.7-0.5,2.7-0.5s1.9,0.2,2.7,0.5c0.8,0.4,1.5,0.9,2.1,1.5s1,1.5,1.4,2.4
				c0.3,1,0.5,2,0.5,3.2V41.7z M101.3,41c0-1.6-0.3-2.9-0.9-3.7s-1.4-1.3-2.5-1.3s-1.9,0.4-2.5,1.3s-0.9,2.1-0.9,3.7v0.7
				c0,0.8,0.1,1.5,0.2,2.2c0.2,0.6,0.4,1.2,0.7,1.6c0.3,0.4,0.6,0.7,1.1,1c0.4,0.2,0.9,0.3,1.5,0.3c1.1,0,1.9-0.4,2.5-1.3
				s0.9-2.1,0.9-3.7V41z"/>
			<path class="st0" d="M115,45c0-0.3,0-0.5-0.1-0.7c-0.1-0.2-0.2-0.4-0.5-0.6c-0.2-0.2-0.5-0.4-0.9-0.5c-0.4-0.2-0.9-0.4-1.5-0.6
				c-0.7-0.2-1.4-0.5-2-0.8c-0.6-0.3-1.2-0.6-1.7-1c-0.5-0.4-0.9-0.8-1.1-1.3c-0.3-0.5-0.4-1.1-0.4-1.8c0-0.7,0.1-1.2,0.4-1.8
				c0.3-0.5,0.7-1,1.2-1.4c0.5-0.4,1.1-0.7,1.8-0.9c0.7-0.2,1.5-0.3,2.3-0.3c0.9,0,1.7,0.1,2.4,0.4c0.7,0.2,1.3,0.6,1.8,1
				s0.9,0.9,1.2,1.5c0.3,0.6,0.4,1.2,0.4,1.9H115c0-0.3-0.1-0.6-0.2-0.9c-0.1-0.3-0.3-0.5-0.5-0.7c-0.2-0.2-0.5-0.4-0.8-0.5
				s-0.7-0.2-1.1-0.2c-0.4,0-0.8,0-1.1,0.1c-0.3,0.1-0.6,0.2-0.8,0.4c-0.2,0.2-0.4,0.4-0.5,0.6c-0.1,0.2-0.2,0.5-0.2,0.7
				c0,0.5,0.3,0.9,0.8,1.3c0.5,0.3,1.3,0.7,2.3,1c0.9,0.3,1.6,0.6,2.3,0.9c0.6,0.3,1.2,0.7,1.6,1.1c0.4,0.4,0.8,0.9,1,1.4
				s0.3,1.1,0.3,1.7c0,0.7-0.1,1.3-0.4,1.8c-0.3,0.5-0.7,1-1.1,1.4c-0.5,0.4-1.1,0.7-1.8,0.8c-0.7,0.2-1.5,0.3-2.3,0.3
				c-0.5,0-1,0-1.5-0.1c-0.5-0.1-1-0.2-1.5-0.4c-0.5-0.2-0.9-0.4-1.3-0.7s-0.8-0.6-1-1c-0.3-0.4-0.5-0.8-0.7-1.3
				c-0.2-0.5-0.3-1-0.3-1.6h3.2c0,0.5,0.1,0.9,0.2,1.2c0.2,0.3,0.4,0.6,0.6,0.8c0.3,0.2,0.6,0.4,1,0.4c0.4,0.1,0.8,0.1,1.3,0.1
				c0.4,0,0.8,0,1.1-0.1s0.6-0.2,0.8-0.4c0.2-0.2,0.3-0.3,0.4-0.6C115,45.5,115,45.3,115,45z"/>
			<path class="st0" d="M132.2,46.9c-0.5,0.3-1.3,0.5-2.1,0.5c-1.2,0-2.2-0.3-3-0.9c-0.9-0.6-1.4-1.6-1.4-3.1c0-1.8,0.7-3.1,2.3-3.8
				c1-0.5,2.2-0.7,3.8-0.7h2.2h0.4v0.4v5.5c0,0.5,0.1,0.9,0.4,1.2s0.7,0.4,1.4,0.4h0.5c0.4,0,0.7,0.4,0.7,1.1c0,0.1,0,0.1,0,0.2v0.1
				c0,0,0,0.1,0,0.1c0,0.8-0.2,1.3-0.7,1.3h-0.5c-1.1,0-1.9-0.2-2.6-0.5C133,48.2,132.5,47.7,132.2,46.9L132.2,46.9L132.2,46.9z
				 M128.3,43.5c0,0.3,0,0.5,0.2,0.6c0.3,0.4,0.9,0.7,1.7,0.7c0.8,0,1.3-0.2,1.5-0.5c0.1-0.1,0.1-0.3,0.1-0.5v-2v0h0h-0.2
				c-1.2,0-2,0.2-2.6,0.5C128.6,42.4,128.3,42.9,128.3,43.5z"/>
			<path class="st0" d="M146.2,47.3l-0.9,0.5c-1.6,0.9-3.4,1.3-5.3,1.3h-3.3c-0.3,0-0.6-0.1-0.8-0.4c-0.2-0.3-0.2-0.6-0.2-1v-0.1
				c0-0.4,0.1-0.7,0.2-0.9c0.2-0.3,0.4-0.4,0.8-0.4h3.3c1.4,0,2.7-0.3,3.9-0.9l2.3-1.2l-1.4-0.8c-0.9-0.5-1.7-0.8-2.5-0.7
				c-0.8,0-1.5,0.3-2.3,0.9l-0.8,0.6l-0.3,0.2l-0.3-0.3l-1.2-1.4l-0.3-0.3l0.3-0.3l0.7-0.5c0.6-0.5,1.2-0.9,1.8-1.2s1.2-0.5,1.9-0.5
				c0.6-0.1,1.3,0,1.9,0.1c0.6,0.2,1.3,0.4,1.9,0.8l2,1.2c0.7,0.4,1.3,0.6,1.8,0.8l0.3,0.1v2.5l-0.2,0.1l-1.1,0.6
				c0.2,0.1,0.4,0.2,0.6,0.2c0.2,0,0.4,0.1,0.7,0.1h1.3c0.1,0,0.2,0,0.3,0.1c0.1,0,0.1,0.1,0.2,0.2s0.1,0.2,0.1,0.2
				c0,0.1,0,0.2,0.1,0.3c0,0.1,0,0.2,0,0.3c0,0.1,0,0.1,0,0.3c0,0,0,0,0,0c0,0,0,0,0,0c0,0,0,0,0,0v0.1c0,0.3,0,0.6-0.1,0.8
				c-0.1,0.4-0.3,0.5-0.6,0.5h-1.3C148.2,49.1,147,48.5,146.2,47.3z M141.2,35.9l1-1c0.3-0.3,0.7-0.4,1-0.1l1.1,1.1
				c0.3,0.3,0.3,0.7,0,1l-1,1c-0.3,0.3-0.7,0.3-1,0l-1.1-1.1C140.8,36.5,140.8,36.2,141.2,35.9z"/>
			<path class="st0" d="M168,44.7c0,0.6,0.2,1,0.5,1.3c0.2,0.1,0.4,0.2,0.6,0.3s0.6,0.1,0.9,0.1h0.3c0,0,0.1,0,0.1,0
				c0.4,0.1,0.5,0.4,0.6,1c0,0,0,0.1,0,0.2s0,0.1,0,0.2v0.1c0,0.9-0.2,1.4-0.7,1.4h-0.2c-0.4,0-0.7,0-1-0.1c-0.3,0-0.6-0.1-0.9-0.2
				c-0.3-0.1-0.5-0.2-0.8-0.4c-0.2-0.1-0.4-0.3-0.6-0.5l0,0l0,0c-0.3,0.4-0.7,0.7-1.2,0.9c-0.5,0.2-1,0.3-1.6,0.3
				c-0.6,0-1.1-0.1-1.6-0.3c-0.5-0.2-0.8-0.5-1.1-0.8l0,0l0,0c-0.6,0.8-1.6,1.1-2.9,1.1c-0.6,0-1.2-0.1-1.7-0.3
				c-0.5-0.2-0.9-0.5-1.2-0.9l0,0l0,0c-0.7,0.8-1.9,1.2-3.5,1.2h-1c-0.7,0-1-0.5-1-1.4v-0.1c0-0.4,0.1-0.7,0.2-0.9
				c0.2-0.3,0.4-0.4,0.8-0.4h1c0.7,0,1.3-0.1,1.6-0.4c0.3-0.3,0.5-0.7,0.5-1.3v-2.8v-0.4h0.4h1.9h0.4v0.4l0,2.8c0,0.3,0,0.5,0.1,0.8
				c0.1,0.2,0.2,0.4,0.3,0.5c0.2,0.3,0.6,0.4,1.2,0.4c0.5,0,0.9-0.1,1.1-0.4c0.1-0.1,0.1-0.2,0.2-0.3c0.1-0.1,0.1-0.3,0.1-0.4
				c0-0.2,0-0.3,0-0.5v-2.8v-0.4h0.4h1.9h0.4v0.4l0,2.8c0,0.6,0.1,1,0.3,1.3s0.6,0.4,1.1,0.4c0.2,0,0.4,0,0.6-0.1
				c0.2-0.1,0.3-0.2,0.4-0.3c0.2-0.2,0.3-0.7,0.3-1.3v-2.8v-0.4h0.4h1.9h0.4v0.4L168,44.7z"/>
			<path class="st0" d="M170.2,49.1c-0.7,0-1-0.5-1-1.4v-0.1c0-0.9,0.3-1.3,1-1.3h2.2c0.6,0,1.1-0.1,1.3-0.4
				c0.3-0.3,0.4-0.7,0.4-1.3v-3.2v-0.4h0.4h1.9h0.4v0.4v3.2c0,1.4-0.4,2.5-1.2,3.3c-0.8,0.8-1.9,1.1-3.3,1.1H170.2z M173.1,37.1l1-1
				c0.3-0.3,0.7-0.4,1-0.1l1.1,1.1c0.3,0.3,0.3,0.7,0,1l-1,1c-0.3,0.3-0.7,0.3-1,0L173,38C172.7,37.7,172.8,37.4,173.1,37.1z"/>
		</g>
		<g id="Mac">
			<g id="Apple_2_">
				<path class="st0" d="M46.8,40.6c-0.2,0.7-0.5,1.3-0.7,1.9c-0.6,1.4-1.4,2.8-2.2,4c-1.2,1.7-2.1,2.8-2.9,3.5
					c-1.1,1-2.4,1.6-3.7,1.6c-0.9,0-2.1-0.3-3.4-0.8c-1.3-0.5-2.5-0.8-3.7-0.8c-1.2,0-2.4,0.3-3.8,0.8c-1.3,0.5-2.4,0.8-3.2,0.8
					c-1.3,0-2.5-0.5-3.8-1.7c-0.8-0.7-1.8-1.9-3-3.6c-1.3-1.8-2.3-3.9-3.2-6.3C12.5,37.5,12,35,12,32.6c0-2.8,0.6-5.2,1.8-7.2
					c0.9-1.6,2.2-2.9,3.8-3.8c1.6-0.9,3.3-1.4,5.1-1.4c1,0,2.3,0.3,3.9,0.9c1.6,0.6,2.7,0.9,3.1,0.9c0.3,0,1.5-0.4,3.5-1.1
					c1.8-0.7,3.4-0.9,4.7-0.8c3.5,0.3,6.1,1.7,7.8,4.1c-3.1,1.9-4.7,4.5-4.6,7.9c0,2.6,1,4.8,2.9,6.6C44.8,39.5,45.8,40.1,46.8,40.6
					z M38.1,10.3c0,0.3,0,0.5,0,0.8c0,2.1-0.8,4-2.3,5.8c-1.8,2.1-4,3.3-6.4,3.2c0-0.2,0-0.5,0-0.8c0-2,0.9-4.1,2.4-5.9
					c0.8-0.9,1.7-1.6,2.9-2.2C35.9,10.7,37,10.3,38.1,10.3z"/>
			</g>
		</g>
	</g>
</g>
</svg>
