<svg viewBox="0 0 120 42" xmlns="http://www.w3.org/2000/svg" xmlns:sketch="http://www.bohemiancoding.com/sketch/ns"><title>googleplay_black</title><desc>Created with Sketch.</desc><g sketch:type="MSLayerGroup" fill="none"><path d="M117.368 34.296c0 3.549-2.606 5.755-6.153 5.755h-104.236c-3.547 0-6.424-2.878-6.424-6.427v-27.147c0-3.548 2.877-6.426 6.424-6.426h104.236c3.547 0 6.153 2.878 6.153 6.426v27.819z" stroke="#221C28" stroke-width="1.5" sketch:type="MSShapeGroup" transform="translate(1 1.126)"/><path d="M81.384 29.889l-.877.827c-.202.112-.403.241-.604.333-.61.277-1.229.346-1.78.346-.586 0-1.503-.038-2.44-.715-1.302-.917-1.871-2.493-1.871-3.866 0-2.844 2.314-4.238 4.202-4.238.66 0 1.338.165 1.889.514.916.605 1.152 1.393 1.284 1.815l-4.312 1.741-1.411.11c.457 2.331 2.034 3.687 3.777 3.687.871 0 1.517-.284 2.11-.577l.033.023zm-2.6-4.637c.35-.128.532-.237.532-.493 0-.732-.829-1.578-1.818-1.578-.732 0-2.108.57-2.108 2.552 0 .309.037.638.056.968l3.338-1.449z" fill="#221C28" sketch:type="MSShapeGroup"/><path d="M72.371 29.747c0 .713.127.823.73.879l.937.09-.679.404h-3.231c.424-.55.496-.604.496-.971v-.409l-.007-10.903h-1.426l1.373-.662h2.623c-.569.329-.738.53-.812 1.171l-.004 10.401" fill="#221C28" sketch:type="MSShapeGroup"/><path d="M67.359 23.476c.421.346 1.3 1.081 1.3 2.474 0 1.358-.766 1.998-1.538 2.604-.237.239-.514.498-.514.898 0 .405.277.625.477.789l.662.512c.805.68 1.539 1.303 1.539 2.569 0 1.725-1.669 3.464-4.823 3.464-2.658 0-3.942-1.265-3.942-2.622 0-.66.328-1.596 1.413-2.236 1.136-.695 2.677-.788 3.502-.842-.258-.333-.552-.681-.552-1.25 0-.31.094-.496.184-.714-.2.019-.403.038-.586.038-1.945 0-3.045-1.451-3.045-2.881 0-.843.385-1.779 1.175-2.457 1.045-.861 2.292-1.009 3.283-1.009h3.779l-1.175.663h-1.139zm-1.3 8.141c-.149-.02-.24-.02-.422-.02-.166 0-1.156.036-1.924.294-.405.148-1.579.587-1.579 1.889 0 1.3 1.267 2.237 3.227 2.237 1.76 0 2.695-.843 2.695-1.98 0-.935-.605-1.428-1.997-2.42zm.528-3.485c.424-.423.461-1.007.461-1.34 0-1.318-.787-3.373-2.311-3.373-.476 0-.991.239-1.283.608-.31.382-.403.878-.403 1.354 0 1.228.716 3.265 2.291 3.265.46 0 .955-.223 1.245-.514z" fill="#221C28" sketch:type="MSShapeGroup"/><path d="M55.989 31.357c-2.915 0-4.474-2.27-4.474-4.325 0-2.401 1.961-4.456 4.75-4.456 2.696 0 4.384 2.111 4.384 4.327 0 2.164-1.669 4.454-4.66 4.454zm2.294-1.483c.443-.587.551-1.32.551-2.034 0-1.615-.77-4.695-3.044-4.695-.605 0-1.214.236-1.653.622-.716.642-.844 1.448-.844 2.239 0 1.812.895 4.8 3.118 4.8.717 0 1.449-.346 1.872-.932z" fill="#221C28" sketch:type="MSShapeGroup"/><path d="M46.23 31.357c-2.915 0-4.472-2.27-4.472-4.325 0-2.401 1.961-4.456 4.749-4.456 2.694 0 4.381 2.111 4.381 4.327 0 2.164-1.666 4.454-4.658 4.454zm2.294-1.483c.44-.587.55-1.32.55-2.034 0-1.615-.772-4.695-3.044-4.695-.607 0-1.209.236-1.649.622-.718.642-.845 1.448-.845 2.239 0 1.812.899 4.8 3.118 4.8.716 0 1.446-.346 1.87-.932z" fill="#221C28" sketch:type="MSShapeGroup"/><path d="M40.592 30.721l-2.459.563c-.996.157-1.89.295-2.837.295-4.742 0-6.549-3.491-6.549-6.222 0-3.337 2.56-6.429 6.945-6.429.927 0 1.82.136 2.633.357 1.288.363 1.89.809 2.267 1.07l-1.428 1.356-.602.135.43-.684c-.583-.568-1.651-1.616-3.679-1.616-2.713 0-4.759 2.061-4.759 5.072 0 3.233 2.336 6.273 6.084 6.273 1.101 0 1.667-.221 2.182-.427v-2.772l-2.596.14 1.376-.739h3.643l-.446.429c-.121.102-.136.136-.17.273-.018.157-.035.655-.035.83v2.096" fill="#221C28" sketch:type="MSShapeGroup"/><path d="M86.671 29.967v4.671h-.928v-11.885h.928v1.353c.604-.874 1.708-1.568 2.991-1.568 2.3 0 3.849 1.745 3.849 4.507 0 2.744-1.549 4.525-3.849 4.525-1.211 0-2.295-.624-2.991-1.603zm5.844-2.922c0-2.082-1.086-3.67-3.01-3.67-1.195 0-2.337.94-2.834 1.758v3.805c.497.82 1.639 1.794 2.834 1.794 1.924 0 3.01-1.602 3.01-3.687z" fill="#221C28" sketch:type="MSShapeGroup"/><path d="M94.778 19.471h.927v11.885h-.927v-11.885z" fill="#221C28" sketch:type="MSShapeGroup"/><path d="M106.114 33.87c.198.088.536.142.752.142.567 0 .962-.232 1.317-1.051l.677-1.533-3.655-8.675h1.035l3.135 7.517 3.104-7.517h1.049l-4.457 10.495c-.462 1.082-1.19 1.602-2.189 1.602-.3 0-.696-.054-.928-.125l.16-.855" fill="#221C28" sketch:type="MSShapeGroup"/><path d="M103.404 31.33c-.061-.298-.108-.561-.142-.78-.029-.22-.045-.443-.045-.671-.318.467-.768.855-1.344 1.162-.576.307-1.123.459-1.874.459-.903 0-1.605-.223-2.106-.674-.499-.45-.75-1.061-.75-1.833 0-.771.364-1.397 1.089-1.876.725-.481 1.662-.719 2.822-.719h2.163v-1.07c0-.615-.21-1.099-.629-1.451-.42-.351-1.011-.529-1.776-.529-.7 0-1.267.163-1.699.479-.428.322-.644.723-.644 1.205h-.949l-.02-.047c-.034-.649.264-1.219.896-1.711.628-.492 1.453-.74 2.468-.74 1.011 0 1.829.244 2.447.729.616.481.925 1.176.925 2.085v4.244c0 .305.014.599.053.886.039.288.101.575.184.852h-1.069zm-3.292-.675c.789 0 1.355-.177 1.934-.525.575-.346.966-.798 1.171-1.344v-1.652h-2.174c-.83 0-1.518.183-2.058.554-.542.369-.817.817-.817 1.337 0 .49.174.883.52 1.18.347.301.821.45 1.424.45z" fill="#221C28" sketch:type="MSShapeGroup"/><path d="M33.909 12.618l-.426-1.122h-2.662l-.426 1.122h-1.157l2.279-5.802h1.27l2.279 5.802h-1.157zm-1.756-4.784l-1.044 2.766h2.087l-1.043-2.766z" fill="#221C28" sketch:type="MSShapeGroup"/><path d="M39.952 12.618l-3.027-4.149v4.149h-1.018v-5.802h1.045l2.965 4.019v-4.019h1.018v5.802h-.983" fill="#221C28" sketch:type="MSShapeGroup"/><path d="M42.384 12.618v-5.802h2.158c1.817 0 3.035 1.2 3.035 2.897 0 1.713-1.218 2.905-3.027 2.905h-2.166zm4.149-2.905c0-1.114-.695-2.001-1.983-2.001h-1.148v4.01h1.14c1.261 0 1.991-.905 1.991-2.009z" fill="#221C28" sketch:type="MSShapeGroup"/><path d="M52.089 12.618l-1.278-2.166h-1.018v2.166h-1.017v-5.802h2.548c1.148 0 1.905.739 1.905 1.818 0 1.026-.678 1.592-1.383 1.705l1.427 2.279h-1.184zm.096-3.993c0-.556-.418-.913-.991-.913h-1.401v1.844h1.401c.573 0 .991-.366.991-.931z" fill="#221C28" sketch:type="MSShapeGroup"/><path d="M54.209 9.721c0-1.731 1.227-3.001 2.967-3.001 1.73 0 2.966 1.27 2.966 3.001 0 1.731-1.236 3.001-2.966 3.001-1.74 0-2.967-1.27-2.967-3.001zm4.889 0c0-1.2-.757-2.096-1.922-2.096-1.175 0-1.923.896-1.923 2.096 0 1.192.748 2.097 1.923 2.097 1.165 0 1.922-.905 1.922-2.097z" fill="#221C28" sketch:type="MSShapeGroup"/><path d="M61.331 6.816h1.017v5.802h-1.017v-5.802z" fill="#221C28" sketch:type="MSShapeGroup"/><path d="M63.801 12.618v-5.802h2.157c1.817 0 3.035 1.2 3.035 2.897 0 1.713-1.218 2.905-3.027 2.905h-2.165zm4.149-2.905c0-1.114-.697-2.001-1.984-2.001h-1.149v4.01h1.141c1.26 0 1.992-.905 1.992-2.009z" fill="#221C28" sketch:type="MSShapeGroup"/><path d="M76.722 12.618l-.426-1.122h-2.661l-.427 1.122h-1.156l2.278-5.802h1.27l2.279 5.802h-1.157zm-1.757-4.784l-1.044 2.766h2.089l-1.045-2.766z" fill="#221C28" sketch:type="MSShapeGroup"/><path d="M78.72 12.618v-5.802h2.558c1.217 0 1.887.827 1.887 1.818 0 .983-.679 1.809-1.887 1.809h-1.54v2.175h-1.018zm3.401-3.984c0-.557-.409-.922-.983-.922h-1.4v1.835h1.4c.574 0 .983-.365.983-.913z" fill="#221C28" sketch:type="MSShapeGroup"/><path d="M84.233 12.618v-5.802h2.557c1.217 0 1.888.827 1.888 1.818 0 .983-.679 1.809-1.888 1.809h-1.54v2.175h-1.017zm3.4-3.984c0-.557-.408-.922-.982-.922h-1.401v1.835h1.401c.574 0 .982-.365.982-.913z" fill="#221C28" sketch:type="MSShapeGroup"/><path d="M91.953 9.721c0-1.731 1.227-3.001 2.967-3.001 1.731 0 2.966 1.27 2.966 3.001 0 1.731-1.235 3.001-2.966 3.001-1.74 0-2.967-1.27-2.967-3.001zm4.889 0c0-1.2-.757-2.096-1.922-2.096-1.175 0-1.923.896-1.923 2.096 0 1.192.748 2.097 1.923 2.097 1.165 0 1.922-.905 1.922-2.097z" fill="#221C28" sketch:type="MSShapeGroup"/><path d="M103.119 12.618l-3.026-4.149v4.149h-1.018v-5.802h1.044l2.966 4.019v-4.019h1.018v5.802h-.984" fill="#221C28" sketch:type="MSShapeGroup"/><path d="M16.635 26.56l2.975-2.975h-.001l-2.974 2.975-9.498-9.496h-.001l9.499 9.498-9.514 9.513 9.514-9.513 2.988 2.989h.002l-2.99-2.991" fill="#221C28" sketch:type="MSShapeGroup"/><path d="M19.609 23.585l-11.595-6.376c-.328-.18-.632-.222-.877-.145l9.498 9.496 2.974-2.975" fill="#221C28" sketch:type="MSShapeGroup"/><path d="M19.625 29.551l3.958-2.176c.802-.444.802-1.164 0-1.606l-3.973-2.184-2.975 2.975 2.99 2.991" fill="#221C28" sketch:type="MSShapeGroup"/><path d="M7.136 17.064c-.353.11-.581.467-.581 1.008l.002 17c0 .534.222.886.564 1.003l9.514-9.513-9.499-9.498" fill="#221C28" sketch:type="MSShapeGroup"/><path d="M7.121 36.075c.247.084.557.045.893-.14l11.609-6.384-2.988-2.989-9.514 9.513" fill="#221C28" sketch:type="MSShapeGroup"/></g></svg>