<svg xmlns="http://www.w3.org/2000/svg" width="209" height="63" viewBox="0 0 209 63">
    <g fill="none" fill-rule="evenodd">
        <path fill="#FFF" d="M0 0h208.773v63H0z"/>
        <g fill="#4A4A4A">
            <path d="M68.874 11.518h3.553c1.536 0 2.734.454 3.596 1.363.861.91 1.292 2.18 1.292 3.812 0 1.631-.43 2.903-1.289 3.815-.859.911-2.059 1.367-3.6 1.367h-3.552V11.518zm1.292 1.162v8.032h2.174c1.158 0 2.057-.351 2.696-1.055.639-.703.958-1.687.958-2.95 0-1.268-.322-2.256-.965-2.964-.644-.709-1.54-1.063-2.689-1.063h-2.174zm13.378 9.331c-1.1 0-1.97-.357-2.61-1.073-.638-.715-.958-1.692-.958-2.932 0-1.244.32-2.223.959-2.935.638-.713 1.508-1.07 2.609-1.07 1.1 0 1.97.357 2.609 1.07.639.712.958 1.691.958 2.935 0 1.24-.32 2.217-.958 2.932-.639.716-1.509 1.073-2.61 1.073zm0-1.112c.732 0 1.297-.254 1.694-.761s.595-1.218.595-2.132c0-.919-.198-1.63-.595-2.135-.397-.505-.962-.757-1.694-.757s-1.297.252-1.694.757-.596 1.216-.596 2.135c0 .914.199 1.625.596 2.132.397.507.962.76 1.694.76zm15.926-6.762h-1.242l-1.521 6.188h-.115l-1.73-6.188h-1.184l-1.73 6.188h-.115l-1.522-6.188h-1.249l2.168 7.738h1.249l1.723-5.986h.114l1.73 5.986h1.256l.22-.782.541-1.935.646-2.304.542-1.934.219-.783zm2.626 7.738h1.234v-4.58c0-.679.185-1.212.553-1.6.369-.388.861-.581 1.479-.581.617 0 1.075.167 1.374.502.3.335.449.852.449 1.55v4.709h1.234v-5.01c0-.919-.233-1.626-.7-2.121-.466-.495-1.135-.743-2.006-.743-.593 0-1.08.12-1.46.359-.38.24-.669.572-.865.998h-.115v-1.22h-1.177v7.737zm9.624 0h1.235v-10.81h-1.235v10.81zm7.787.136c-1.1 0-1.97-.357-2.61-1.073-.638-.715-.958-1.692-.958-2.932 0-1.244.32-2.223.959-2.935.638-.713 1.508-1.07 2.609-1.07 1.1 0 1.97.357 2.609 1.07.639.712.958 1.691.958 2.935 0 1.24-.32 2.217-.958 2.932-.639.716-1.509 1.073-2.61 1.073zm0-1.112c.732 0 1.297-.254 1.694-.761s.595-1.218.595-2.132c0-.919-.198-1.63-.595-2.135-.397-.505-.962-.757-1.694-.757s-1.297.252-1.694.757-.596 1.216-.596 2.135c0 .914.199 1.625.596 2.132.397.507.962.76 1.694.76zm8.863.029c.637 0 1.164-.186 1.583-.557.419-.37.628-.831.628-1.381v-.711l-2.082.136c-1.129.077-1.694.498-1.694 1.264 0 .392.149.698.445.918.297.22.67.33 1.12.33zm-.23 1.083c-.75 0-1.374-.207-1.87-.62-.495-.414-.742-.975-.742-1.684 0-1.416.94-2.18 2.82-2.29l2.233-.136v-.703c0-.986-.584-1.479-1.752-1.479-.464 0-.849.084-1.155.251-.306.168-.503.405-.589.711h-1.249c.082-.622.402-1.12.962-1.497.56-.375 1.252-.563 2.075-.563.942 0 1.668.229 2.178.685.51.457.764 1.088.764 1.892v5.297h-1.177v-1.141h-.115a2.544 2.544 0 0 1-.99.947c-.412.22-.876.33-1.393.33zm9.797 0c-.99 0-1.78-.363-2.369-1.09-.588-.728-.883-1.7-.883-2.915s.297-2.187.89-2.914c.594-.727 1.38-1.091 2.362-1.091.54 0 1.025.12 1.453.359.429.24.753.572.973.998h.108v-4.293h1.234v10.81h-1.177V20.64h-.115c-.244.431-.584.767-1.019 1.009a2.952 2.952 0 0 1-1.457.362zm.287-6.897c-.703 0-1.256.257-1.658.771-.402.515-.603 1.222-.603 2.121 0 .905.2 1.613.6 2.125.399.512.953.768 1.661.768.703 0 1.258-.259 1.665-.775.407-.517.61-1.223.61-2.118 0-.885-.204-1.588-.613-2.11-.41-.522-.963-.782-1.662-.782zm15.157 6.897c-1.1 0-1.97-.357-2.609-1.073-.639-.715-.958-1.692-.958-2.932 0-1.244.32-2.223.958-2.935.639-.713 1.508-1.07 2.61-1.07 1.1 0 1.97.357 2.608 1.07.639.712.958 1.691.958 2.935 0 1.24-.319 2.217-.958 2.932-.639.716-1.508 1.073-2.609 1.073zm0-1.112c.732 0 1.297-.254 1.694-.761s.596-1.218.596-2.132c0-.919-.199-1.63-.596-2.135-.397-.505-.962-.757-1.694-.757s-1.297.252-1.694.757-.596 1.216-.596 2.135c0 .914.199 1.625.596 2.132.397.507.962.76 1.694.76zm6.48.976h1.235v-4.58c0-.679.184-1.212.553-1.6.368-.388.861-.581 1.478-.581.618 0 1.076.167 1.375.502.299.335.448.852.448 1.55v4.709h1.235v-5.01c0-.919-.233-1.626-.7-2.121-.466-.495-1.135-.743-2.006-.743-.593 0-1.08.12-1.46.359-.381.24-.67.572-.866.998h-.114v-1.22h-1.178v7.737z"/>
            <path fill-rule="nonzero" d="M15.682 48.494V14.51a3 3 0 0 1 1.679-2.697l19.573 19.683-19.581 19.692a3 3 0 0 1-1.67-2.694zm27.462-10.753L21.741 50.167l16.88-16.975 4.523 4.549zm6.653-8.621a3 3 0 0 1 1.171 2.382c0 .957-.445 1.808-1.139 2.357l-4.546 2.64-4.975-5.003 4.972-5 4.517 2.624zM21.754 12.838l21.387 12.417-4.52 4.545-16.867-16.962z"/>
        </g>
        <path fill="#4A4A4A" fill-rule="nonzero" d="M102.47 37.757c-3.096.014-5.595 2.527-5.586 5.616.01 3.089 2.525 5.586 5.622 5.581 3.096-.005 5.604-2.51 5.604-5.599a5.513 5.513 0 0 0-1.63-3.992 5.54 5.54 0 0 0-4.01-1.606zm0 8.997a3.409 3.409 0 0 1-3.312-1.925 3.392 3.392 0 0 1 .58-3.78 3.413 3.413 0 0 1 3.738-.85 3.399 3.399 0 0 1 2.164 3.156 3.236 3.236 0 0 1-.866 2.367 3.252 3.252 0 0 1-2.303 1.032zm-12.295-8.997c-3.098.007-5.604 2.517-5.599 5.607.005 3.09 2.519 5.593 5.617 5.59 3.098-.002 5.608-2.508 5.608-5.599a5.513 5.513 0 0 0-1.629-3.992 5.54 5.54 0 0 0-4.01-1.606h.013zm0 8.997a3.409 3.409 0 0 1-3.32-1.915 3.392 3.392 0 0 1 .57-3.784 3.413 3.413 0 0 1 3.739-.856 3.399 3.399 0 0 1 2.168 3.156 3.236 3.236 0 0 1-.866 2.367 3.252 3.252 0 0 1-2.304 1.032h.013zM75.53 39.482v2.372h5.705a4.96 4.96 0 0 1-1.32 2.99 5.845 5.845 0 0 1-4.399 1.74c-3.5 0-6.339-2.832-6.339-6.324 0-3.493 2.838-6.324 6.34-6.324a6.083 6.083 0 0 1 4.318 1.7l1.677-1.673a8.317 8.317 0 0 0-5.982-2.464 8.735 8.735 0 0 0-7.842 4.25 8.69 8.69 0 0 0 0 8.903 8.735 8.735 0 0 0 7.842 4.25 7.934 7.934 0 0 0 6.088-2.437 7.893 7.893 0 0 0 2.06-5.56c.004-.5-.04-.998-.132-1.488H75.53v.065zm59.837 1.845a5.281 5.281 0 0 0-4.807-3.57 5.289 5.289 0 0 0-3.857 1.658 5.262 5.262 0 0 0-1.425 3.94 5.473 5.473 0 0 0 1.594 3.981 5.5 5.5 0 0 0 3.979 1.618 5.59 5.59 0 0 0 4.675-2.476l-1.915-1.318a3.21 3.21 0 0 1-2.76 1.555 2.853 2.853 0 0 1-2.72-1.7l7.514-3.095-.278-.593zm-7.66 1.87a3.065 3.065 0 0 1 .779-2.248 3.08 3.08 0 0 1 2.154-1.019 2.18 2.18 0 0 1 2.086 1.186l-5.018 2.081zm-6.1 5.428h2.469V32.158h-2.47v16.467zm-4.042-9.617h-.092a3.966 3.966 0 0 0-2.958-1.317 5.618 5.618 0 0 0-5.354 5.605 5.618 5.618 0 0 0 5.354 5.606 3.834 3.834 0 0 0 2.958-1.318h.08v.91c0 2.147-1.15 3.293-2.999 3.293a3.103 3.103 0 0 1-2.826-1.99l-2.152.896A5.349 5.349 0 0 0 114.554 54c2.892 0 5.283-1.7 5.283-5.836V38.086h-2.272v.922zm-2.826 7.746a3.415 3.415 0 0 1-3.12-3.399 3.415 3.415 0 0 1 3.12-3.398c.853.043 1.653.429 2.217 1.069.565.64.846 1.48.781 2.33a3.13 3.13 0 0 1-.777 2.342 3.146 3.146 0 0 1-2.234 1.056h.013zm32.197-14.596h-5.903v16.467h2.47v-6.244h3.446a5.14 5.14 0 0 0 4.752-2.45c.999-1.64.996-3.699-.007-5.336a5.14 5.14 0 0 0-4.758-2.437zm0 7.904h-3.447V34.45h3.5a2.823 2.823 0 0 1 2.826 2.82 2.823 2.823 0 0 1-2.826 2.818l-.053-.026zm15.227-2.371a4.624 4.624 0 0 0-4.398 2.516l2.193.909a2.339 2.339 0 0 1 2.245-1.212c.633-.074 1.27.11 1.766.508.497.399.812.98.875 1.613v.171a5.465 5.465 0 0 0-2.575-.632c-2.364 0-4.755 1.317-4.755 3.702a3.804 3.804 0 0 0 1.28 2.674 3.823 3.823 0 0 0 2.814.948 3.476 3.476 0 0 0 3.17-1.58h.08v1.317h2.376v-6.337c0-2.885-2.192-4.558-5.005-4.558l-.066-.04zm-.304 9.024a1.716 1.716 0 0 1-1.928-1.397c0-1.317 1.4-1.752 2.641-1.752.785-.019 1.56.172 2.246.554a2.982 2.982 0 0 1-2.893 2.634l-.066-.04zm14.039-8.629l-2.827 7.14h-.079l-2.932-7.14h-2.64l4.397 9.986-2.51 5.546h2.576l6.762-15.532h-2.747zm-22.2 10.539h2.47V32.158h-2.47v16.467z"/>
    </g>
</svg>
