<?xml version="1.0" encoding="utf-8"?>
<!-- Generator: Adobe Illustrator 19.0.0, SVG Export Plug-In . SVG Version: 6.00 Build 0)  -->
<svg version="1.1" id="Rounded_Rectangle_1_copy_3__x2B__Layer_8__x2B__Layer_6__x2B__Ellipse_14_copy_xA0_Image_1_"
	 xmlns="http://www.w3.org/2000/svg" xmlns:xlink="http://www.w3.org/1999/xlink" x="0px" y="0px" viewBox="-210 292.3 173.9 257.6"
	 style="enable-background:new -210 292.3 173.9 257.6;" xml:space="preserve">
<style type="text/css">
	.st0{display:none;fill:#12B2CE;}
	.st1{display:none;fill:none;stroke:#000000;stroke-miterlimit:10;}
	.st2{display:none;fill:none;stroke:#FF0000;stroke-miterlimit:10;}
	.st3{fill:none;stroke:#616161;stroke-width:17;stroke-miterlimit:10;}
	.st4{fill:none;stroke:#616161;stroke-width:14;stroke-miterlimit:10;}
	.st5{fill:none;stroke:#616161;stroke-width:15;stroke-linecap:round;stroke-linejoin:round;stroke-miterlimit:10;}
	.st6{fill:none;stroke:#616161;stroke-width:13;stroke-miterlimit:10;}
	.st7{fill:none;stroke:#616161;stroke-width:13;stroke-linecap:round;stroke-linejoin:round;stroke-miterlimit:10;}
</style>
<path class="st0" d="M111.5,650.9h-284.6c-20.4,0-36.9-16.5-36.9-36.9V329.6c0-20.4,16.5-36.9,36.9-36.9h284.6
	c20.4,0,36.9,16.5,36.9,36.9V614C148.3,634.4,131.8,650.9,111.5,650.9z"/>
<path id="XMLID_122_" class="st1" d="M101.9,494"/>
<path id="XMLID_121_" class="st2" d="M113.6,516.4"/>
<g>
	<path class="st3" d="M-45.3,404.4V507c0,18.7-15.3,34-34,34H-167c-18.7,0-34-15.3-34-34V404.4"/>
	<path class="st3" d="M-201,404.4v-23.1c0-31.2,25.5-56.7,56.7-56.7h42.3c31.2,0,56.7,25.5,56.7,56.7v23.1"/>
	<path class="st4" d="M-46.8,401.6c0,12.5,0.8,25.2-2.1,37.4c-2.9,12.2-10,23-20,30.7"/>
	<path class="st4" d="M-199.5,401.6c0,12.5-0.8,25.2,2.1,37.4c2.9,12.2,10,23,20,30.7"/>
	<g id="LINE">
		<line class="st5" x1="-201" y1="410.1" x2="-201" y2="425.9"/>
	</g>
	<g id="ARC">
		<path class="st5" d="M-201,423.2c-0.4,16.2,6.4,31.7,18.5,42.3"/>
	</g>
	<g id="LINE_1_">
		<line class="st5" x1="-133.4" y1="505.4" x2="-182.5" y2="465.5"/>
	</g>
	<g id="LINE_3_">
		<line class="st5" x1="-112.9" y1="505.4" x2="-63.8" y2="465.5"/>
	</g>
	<g id="ARC_1_">
		<path class="st5" d="M-133.4,505.4c6,4.8,14.5,4.8,20.5,0"/>
	</g>
	<g id="LINE_4_">
		<line class="st5" x1="-45.3" y1="410.1" x2="-45.3" y2="425.9"/>
	</g>
	<g id="ARC_2_">
		<path class="st5" d="M-63.8,465.5c12.1-10.7,18.9-26.2,18.5-42.3"/>
	</g>
	<circle class="st6" cx="-123.2" cy="407.8" r="30"/>
	<path class="st7" d="M-157.4,326.1v-15.3c0-6.6,5.4-12,12-12h44.4c6.6,0,12,5.4,12,12v15.4"/>
</g>
<image style="display:none;overflow:visible;enable-background:new    ;" width="1496" height="1496" id="Rounded_Rectangle_1_copy_3__x2B__Layer_8__x2B__Layer_6__x2B__Ellipse_14_copy_xA0_Image_2_" xlink:href="C8D2206D.png"  transform="matrix(0.2395 0 0 0.2397 -210 292.735)">
</image>
</svg>
