<?xml version="1.0" encoding="utf-8"?>
<!-- Generator: Adobe Illustrator 21.0.0, SVG Export Plug-In . SVG Version: 6.00 Build 0)  -->
<svg version="1.1" id="Layer_1" xmlns="http://www.w3.org/2000/svg" xmlns:xlink="http://www.w3.org/1999/xlink" x="0px" y="0px"
	 viewBox="0 0 135 40" style="enable-background:new 0 0 135 40;" xml:space="preserve">
<style type="text/css">
	.st0{fill:#4A4A4A;}
</style>
<title>google-play-badge</title>
<desc>Created with Sketch.</desc>
<g id="Page-1">
	<g id="google-play-badge">
	</g>
</g>
<g id="layer102">
	<path class="st0" d="M106.9,31.4c-0.1,0-0.5-0.1-0.9-0.2c-1.3-0.3-2.7-1.1-3.6-2.2c-0.4-0.5-0.6-1-0.4-1c0,0,0.3,0.2,0.6,0.4
		c0.6,0.5,1.9,1.2,2.9,1.4c2.9,0.7,6.5,0,8.1-1.5c0.3-0.3,0.4-0.3,0.5-0.2c0.3,0.3-1,1.7-2.2,2.4c-1,0.6-2.1,0.9-3.5,0.9
		C107.7,31.4,107,31.4,106.9,31.4z"/>
	<path class="st0" d="M67.1,29.5c-0.2-0.1-0.6-0.3-0.8-0.5l-0.2-0.1c-0.1-0.1-0.3-0.1-0.4,0l-0.5,0.2c-0.7,0.4-0.7,0.4-2,0.3
		c-1.4-0.1-2.2-0.3-2.9-1c-0.8-0.8-0.9-1.1-0.8-6.5c0-3.9,0.1-4.8,0.2-5.1c0.3-0.6,1-0.8,1.6-0.3l0.2,0.2c0.1,0.1,0.1,0.2,0.1,0.3
		l0.1,4.3c0.1,4.1,0.1,4.6,0.3,4.9c0.3,0.5,0.8,0.7,1.6,0.7c0.9,0,1.3-0.2,1.9-1.1c1.1-1.6,1.9-2.2,2.9-2.2c1.5,0,2.4,1.1,2.4,3.1
		c0,0.9,0,1.1-0.3,1.6c-0.2,0.3-0.5,0.8-0.8,1c-0.4,0.3-0.6,0.4-1.3,0.4C67.8,29.7,67.4,29.6,67.1,29.5z M68.8,27.5
		c0.2-0.1,0.2-0.3,0.2-0.6c0-1.1-0.9-1.5-1.7-0.7c-0.2,0.2-0.4,0.5-0.4,0.6C67,27.4,68.3,27.9,68.8,27.5z"/>
	<path class="st0" d="M29.3,29.4c-1.9-0.2-3.2-0.6-3.9-1.2c-0.7-0.6-0.8-1-0.8-2.9V24c0-0.2,0.1-0.5,0.2-0.6v-0.1l0,0
		c0.5-0.4,1.2-0.5,1.7,0c0.4,0.3,0.4,0.3,0.4,1.7c0,2.1-0.4,1.9,5.6,1.9c4.5,0,5,0,5.3-0.2c0.6-0.3,0.8-0.6,0.8-1.6s0.2-1.4,0.8-1.6
		c0.5-0.2,0.9-0.1,1.2,0.3c0.2,0.2,0.2,0.5,0.3,1.5v1c0,0.1,0.1,0.3,0.2,0.3l0.2,0.1c0.3,0.2,0.7,0.2,2.4,0.2c2.3,0,2.7-0.1,3-0.4
		c0.5-0.5,0.4-0.7-1.8-2.9c-2.5-2.4-2.8-2.9-2.4-4c0.3-0.8,1.5-1.5,4.5-2.5c1.1-0.4,2.1-0.8,2.3-0.8c0.6-0.3,2.5-0.8,2.8-0.7
		c0.4,0.1,0.8,0.6,0.8,1.1s-0.4,0.8-1.1,1.1c-1.4,0.5-5,1.7-5.7,2.1c-0.5,0.2-0.9,0.4-0.9,0.5c-0.1,0.1,0.5,0.8,3,3.2
		c1.7,1.7,3.2,3.1,3.4,3.2s0.7,0.2,1.5,0.2c1.2,0,1.7-0.1,1.9-0.5c0-0.1,0.1-0.9,0.1-1.8c0-1.6,0-1.6,0.3-2c0.3-0.3,0.4-0.4,0.8-0.4
		c0.6,0,1,0.4,1.1,1.1c0.1,0.9,0,3.3-0.2,3.8c-0.3,0.6-1.1,1.5-1.7,1.8c-1.1,0.6-3.6,0.6-4.7,0.1c-0.4-0.2-0.8-0.5-1.3-1l-0.3-0.3
		c-0.2-0.2-0.5-0.2-0.6,0.1V28c-0.3,0.6-1,1.2-1.9,1.4c-0.3,0.1-1.4,0.1-2.9,0.1c-2.3,0-2.5-0.1-3-0.3c-0.3-0.2-0.7-0.4-0.8-0.6l0,0
		c-0.1-0.2-0.4-0.2-0.6-0.1l0,0c-0.5,0.4-1.7,0.7-3.1,0.9C35,29.4,30.3,29.5,29.3,29.4z"/>
	<path class="st0" d="M95.4,27.2c-0.5-0.2-1-0.8-1.1-1.4c-0.2-0.6-0.2-8.8,0-10.1c0.3-2.8,1.9-5.1,4.3-6.3c2-1,3.9-1.1,6-0.5
		c1,0.3,2.4,1.2,3.1,1.9l0.4,0.4l0.7-0.6c0.8-0.8,1.9-1.4,3.1-1.7c1.3-0.4,3.2-0.4,4.5,0c2.7,0.9,4.6,3,5.3,5.7
		c0.2,0.8,0.2,1.3,0.2,6.1c0,5.7,0,5.7-0.8,6.3c-0.9,0.7-2.3,0.4-2.8-0.6c-0.2-0.4-0.2-0.7-0.3-5.6l-0.1-5.1l-0.4-0.8
		c-0.4-0.9-1-1.5-1.9-1.9c-0.8-0.4-2.3-0.4-3.1,0c-0.8,0.4-1.6,1.1-2,1.9l-0.3,0.7l-0.1,4.5c-0.1,4.9-0.1,4.8-0.7,5.4
		c-1,0.8-2.5,0.6-3.1-0.6c-0.2-0.3-0.2-0.9-0.3-4.9c-0.1-4.5-0.1-4.6-0.3-5.1c-0.9-1.8-3-2.7-4.9-2c-0.9,0.3-1.8,1.1-2.2,2l-0.3,0.6
		l-0.1,5.2c0,4.5-0.1,5.3-0.3,5.6C97.4,27.2,96.4,27.6,95.4,27.2z"/>
	<circle class="st0" cx="31.6" cy="23.4" r="1.1"/>
	<circle class="st0" cx="34" cy="23.4" r="1.1"/>
	<circle class="st0" cx="51.9" cy="31.8" r="1.1"/>
	<circle class="st0" cx="54.2" cy="31.8" r="1.1"/>
	<path class="st0" d="M23.8,23.7"/>
</g>
<path class="st0" d="M50,7.9l-0.6-0.6L50,6.7l0.6,0.6L50,7.9z"/>
<path class="st0" d="M57,7.5L56.5,8L56,7.5L56.5,7L57,7.5L57.5,7L58,7.5L57.5,8L57,7.5z"/>
<path class="st0" d="M60.3,6.7l-0.6-0.6l0.6-0.6l0.6,0.6L60.3,6.7z"/>
<path class="st0" d="M65.4,11.2l-0.5,0.5l-0.5-0.5l0.5-0.5L65.4,11.2l0.5-0.5l0.5,0.5L66,11.7L65.4,11.2z"/>
<path class="st0" d="M48.5,12.1c-0.2-0.3-0.2-0.3,0-0.4c0.1-0.1,0.5-0.4,0.8-0.7c0.6-0.6,0.7-1,0.4-1.8c-0.1-0.2-0.2-0.4-0.2-0.5
	s0.8-0.3,0.8-0.3s0.1,0.4,0.2,0.8c0.2,0.9,0.1,1.4-0.4,2.1c-0.3,0.4-1.2,1.1-1.4,1.1C48.8,12.4,48.6,12.2,48.5,12.1z"/>
<path class="st0" d="M66.6,12.1c-0.2-0.3-0.2-0.3,0.1-0.5c0.6-0.4,1.1-0.9,1.2-1.2s0.1-0.5-0.1-1c-0.1-0.3-0.2-0.6-0.2-0.6
	c0.1-0.1,0.6-0.3,0.7-0.3s0.4,1.1,0.4,1.7c0,0.6-0.5,1.4-1.2,1.9c-0.3,0.2-0.6,0.4-0.6,0.4C66.9,12.4,66.7,12.2,66.6,12.1z"/>
<path class="st0" d="M63.9,10.3c-0.7-0.3-0.7-0.5-0.8-2.5V6.1L63.5,6c0.2-0.1,0.4-0.1,0.4,0c0,0,0.1,0.8,0.1,1.8l0.1,1.7h0.7
	c0.4,0,0.7,0,0.9-0.1c0.2-0.2,0.2-0.2,0-0.7C65.5,8.3,65.4,8,65.4,8s0.2-0.1,0.4-0.2l0.3-0.2L66.3,8c0.4,1,0.3,1.8-0.2,2.1
	C65.6,10.4,64.4,10.5,63.9,10.3z"/>
<path class="st0" d="M70,10.4c-0.3-0.1-1.1-0.4-1.1-0.5c0,0,0.1-0.2,0.2-0.4l0.2-0.4l0.5,0.2c0.3,0.1,0.7,0.2,0.9,0.1
	c0.7-0.1,0.6-0.4-0.2-1.2c-0.7-0.7-0.7-0.7-0.5-1C70,7.1,70.1,7,70.2,7c0.2,0,1.2,1.1,1.4,1.5c0.3,0.6,0.2,1.1-0.1,1.5
	C71.1,10.3,70.5,10.5,70,10.4z"/>
<path class="st0" d="M51.2,8.3c0-1.1,0-2.1,0-2.2c0,0,0.2-0.1,0.4-0.2c0.3-0.1,0.3-0.1,0.4,0.6c0,0.4,0.1,1.4,0,2.2v1.6h-0.4h-0.4
	V8.3z"/>
<path class="st0" d="M55.3,10.2c-1-0.4-1.3-1-1-1.9c0.2-0.5,0.2-0.5,0.5-0.3c0.1,0,0.2,0.1,0.1,0.5c0,0.2,0,0.5,0,0.6
	C55,9.3,56,9.5,57,9.5c1.1-0.1,1.5-0.3,1.8-0.9c0.1-0.4,0.2-0.4,0.4-0.4c0.1,0,0.3,0.1,0.4,0.1c0,0,0,0.2,0,0.5
	c-0.1,0.6,0.1,0.7,1.1,0.7c0.8,0,1.4-0.2,0.7-0.2c-0.5,0-1.1-0.4-1.1-0.8c0-0.4,0.2-0.9,0.5-1.2c0.7-0.8,1.9,0.3,1.9,1.7
	c0,0.5-0.5,1.1-1,1.3c-0.2,0.1-0.8,0.1-1.3,0.1c-0.7,0-0.9,0-1.2-0.3l-0.3-0.3l-0.6,0.3c-0.5,0.2-0.7,0.3-1.6,0.3
	C56.1,10.3,55.5,10.3,55.3,10.2z M61.9,8.4c0-0.1-0.1-0.2-0.2-0.4c-0.2-0.3-0.3-0.3-0.4-0.1c-0.3,0.3-0.1,0.6,0.3,0.6
	C61.7,8.5,61.9,8.5,61.9,8.4z"/>
</svg>
