<?xml version="1.0" encoding="utf-8"?>
<!-- Generator: Adobe Illustrator 21.0.1, SVG Export Plug-In . SVG Version: 6.00 Build 0)  -->
<svg version="1.1" id="Layer_1" xmlns="http://www.w3.org/2000/svg" xmlns:xlink="http://www.w3.org/1999/xlink" x="0px" y="0px"
	 viewBox="0 0 135 40" style="enable-background:new 0 0 135 40;" xml:space="preserve">
<style type="text/css">
	.st0{fill:#7B7B7B;stroke:#7B7B7B;stroke-miterlimit:10;}
	.st1{fill:none;stroke:#7B7B7B;stroke-width:4;stroke-linecap:round;stroke-miterlimit:10;}
	.st2{fill:#7B7B7B;}
</style>
<title>google-play-badge</title>
<desc>Created with Sketch.</desc>
<g id="Page-1">
	<g id="google-play-badge">
		<g id="artwork">
			<g id="Group">
				<path id="Shape_1_" class="st0" d="M129.3,1.9c2.3,0,4.2,1.8,4.2,3.9V34c0,2.2-1.9,3.9-4.2,3.9H5.8c-2.3,0-4.2-1.8-4.2-3.9V5.8
					c0-2.2,1.9-3.9,4.2-3.9H129.3L129.3,1.9z M129.3,1.1H5.8C3,1.1,0.9,3.2,0.9,5.8V34c0,2.6,2.2,4.7,4.9,4.7h123.5
					c2.8,0,4.9-2.1,4.9-4.7V5.8C134.2,3.3,132,1.1,129.3,1.1L129.3,1.1L129.3,1.1z"/>
			</g>
		</g>
	</g>
</g>
<path class="st1" d="M92.6,26v-9.8c0-0.2,0-0.4,0-0.7c0-0.5,0.1-2.7,1.5-4.3c1.8-2.2,4.7-2.2,5.1-2.2"/>
<path class="st1" d="M119.1,26v-9.8c0-0.2,0-0.4,0-0.7c0-0.5-0.1-2.7-1.5-4.3c-1.8-2.2-4.6-2.2-5-2.2"/>
<path class="st1" d="M105.4,24l0-7.9c0-0.2,0-0.4,0-0.7c0-0.5-0.1-2.7-1.4-4.3c-1.7-2.2-4.5-2.2-4.8-2.2"/>
<path class="st1" d="M105.4,24l0-7.9c0-0.2,0-0.4,0-0.7c0-0.5,0.1-2.7,1.6-4.3c2-2.2,5.1-2.2,5.6-2.2"/>
<path class="st2" d="M99.4,29.1c0.2,0.4,0.7,0.8,0.7,0.8c1,0.8,1.4,1.2,1.7,1.4c1.1,0.7,2.2,0.9,2.4,1c0.7,0.1,1.1,0.2,1.9,0.2
	c0.5,0,1.2,0,2.1-0.1c0.4-0.1,0.8-0.1,1.4-0.3c0.9-0.3,1.5-0.8,1.9-1.1c0,0,0.5-0.4,1.2-1.1c0.1-0.1,0.4-0.4,0.4-0.5
	c0,0,0,0,0.1-0.1c0.1-0.1,0.1-0.1,0.1-0.2c0,0,0-0.1,0-0.1c0-0.1,0.1-0.2,0-0.3c0-0.1,0-0.1-0.1-0.1c0,0-0.1,0-0.2,0
	c-0.2,0.1-0.5,0.4-0.6,0.5c-0.1,0.1-0.2,0.2-0.6,0.4c-0.4,0.3-1.3,0.8-2.5,1.2c-1,0.3-1.8,0.3-2.3,0.4c-1.4,0.1-2.4-0.1-2.9-0.2
	c-0.6-0.1-1.3-0.2-2.1-0.6c-0.2-0.1-0.7-0.3-1.2-0.7c-0.3-0.2-0.5-0.4-0.6-0.5c0,0-0.2-0.2-0.4-0.4c0,0-0.1,0-0.2-0.1
	c0,0-0.1,0-0.1,0c-0.1,0-0.1,0-0.2,0.1c0,0,0,0.1,0,0.1c0,0,0,0,0,0.1c0,0.1,0,0.1,0,0.1c0,0,0,0.1,0,0.1
	C99.3,28.9,99.3,29,99.4,29.1z"/>
<g>
	<path class="st2" d="M48.4,9.2c0,0.1,0.1,0.3,0.1,0.4c0,0.1,0.1,0.3,0.1,0.4c0,0.1,0,0.3,0,0.4c0,0.2,0,0.3-0.1,0.5
		c0,0.2-0.1,0.3-0.2,0.5c-0.1,0.2-0.2,0.3-0.3,0.5c-0.1,0.1-0.3,0.3-0.4,0.4c-0.1,0.1-0.3,0.2-0.5,0.4s-0.3,0.2-0.5,0.3l-0.5-0.7
		c0.1-0.1,0.3-0.1,0.4-0.2c0.1-0.1,0.3-0.2,0.4-0.3c0.1-0.1,0.2-0.2,0.4-0.3s0.2-0.2,0.3-0.3c0.1-0.1,0.1-0.2,0.2-0.3
		c0-0.1,0.1-0.2,0.1-0.3c0-0.1,0-0.2,0-0.3c0-0.1-0.1-0.2-0.1-0.3c0-0.1-0.1-0.2-0.1-0.3c0-0.1-0.1-0.2-0.2-0.4l0.8-0.4
		C48.3,9,48.4,9.1,48.4,9.2z M47.8,8.3l-0.6-0.6l0.6-0.6l0.6,0.6L47.8,8.3z"/>
	<path class="st2" d="M49.3,10.4c0-0.2,0-0.3,0-0.5s0-0.3,0-0.5s0-0.3,0-0.4c0-0.3,0-0.5,0-0.7s0-0.4,0-0.5c0-0.2,0-0.3,0-0.4
		c0-0.1,0-0.2,0-0.3s0-0.2,0-0.3c0-0.1,0-0.2,0-0.3L50,6.3C50,6.5,50,6.8,50.1,7c0,0.3,0,0.5,0.1,0.7c0,0.2,0,0.4,0,0.6
		c0,0.2,0,0.4,0,0.5c0,0.1,0,0.3,0,0.4c0,0.1,0,0.3,0,0.5s0,0.3,0,0.5c0,0.2,0,0.3,0,0.5l-0.9,0.1C49.2,10.8,49.3,10.6,49.3,10.4z"
		/>
	<path class="st2" d="M58.3,10.9c-0.1,0-0.2-0.1-0.3-0.1c-0.1-0.1-0.2-0.1-0.3-0.2c-0.1-0.1-0.2-0.2-0.2-0.3c-0.3,0.2-0.6,0.4-1,0.5
		c-0.4,0.1-0.8,0.2-1.3,0.2c-0.7,0-1.2-0.1-1.6-0.2c-0.4-0.1-0.7-0.4-0.9-0.7c-0.1-0.1-0.1-0.2-0.1-0.3c0-0.1,0-0.3,0-0.4
		c0-0.2,0-0.3,0.1-0.5c0-0.2,0.1-0.3,0.2-0.5l0.7,0.4c0,0.1-0.1,0.2-0.1,0.2S53.3,9,53.3,9.1c0,0.1,0,0.2,0,0.2c0,0.1,0,0.2,0.1,0.2
		c0.1,0.1,0.1,0.2,0.3,0.2c0.1,0.1,0.3,0.1,0.4,0.1c0.2,0,0.4,0,0.6,0.1c0.2,0,0.4,0,0.6,0c0.2,0,0.4,0,0.6,0c0.2,0,0.3,0,0.5-0.1
		s0.3-0.1,0.4-0.1c0.1,0,0.2-0.1,0.3-0.2c0.1-0.1,0.1-0.1,0.2-0.2s0.1-0.2,0.1-0.2s0.1-0.2,0.1-0.3c0-0.1,0-0.2,0.1-0.3l0.8,0.2
		l-0.1,0.6c0,0.1,0,0.2,0,0.2s0.1,0.1,0.1,0.2c0.1,0.1,0.1,0.1,0.2,0.1c0.1,0,0.2,0,0.3,0h0.1v0.9h-0.1
		C58.6,10.9,58.4,10.9,58.3,10.9z M55.4,7.9l-0.5,0.5l-0.5-0.5l0.5-0.5L55.4,7.9l0.5-0.5l0.5,0.5l-0.5,0.5L55.4,7.9z"/>
	<path class="st2" d="M58.8,10c0.1,0,0.2,0,0.3,0s0.2,0,0.3,0c0.1,0,0.2,0,0.3,0c0.1,0,0.2,0,0.3,0c0.1,0,0.2,0,0.3-0.1
		c0.1,0,0.2-0.1,0.2-0.1c-0.2,0-0.5,0-0.7,0s-0.4-0.1-0.5-0.1c-0.1-0.1-0.3-0.2-0.3-0.3c-0.1-0.1-0.1-0.3-0.1-0.5c0-0.1,0-0.2,0-0.3
		S59,8.3,59,8.2c0-0.1,0.1-0.2,0.2-0.3c0.1-0.1,0.1-0.2,0.2-0.2c0.1-0.1,0.2-0.1,0.3-0.2s0.2-0.1,0.3-0.1c0.1,0,0.3,0,0.4,0.1
		c0.1,0.1,0.2,0.1,0.3,0.2c0.1,0.1,0.2,0.2,0.3,0.3c0.1,0.1,0.1,0.3,0.2,0.4c0,0.1,0.1,0.3,0.1,0.4c0,0.1,0,0.3,0,0.4
		c0,0.2,0,0.4-0.1,0.6c-0.1,0.2-0.1,0.3-0.3,0.4s-0.2,0.2-0.4,0.3s-0.3,0.1-0.5,0.2s-0.4,0.1-0.6,0.1c-0.2,0-0.4,0-0.6,0h-0.1
		L58.8,10L58.8,10z M60,7.1l-0.6-0.6L60,5.9l0.6,0.6L60,7.1z M60,8.3c0,0-0.1,0-0.1,0c0,0-0.1,0.1-0.1,0.1c0,0-0.1,0.1-0.1,0.2
		c0,0.1,0,0.1,0,0.2c0,0.1,0,0.1,0.1,0.1c0,0,0.1,0.1,0.1,0.1s0.1,0,0.2,0c0.1,0,0.1,0,0.2,0c0.1,0,0.1,0,0.2,0c0.1,0,0.1,0,0.1,0
		c0-0.1,0-0.2-0.1-0.3c0-0.1-0.1-0.2-0.1-0.2s-0.1-0.1-0.1-0.2C60.1,8.3,60,8.3,60,8.3z"/>
	<path class="st2" d="M63.1,10.9c-0.2,0-0.4,0-0.6-0.1s-0.3-0.1-0.4-0.3c-0.1-0.1-0.2-0.2-0.2-0.4c0-0.2-0.1-0.3-0.1-0.5
		c0-0.1,0-0.2,0-0.3c0-0.1,0-0.3,0-0.5s0-0.4,0-0.6c0-0.2,0-0.4,0-0.6c0-0.2,0-0.4,0-0.6c0-0.2,0-0.4-0.1-0.5l0.8-0.3
		c0,0.1,0,0.3,0.1,0.4c0,0.2,0,0.3,0,0.5s0,0.4,0,0.6c0,0.2,0,0.4,0,0.5c0,0.1,0,0.3,0,0.4s0,0.3,0,0.4c0,0.1,0,0.3,0,0.4
		c0,0.1,0,0.2,0.1,0.3c0,0,0,0.1,0.1,0.1c0,0,0.1,0,0.1,0.1s0.1,0,0.1,0s0.1,0,0.1,0h0.1L63.1,10.9L63.1,10.9z"/>
	<path class="st2" d="M63.1,10h0.7c0.1,0,0.2,0,0.3,0c0.1,0,0.2,0,0.3-0.1c0.1,0,0.2-0.1,0.2-0.1c0.1-0.1,0.1-0.1,0.1-0.2
		c0,0,0-0.1,0-0.2c0-0.1-0.1-0.2-0.1-0.3s-0.1-0.2-0.1-0.3c-0.1-0.1-0.1-0.2-0.2-0.3L65,8.1c0.1,0.1,0.1,0.2,0.2,0.4
		s0.1,0.3,0.1,0.4c0,0.1,0.1,0.3,0.1,0.4c0,0.1,0,0.3,0,0.4c0,0.2,0,0.4-0.1,0.6s-0.2,0.3-0.3,0.4c-0.1,0.1-0.3,0.2-0.5,0.2
		c-0.2,0-0.4,0.1-0.6,0.1h-0.7V10z M64.2,11.7l-0.5,0.5l-0.5-0.5l0.5-0.5L64.2,11.7l0.5-0.5l0.5,0.5l-0.5,0.5L64.2,11.7z"/>
	<path class="st2" d="M67.2,9.2c0,0.1,0.1,0.3,0.1,0.4c0,0.1,0.1,0.3,0.1,0.4c0,0.1,0,0.3,0,0.4c0,0.2,0,0.3-0.1,0.5
		c0,0.2-0.1,0.3-0.2,0.5c-0.1,0.2-0.2,0.3-0.3,0.5c-0.1,0.1-0.3,0.3-0.4,0.4s-0.3,0.2-0.5,0.4c-0.2,0.1-0.3,0.2-0.5,0.3L65,12.3
		c0.1-0.1,0.3-0.1,0.4-0.2c0.1-0.1,0.3-0.2,0.4-0.3s0.2-0.2,0.4-0.3s0.2-0.2,0.3-0.3c0.1-0.1,0.1-0.2,0.2-0.3c0-0.1,0.1-0.2,0.1-0.3
		c0-0.1,0-0.2,0-0.3c0-0.1-0.1-0.2-0.1-0.3c0-0.1-0.1-0.2-0.1-0.3s-0.1-0.2-0.2-0.4l0.8-0.4C67.1,9,67.2,9.1,67.2,9.2z"/>
	<path class="st2" d="M68.3,9.7c0.1,0.1,0.2,0.1,0.3,0.1S68.9,10,69,10c0.1,0,0.2,0,0.3,0c0,0,0.1,0,0.2,0c0.1,0,0.2,0,0.2,0
		s0.1-0.1,0.2-0.1c0.1,0,0.1-0.1,0.1-0.2c0-0.1,0-0.2-0.1-0.2c0-0.1-0.1-0.2-0.2-0.3c-0.1-0.1-0.2-0.2-0.3-0.3
		c-0.1-0.1-0.2-0.2-0.3-0.3c-0.1-0.1-0.2-0.2-0.3-0.3c-0.1-0.1-0.2-0.2-0.3-0.2l0.5-0.7c0.2,0.1,0.4,0.3,0.5,0.4
		C69.7,8,69.8,8.1,70,8.3c0.2,0.2,0.3,0.4,0.4,0.5c0.1,0.2,0.2,0.4,0.2,0.6c0,0.1,0,0.1,0,0.2c0,0.1,0,0.1,0,0.2
		c0,0.2,0,0.3-0.1,0.5c-0.1,0.1-0.2,0.3-0.3,0.4c-0.1,0.1-0.3,0.2-0.4,0.2c-0.2,0.1-0.4,0.1-0.6,0.1c0,0,0,0,0,0c0,0,0,0,0,0
		c-0.1,0-0.3,0-0.4,0c-0.1,0-0.3-0.1-0.4-0.1c-0.1,0-0.3-0.1-0.4-0.2c-0.1-0.1-0.2-0.1-0.3-0.2L68,9.6C68.1,9.6,68.2,9.7,68.3,9.7z"
		/>
</g>
<line class="st0" x1="80.4" y1="3.8" x2="80.4" y2="35.5"/>
<image style="overflow:visible;" width="389" height="147" xlink:href="Layer 1.png"  transform="matrix(0.1301 0 0 0.1301 20.5211 15.0812)">
</image>
</svg>
