<?xml version="1.0" encoding="utf-8"?>
<!-- Generator: Adobe Illustrator 19.0.0, SVG Export Plug-In . SVG Version: 6.00 Build 0)  -->
<svg version="1.1" id="Layer_1" xmlns="http://www.w3.org/2000/svg" xmlns:xlink="http://www.w3.org/1999/xlink" x="0px" y="0px"
	 viewBox="0 0 94.5 94.5" style="enable-background:new 0 0 94.5 94.5;" xml:space="preserve">
<style type="text/css">
	.st0{fill:#414042;}
</style>
<g id="XMLID_3_">
	<path id="XMLID_6_" class="st0" d="M61,55.6c2.7,0,4.8,2.2,4.8,4.8s-2.2,4.8-4.8,4.8c-2.7,0-4.8-2.2-4.8-4.8
		C56.1,57.9,58.2,55.6,61,55.6z M33.1,55.6c2.7,0,4.8,2.2,4.8,4.8s-2.2,4.8-4.8,4.8c-2.7,0-4.8-2.2-4.8-4.8
		C28.1,57.9,30.4,55.6,33.1,55.6z M33.7,21.1h13.4l0,0h13.4c3.7,0,5.6,2.6,5.6,5.6v7.1c0,3.4-2.6,5.6-5.6,5.6H47.1l0,0l0,0H33.7
		c-3.1,0-5.6-2.2-5.6-5.6v-7.1C28.1,23.7,30,21.1,33.7,21.1z M41.6,12.2H47l0,0l0,0h5.4c1,0,1.8,0.8,1.8,1.8v3.2
		c0,1-0.8,1.8-1.8,1.8H47l0,0l0,0h-5.4c-1,0-1.8-0.9-1.8-1.8V14C39.9,13,40.6,12.2,41.6,12.2z M47.1,9.9H33.3
		c-6.5,0-11.2,5.2-11.2,10.8v39.9c0,5.5,4.3,10,8.5,10.6L17.8,90.5h7.4L34.4,77H47l0,0l0,0h12.6l9.2,13.5h7.4L63.5,71.3
		C67.8,70.6,72,66,72,60.7V20.7c0-5.6-4.7-10.8-11.2-10.8H47.1z"/>
	<circle id="XMLID_5_" class="st0" cx="42.9" cy="5.6" r="3.1"/>
	<circle id="XMLID_4_" class="st0" cx="51.2" cy="5.6" r="3.1"/>
</g>
</svg>
