<?xml version="1.0" encoding="utf-8"?>
<!-- Generator: Adobe Illustrator 19.0.0, SVG Export Plug-In . SVG Version: 6.00 Build 0)  -->
<svg version="1.1" id="icons" xmlns="http://www.w3.org/2000/svg" xmlns:xlink="http://www.w3.org/1999/xlink" x="0px" y="0px"
	 viewBox="-278 407.9 38 26" style="enable-background:new -278 407.9 38 26;" xml:space="preserve">
<style type="text/css">
	.st0{fill:#42B0C6;}
</style>
<title></title>
<g id="Icon">
	<path class="st0" d="M-242,411.9h-34c-1.1,0-2-0.9-2-2c0-1.1,0.9-2,2-2h34c1.1,0,2,0.9,2,2C-240,411-240.9,411.9-242,411.9z"/>
	<path class="st0" d="M-242,422.9h-34c-1.1,0-2-0.9-2-2c0-1.1,0.9-2,2-2h34c1.1,0,2,0.9,2,2C-240,422-240.9,422.9-242,422.9z"/>
	<path class="st0" d="M-242,433.9h-34c-1.1,0-2-0.9-2-2c0-1.1,0.9-2,2-2h34c1.1,0,2,0.9,2,2C-240,433-240.9,433.9-242,433.9z"/>
</g>
</svg>
