<?xml version="1.0" encoding="utf-8"?>
<!-- Generator: Adobe Illustrator 19.0.0, SVG Export Plug-In . SVG Version: 6.00 Build 0)  -->
<svg version="1.1" id="Layer_1" xmlns="http://www.w3.org/2000/svg" xmlns:xlink="http://www.w3.org/1999/xlink" x="0px" y="0px"
	 viewBox="-230 400.9 135 40" style="enable-background:new -230 400.9 135 40;" xml:space="preserve">
<style type="text/css">
	.st0{fill:#7B7B7B;stroke:#7B7B7B;stroke-miterlimit:10;}
	.st1{fill:#7B7B7B;}
</style>
<title>google-play-badge</title>
<desc>Created with Sketch.</desc>
<g id="Page-1">
	<g id="google-play-badge">
		<g id="artwork">
			<g id="Group">
				<path id="Shape_1_" class="st0" d="M-100.7,402.8c2.3,0,4.2,1.8,4.2,3.9v28.2c0,2.2-1.9,3.9-4.2,3.9h-123.5
					c-2.3,0-4.2-1.8-4.2-3.9v-28.2c0-2.2,1.9-3.9,4.2-3.9H-100.7L-100.7,402.8z M-100.7,402h-123.5c-2.8,0-4.9,2.1-4.9,4.7v28.2
					c0,2.6,2.2,4.7,4.9,4.7h123.5c2.8,0,4.9-2.1,4.9-4.7v-28.2C-95.8,404.2-98,402-100.7,402L-100.7,402L-100.7,402z"/>
				<path id="Shape_2_" class="st1" d="M-198.4,418.5v-2.4v-2.4c0-0.5,0.2-1,0.5-1.4c0.4-0.4,0.8-0.6,1.3-0.6c0.5,0,0.9,0.2,1.3,0.5
					c0.4,0.4,0.6,0.8,0.6,1.3v0.2v0.1v4.2v4.3c0,0.3,0.1,0.5,0.2,0.6c0.1,0.1,0.3,0.2,0.6,0.2h1.5h1.4c0.6,0,1,0.2,1.4,0.6
					c0.4,0.4,0.5,0.8,0.5,1.4c0,0.5-0.2,0.9-0.5,1.3c-0.3,0.4-0.8,0.5-1.2,0.5c-0.7,0-1.4,0-2.1,0c-0.7,0-1.4,0-2,0
					c-0.9,0-1.6-0.4-2.3-1c-0.7-0.6-1.1-1.4-1.2-2.3c0-0.1,0-0.2,0-0.3s0-0.2,0-0.3v-2.3V418.5L-198.4,418.5L-198.4,418.5
					L-198.4,418.5L-198.4,418.5z M-200.3,422.4v1.4v1.4c0,1.1-0.4,2-1.1,2.8c-0.7,0.7-1.6,1.1-2.7,1.1h-1.9h-1.9
					c-0.4,0-0.8-0.2-1.1-0.5c-0.3-0.3-0.5-0.6-0.6-1.1c-0.1-0.4,0-0.9,0.2-1.2c0.2-0.4,0.5-0.7,0.9-0.8c0.1-0.1,0.3-0.1,0.4-0.1
					c0.1,0,0.3,0,0.4,0c0.5,0,1,0,1.4,0h1.4c0.3,0,0.5-0.1,0.7-0.2c0.1-0.1,0.2-0.3,0.2-0.7v-2.4v-2.4c0-0.5,0.1-0.9,0.4-1.2
					s0.6-0.6,1-0.7c0.6-0.1,1.1,0,1.6,0.3c0.5,0.4,0.7,0.9,0.7,1.5v1.5L-200.3,422.4L-200.3,422.4L-200.3,422.4L-200.3,422.4
					L-200.3,422.4L-200.3,422.4z M-205.9,416.6v2.4c0,0,0,0.8,0,2.4c0,0.7-0.3,1.3-0.9,1.6c-0.6,0.4-1.2,0.4-1.8,0.1
					c-0.3-0.2-0.5-0.4-0.7-0.7c-0.2-0.3-0.3-0.6-0.3-0.9v-0.3v-0.2v-4.5v-4.5c0-0.4,0.1-0.8,0.4-1.2s0.6-0.6,1-0.7
					c0.6-0.2,1.1-0.1,1.6,0.3s0.8,0.9,0.8,1.5v2.4L-205.9,416.6L-205.9,416.6L-205.9,416.6L-205.9,416.6L-205.9,416.6z
					 M-200.3,413.7c0,0.5-0.2,1-0.5,1.3c-0.4,0.4-0.8,0.6-1.3,0.6c-0.5,0-1-0.2-1.3-0.6c-0.4-0.4-0.5-0.8-0.5-1.4
					c0-0.5,0.2-1,0.5-1.3c0.4-0.4,0.8-0.6,1.3-0.6c0.5,0,1,0.2,1.3,0.6C-200.5,412.7-200.3,413.2-200.3,413.7L-200.3,413.7
					L-200.3,413.7L-200.3,413.7L-200.3,413.7z M-196.5,429c0,0.5-0.2,1-0.5,1.4c-0.4,0.4-0.8,0.6-1.3,0.6c-0.5,0-1-0.2-1.3-0.6
					c-0.4-0.4-0.5-0.8-0.5-1.4c0-0.5,0.2-0.9,0.5-1.3c0.4-0.4,0.8-0.6,1.3-0.6s1,0.2,1.3,0.5C-196.7,428-196.5,428.5-196.5,429
					L-196.5,429L-196.5,429L-196.5,429L-196.5,429z M-211.6,415.5c0-0.6-0.3-1-0.8-1.4c-0.5-0.4-1-0.5-1.5-0.3
					c-0.4,0.1-0.8,0.3-1,0.7c-0.3,0.3-0.4,0.7-0.4,1.2c0,0.8,0,1.6,0,2.4c0,0.8,0,1.6,0,2.5c0,0.3-0.1,0.4-0.2,0.6
					c-0.1,0.1-0.3,0.2-0.6,0.2h-1.5h-1.5c-0.1,0-0.1,0-0.2,0c-0.1,0-0.1,0-0.2,0c-0.5,0.1-0.8,0.3-1.1,0.6c-0.3,0.3-0.4,0.8-0.4,1.2
					c0,0.4,0.1,0.7,0.3,1c0.2,0.3,0.4,0.5,0.7,0.7h0c0,0,0,0,0.1,0c0,0,0,0,0.1,0l0.1,0.1c0.1,0,0.2,0.1,0.4,0.1c0.1,0,0.3,0,0.4,0
					c0.2,0,0.5,0,0.7,0h0.7c0.5,0,0.9,0,1.4,0c0.5,0,0.9,0,1.4-0.1c0.9-0.1,1.7-0.4,2.3-1.1c0.6-0.7,1-1.5,1-2.4v-3L-211.6,415.5
					L-211.6,415.5L-211.6,415.5L-211.6,415.5L-211.6,415.5z"/>
				<g id="cafebazaar" transform="translate(101.000000, 7.000000)">
					<path id="Shape_3_" class="st1" d="M-213.9,407.5c0.5,1,0.8,2,1.2,2.8c0.8,0.1,1.2,0.1,1.3,0.1c0.5,0,1,0.1,1.5,0.2
						c0.6,0.1,1.3,0.2,2,0.2c1,0.1,1.7-0.1,2-0.6c0,0,0,0,0-0.1C-206.4,409.4-207.8,407.9-213.9,407.5L-213.9,407.5L-213.9,407.5z
						 M-217.7,401.4c-1.8,0-3.6,2.8-4.6,5.3c0.4,0,0.8-0.1,1.3-0.1c1-1.9,2.1-3.6,3.4-3.6c1.2,0,2.4,1.6,3.4,3.6
						c0.4,0,0.9,0.1,1.3,0.1C-214.1,404.2-215.9,401.4-217.7,401.4L-217.7,401.4z M-229,410.2C-229.1,410.2-229.1,410.2-229,410.2
						c0.3,0.5,0.9,0.7,1.9,0.6c0.7,0,1.3-0.1,2-0.2c0.5-0.1,1-0.1,1.5-0.2c0,0,0.5-0.1,1.1-0.1c0.3-0.9,0.7-1.9,1.1-2.8
						C-227.4,408-228.7,409.5-229,410.2L-229,410.2L-229,410.2z M-214.9,406.6c-0.9-1.7-1.9-3-2.7-3c-0.9,0-1.8,1.3-2.7,3
						c0.9,0,1.8-0.1,2.9-0.1h0C-216.6,406.5-215.7,406.6-214.9,406.6L-214.9,406.6L-214.9,406.6z M-217.5,407.4L-217.5,407.4
						c-1.2,0-2.3,0-3.3,0.1c-0.4,0.9-0.8,1.9-1.1,2.8c1.2-0.1,2.9-0.2,4.3-0.2c1.4,0,3,0.1,4.2,0.2c-0.3-0.9-0.7-1.9-1.2-2.8
						C-215.4,407.4-216.4,407.4-217.5,407.4L-217.5,407.4L-217.5,407.4z M-229.9,409.9c0.5-1.2,2.2-2.5,6.9-3
						c0.7-1.6,2.6-5.9,5.3-5.9c2.7,0,4.7,4.3,5.4,5.9c4.8,0.5,6.5,1.8,7.1,3c0.2,0.5,0.2,0.8,0.2,1c0,0.3-0.2,2.8-1.2,6.2
						c-0.9,3.1-2.5,6.6-3.5,7.9c-0.8,1-2.4,2.1-7.7,2.1c-5.3,0-6.9-1-7.7-2.1c-1.1-1.3-2.6-4.8-3.5-7.9c-1-3.4-1.2-5.9-1.2-6.2
						C-230,410.6-230,410.3-229.9,409.9L-229.9,409.9L-229.9,409.9z"/>
				</g>
			</g>
		</g>
	</g>
</g>
<g>
	<path class="st1" d="M-173.4,422.9c0,0.8-0.2,1.4-0.7,2c-0.5,0.6-1.1,0.9-1.9,0.9h-1.4l-0.2-1.1h1.2c0.5,0,0.9-0.1,1.3-0.4
		c0.4-0.3,0.6-0.7,0.6-1.2v-3.4h1.1V422.9z M-173.5,416.9c0,0.2-0.1,0.4-0.2,0.5s-0.3,0.2-0.5,0.2c-0.5,0-0.8-0.2-0.8-0.7
		c0-0.4,0.3-0.6,0.8-0.6C-173.7,416.3-173.5,416.5-173.5,416.9z"/>
	<path class="st1" d="M-170.6,423.1h-1v-6.8h1V423.1z"/>
	<path class="st1" d="M-156.5,423.1c-0.8,0-1.4-0.1-1.7-0.4c-0.4,0.3-0.7,0.4-1,0.4h-5.6c-0.4,0-0.8-0.2-1.1-0.5
		c-0.3-0.3-0.4-0.7-0.4-1.2v-1.6h1.1v1.5c0,0.3,0.1,0.5,0.2,0.6s0.3,0.2,0.6,0.2h4.9c0.3,0,0.5-0.1,0.6-0.2c0.1-0.1,0.2-0.3,0.2-0.6
		v-1.5h1.1v1.4c0,0.5,0.4,0.8,1.2,0.8L-156.5,423.1L-156.5,423.1z M-162.2,418c0,0.2-0.1,0.3-0.2,0.4s-0.3,0.2-0.5,0.2
		c-0.5,0-0.8-0.2-0.8-0.6c0-0.4,0.2-0.6,0.7-0.6C-162.5,417.5-162.2,417.7-162.2,418z M-160.2,418c0,0.2-0.1,0.3-0.2,0.4
		s-0.3,0.2-0.5,0.2c-0.5,0-0.8-0.2-0.8-0.6c0-0.4,0.2-0.6,0.7-0.6C-160.4,417.5-160.2,417.7-160.2,418z"/>
	<path class="st1" d="M-152,421.4c0,0.5-0.1,0.8-0.5,1.2c-0.3,0.3-0.8,0.5-1.2,0.5h-3.2v-1h3.2c0.4,0,0.6-0.3,0.6-0.8
		c-0.5,0-1.2,0-1.9-0.1c-0.6-0.2-0.9-0.7-0.9-1.4c0-0.5,0.2-0.9,0.5-1.2c0.3-0.3,0.7-0.5,1.2-0.5c0.4,0,0.8,0.1,1.1,0.3
		c0.6,0.4,0.9,0.9,0.9,1.8L-152,421.4z M-153.1,420.3c0-0.8-0.4-1.2-1-1.2c-0.5,0-0.7,0.2-0.7,0.6c0,0.3,0.1,0.5,0.3,0.6
		c0.1,0,0.3,0,0.7,0.1C-153.9,420.3-153.1,420.3-153.1,420.3z M-153.3,416.7c0,0.2-0.1,0.4-0.2,0.5s-0.3,0.2-0.5,0.2
		c-0.5,0-0.8-0.2-0.8-0.7c0-0.4,0.2-0.6,0.7-0.6C-153.6,416.1-153.3,416.3-153.3,416.7z"/>
	<path class="st1" d="M-148.3,423.1c-0.9,0-1.5-0.2-1.9-0.5c-0.2-0.2-0.4-0.6-0.4-1.1v-5h1.1v4.5c0,0.5,0.1,0.8,0.2,0.9
		c0.1,0.1,0.4,0.1,0.9,0.1C-148.3,422.1-148.3,423.1-148.3,423.1z"/>
	<path class="st1" d="M-145,421.4c0,0.5-0.1,0.9-0.4,1.2c-0.3,0.4-0.7,0.5-1.1,0.5h-2.3v-1h1.9c0.3,0,0.5-0.1,0.6-0.2
		c0.1-0.1,0.2-0.3,0.2-0.6v-1.5h1.1C-145,419.8-145,421.4-145,421.4z M-147.2,425.1c0,0.2-0.1,0.3-0.2,0.4s-0.3,0.2-0.5,0.2
		c-0.2,0-0.4-0.1-0.5-0.2c-0.2-0.1-0.2-0.3-0.2-0.5c0-0.4,0.2-0.6,0.7-0.6C-147.4,424.5-147.2,424.7-147.2,425.1z M-145.2,425.1
		c0,0.2-0.1,0.3-0.2,0.4s-0.3,0.2-0.5,0.2c-0.2,0-0.4-0.1-0.5-0.2c-0.2-0.1-0.2-0.3-0.2-0.5c0-0.4,0.2-0.6,0.7-0.6
		C-145.4,424.5-145.2,424.7-145.2,425.1z"/>
	<path class="st1" d="M-140.1,422.9c0,0.8-0.2,1.4-0.7,2c-0.5,0.6-1.1,0.9-1.9,0.9h-1.4l-0.2-1.1h1.2c0.5,0,0.9-0.1,1.3-0.4
		c0.4-0.3,0.6-0.7,0.6-1.2v-3.4h1.1C-140.1,419.8-140.1,422.9-140.1,422.9z"/>
	<path class="st1" d="M-133.9,421.7c0,0.4-0.2,0.8-0.5,1c-0.3,0.2-0.7,0.4-1.1,0.4h-3.3l-0.1-1h3.3c0.4,0,0.6-0.1,0.6-0.4
		c0-0.1-0.1-0.3-0.2-0.4l-2.4-2.5l0.7-0.7l2.4,2.5C-134.1,420.9-133.9,421.3-133.9,421.7z"/>
</g>
</svg>
