<?xml version="1.0" encoding="utf-8"?>
<!-- soheilshiri.ir -->
<!DOCTYPE svg PUBLIC "-//W3C//DTD SVG 1.1//EN" "http://www.w3.org/Graphics/SVG/1.1/DTD/svg11.dtd">
<svg version="1.1" id="Layer_1" xmlns="http://www.w3.org/2000/svg" xmlns:xlink="http://www.w3.org/1999/xlink" x="0px" y="0px"
	 width="135px" height="40px" viewBox="0 0 135 40" enable-background="new 0 0 135 40" xml:space="preserve">
<title>google-play-badge</title>
<desc>Created with Sketch.</desc>
<g id="Page-1">
	<g id="google-play-badge">
		<g id="artwork">
			<g id="Group">
				<path id="Shape" fill="#84A42B" d="M5,40c-2.8,0-5-2.2-5-5V5c0-2.8,2.2-5,5-5h125c2.8,0,5,2.2,5,5v30c0,2.7-2.2,5-5,5H5z"/>
				<path id="Shape_1_" fill="#AFCF53" d="M130,0.8c2.3,0,4.2,1.9,4.2,4.2v30c0,2.3-1.9,4.2-4.2,4.2H5c-2.3,0-4.2-1.9-4.2-4.2V5
					c0-2.3,1.9-4.2,4.2-4.2H130L130,0.8z M130,0H5C2.2,0,0,2.2,0,5v30c0,2.8,2.2,5,5,5h125c2.8,0,5-2.2,5-5V5C135,2.3,132.8,0,130,0
					L130,0L130,0z"/>
				<path id="Shape_2_" fill="#FFFFFF" d="M31.617,17.623V15.23v-2.427c0-0.529,0.181-0.982,0.546-1.352
					c0.365-0.37,0.809-0.554,1.331-0.554c0.501,0,0.931,0.18,1.296,0.536c0.365,0.356,0.556,0.792,0.58,1.3v0.173v0.138v4.247v4.281
					c0,0.277,0.062,0.478,0.188,0.605c0.126,0.128,0.324,0.189,0.597,0.189h1.484h1.45c0.57,0.025,1.034,0.219,1.399,0.588
					c0.365,0.371,0.535,0.834,0.511,1.387c0,0.484-0.17,0.91-0.511,1.266c-0.341,0.357-0.75,0.537-1.229,0.537
					c-0.706,0.023-1.398,0.034-2.081,0.034s-1.365-0.011-2.047-0.034c-0.863-0.024-1.63-0.356-2.303-1.007
					c-0.672-0.646-1.064-1.411-1.177-2.289c0-0.114-0.007-0.226-0.017-0.329s-0.017-0.214-0.017-0.328v-2.289V17.623L31.617,17.623
					L31.617,17.623L31.617,17.623L31.617,17.623z M29.707,21.473v1.369v1.369c0,1.11-0.365,2.037-1.092,2.773
					s-1.627,1.11-2.695,1.11h-1.893h-1.894c-0.433-0.024-0.812-0.173-1.143-0.45c-0.331-0.276-0.539-0.633-0.631-1.075
					c-0.068-0.438-0.01-0.857,0.171-1.248c0.181-0.392,0.478-0.671,0.887-0.833c0.137-0.07,0.28-0.115,0.426-0.139
					c0.147-0.024,0.29-0.035,0.427-0.035c0.478-0.023,0.955-0.034,1.433-0.034h1.433c0.317,0,0.539-0.06,0.666-0.173
					c0.126-0.114,0.188-0.336,0.188-0.657v-2.428v-2.427c0-0.46,0.129-0.868,0.392-1.214c0.263-0.346,0.607-0.578,1.041-0.695
					c0.59-0.138,1.119-0.024,1.586,0.346s0.699,0.858,0.699,1.456v1.508V21.473L29.707,21.473L29.707,21.473L29.707,21.473
					L29.707,21.473L29.707,21.473z M24.078,15.68v2.411c0,0-0.01,0.792-0.034,2.375c0,0.72-0.3,1.255-0.904,1.611
					c-0.604,0.356-1.211,0.374-1.825,0.052c-0.297-0.162-0.529-0.38-0.7-0.656c-0.17-0.277-0.266-0.588-0.29-0.938v-0.259v-0.225
					v-4.544v-4.541c0-0.439,0.119-0.833,0.358-1.179s0.563-0.578,0.972-0.695c0.59-0.183,1.136-0.093,1.638,0.277
					s0.761,0.868,0.784,1.49v2.411V15.68L24.078,15.68L24.078,15.68L24.078,15.68L24.078,15.68z M29.707,12.803
					c0,0.508-0.181,0.954-0.546,1.334c-0.365,0.381-0.795,0.571-1.296,0.571c-0.522,0-0.965-0.183-1.33-0.553
					c-0.365-0.37-0.546-0.823-0.546-1.352c0-0.508,0.181-0.955,0.546-1.335c0.365-0.38,0.794-0.571,1.296-0.571
					c0.522,0,0.965,0.184,1.331,0.554C29.526,11.82,29.707,12.273,29.707,12.803L29.707,12.803L29.707,12.803L29.707,12.803
					L29.707,12.803z M33.459,28.095c0,0.528-0.181,0.981-0.546,1.353C32.548,29.816,32.118,30,31.617,30
					c-0.522,0-0.965-0.184-1.33-0.553c-0.365-0.371-0.546-0.824-0.546-1.353c0-0.509,0.181-0.948,0.546-1.317
					c0.365-0.371,0.808-0.554,1.33-0.554s0.962,0.18,1.313,0.536C33.281,27.115,33.459,27.563,33.459,28.095L33.459,28.095
					L33.459,28.095L33.459,28.095L33.459,28.095z M18.415,14.604c-0.024-0.577-0.273-1.047-0.75-1.404
					c-0.478-0.356-0.989-0.467-1.535-0.329c-0.433,0.114-0.778,0.339-1.04,0.678c-0.263,0.339-0.393,0.747-0.393,1.231
					c-0.024,0.809-0.027,1.622-0.017,2.445c0.01,0.823,0.017,1.646,0.017,2.479c0,0.252-0.062,0.443-0.188,0.571
					c-0.126,0.128-0.324,0.19-0.597,0.19h-1.501H10.91c-0.068,0-0.129,0.007-0.188,0.017c-0.058,0.011-0.109,0.017-0.153,0.017
					c-0.454,0.07-0.829,0.277-1.126,0.623S9,21.877,9,22.337c0,0.37,0.085,0.702,0.256,0.989s0.402,0.512,0.699,0.678h0.017
					c0,0,0.017,0.01,0.051,0.034c0.024,0,0.044,0.007,0.068,0.017l0.102,0.053c0.113,0.045,0.232,0.08,0.358,0.104
					c0.126,0.024,0.256,0.035,0.392,0.035c0.229,0.023,0.467,0.034,0.716,0.034h0.716c0.454-0.024,0.911-0.028,1.365-0.017
					c0.454,0.01,0.911-0.008,1.364-0.053c0.887-0.068,1.655-0.449,2.303-1.145c0.648-0.695,0.982-1.49,1.006-2.393v-3.033V14.604
					L18.415,14.604L18.415,14.604L18.415,14.604L18.415,14.604z"/>
				<g id="cafebazaar" transform="translate(101.000000, 7.000000)">
					<path id="Shape_3_" fill="#FFFFFF" d="M16.146,6.599c0.45,0.965,0.843,1.956,1.161,2.822c0.754,0.075,1.246,0.139,1.254,0.139
						c0.488,0.044,0.98,0.108,1.457,0.169c0.64,0.083,1.304,0.169,1.959,0.206c1.029,0.058,1.652-0.142,2.012-0.647
						c-0.01-0.022-0.018-0.042-0.029-0.063C23.617,8.521,22.175,7.031,16.146,6.599L16.146,6.599L16.146,6.599z M12.315,0.552
						c-1.802,0-3.564,2.761-4.614,5.311C8.1,5.824,8.518,5.788,8.955,5.76c0.957-1.942,2.133-3.585,3.36-3.585
						c1.222,0,2.421,1.635,3.412,3.566c0.45,0.028,0.88,0.061,1.29,0.097C15.924,3.299,14.113,0.552,12.315,0.552L12.315,0.552z
						 M0.959,9.285C0.947,9.31,0.943,9.332,0.936,9.357c0.365,0.458,0.973,0.632,1.955,0.577c0.652-0.036,1.313-0.122,1.951-0.206
						c0.477-0.061,0.971-0.125,1.456-0.169C6.31,9.557,6.754,9.501,7.443,9.432c0.302-0.863,0.676-1.851,1.109-2.814
						C2.613,7.082,1.26,8.58,0.959,9.285L0.959,9.285L0.959,9.285z M15.061,5.708c-0.88-1.679-1.856-2.98-2.745-2.98
						c-0.892,0-1.845,1.31-2.696,2.991c0.875-0.044,1.822-0.069,2.854-0.069h0.033C13.424,5.649,14.271,5.672,15.061,5.708
						L15.061,5.708L15.061,5.708z M12.506,6.479h-0.029c-1.211,0-2.293,0.034-3.264,0.095c-0.418,0.916-0.799,1.89-1.125,2.797
						c1.216-0.114,2.867-0.236,4.348-0.236c1.433,0,3.025,0.114,4.228,0.225c-0.342-0.91-0.745-1.884-1.179-2.802
						C14.588,6.507,13.6,6.479,12.506,6.479L12.506,6.479L12.506,6.479z M0.148,8.977c0.494-1.154,2.161-2.478,6.9-3.044
						C7.701,4.29,9.657,0,12.315,0c2.651,0,4.679,4.271,5.356,5.905c4.793,0.538,6.526,1.837,7.079,2.969
						c0.231,0.474,0.208,0.835,0.19,0.955c-0.018,0.258-0.226,2.816-1.246,6.193c-0.933,3.103-2.485,6.563-3.538,7.878
						c-0.824,1.026-2.38,2.075-7.681,2.075c-5.299,0-6.854-1.049-7.679-2.075c-1.05-1.31-2.605-4.771-3.544-7.875
						c-1.015-3.374-1.223-5.93-1.242-6.196C-0.006,9.717-0.027,9.401,0.148,8.977L0.148,8.977L0.148,8.977z"/>
				</g>
			</g>
		</g>
	</g>
</g>
<g>
	<path fill="#F1F1F1" d="M56.552,22.04c0,0.773-0.242,1.436-0.727,1.986c-0.508,0.574-1.145,0.861-1.91,0.861h-1.395l-0.176-1.084
		h1.184c0.508,0,0.945-0.121,1.313-0.363c0.418-0.281,0.627-0.666,0.627-1.154v-3.375h1.084V22.04z M56.511,16.046
		c0,0.207-0.07,0.382-0.211,0.524s-0.314,0.214-0.521,0.214c-0.539,0-0.809-0.246-0.809-0.738c0-0.426,0.258-0.639,0.773-0.639
		C56.255,15.407,56.511,15.62,56.511,16.046z"/>
	<path fill="#F1F1F1" d="M59.382,22.222h-1.031V15.46h1.031V22.222z"/>
	<path fill="#F1F1F1" d="M73.533,22.222c-0.836,0-1.395-0.137-1.676-0.41c-0.359,0.273-0.699,0.41-1.02,0.41h-5.555
		c-0.438,0-0.803-0.18-1.096-0.539c-0.273-0.336-0.41-0.729-0.41-1.178v-1.594h1.055v1.451c0,0.302,0.059,0.513,0.176,0.632
		s0.322,0.179,0.615,0.179h4.905c0.293,0,0.494-0.06,0.605-0.179s0.168-0.33,0.168-0.632v-1.451h1.072v1.447
		c0,0.539,0.387,0.809,1.16,0.809V22.222z M67.791,17.153c0,0.18-0.065,0.328-0.196,0.445s-0.286,0.176-0.466,0.176
		c-0.5,0-0.75-0.207-0.75-0.621c0-0.387,0.227-0.58,0.68-0.58C67.546,16.573,67.791,16.767,67.791,17.153z M69.824,17.153
		c0,0.18-0.066,0.328-0.197,0.445s-0.287,0.176-0.471,0.176c-0.5,0-0.75-0.207-0.75-0.621c0-0.387,0.23-0.58,0.691-0.58
		C69.582,16.573,69.824,16.767,69.824,17.153z"/>
	<path fill="#F1F1F1" d="M78.033,20.558c0.023,0.453-0.143,0.848-0.498,1.184c-0.348,0.32-0.75,0.48-1.207,0.48h-3.164v-1.049h3.176
		c0.387,0,0.58-0.264,0.58-0.791c-0.547-0.004-1.166-0.037-1.857-0.1c-0.582-0.215-0.873-0.693-0.873-1.436
		c0-0.512,0.16-0.925,0.48-1.239s0.736-0.472,1.248-0.472c0.418,0,0.801,0.111,1.148,0.334c0.559,0.352,0.859,0.941,0.902,1.77
		L78.033,20.558z M76.855,19.386c-0.027-0.777-0.357-1.166-0.99-1.166c-0.465,0-0.697,0.187-0.697,0.56
		c0,0.298,0.088,0.483,0.264,0.553c0.074,0.032,0.293,0.049,0.656,0.053H76.855z M76.703,15.788c0,0.203-0.074,0.376-0.221,0.519
		s-0.32,0.214-0.523,0.214c-0.516,0-0.773-0.244-0.773-0.732c0-0.418,0.248-0.627,0.744-0.627
		C76.445,15.161,76.703,15.37,76.703,15.788z"/>
	<path fill="#F1F1F1" d="M81.684,22.222c-0.891,0-1.518-0.172-1.881-0.516c-0.242-0.223-0.363-0.588-0.363-1.096v-4.986h1.055v4.523
		c0,0.488,0.082,0.787,0.246,0.896c0.102,0.066,0.416,0.107,0.943,0.123V22.222z"/>
	<path fill="#F1F1F1" d="M85.006,20.505c0,0.457-0.135,0.852-0.404,1.184c-0.289,0.355-0.656,0.533-1.102,0.533h-2.256v-1.049h1.928
		c0.293,0,0.496-0.06,0.609-0.179s0.17-0.33,0.17-0.632v-1.451h1.055V20.505z M82.803,24.243c0,0.18-0.066,0.328-0.197,0.445
		s-0.287,0.176-0.471,0.176c-0.195,0-0.363-0.053-0.504-0.158c-0.152-0.117-0.229-0.271-0.229-0.463
		c0-0.391,0.223-0.586,0.668-0.586C82.559,23.657,82.803,23.853,82.803,24.243z M84.824,24.243c0,0.18-0.066,0.328-0.197,0.445
		s-0.287,0.176-0.471,0.176c-0.195,0-0.363-0.053-0.504-0.158c-0.152-0.117-0.229-0.271-0.229-0.463
		c0-0.391,0.223-0.586,0.668-0.586C84.58,23.657,84.824,23.853,84.824,24.243z"/>
	<path fill="#F1F1F1" d="M89.916,22.04c0,0.777-0.242,1.441-0.727,1.992c-0.504,0.57-1.141,0.855-1.91,0.855h-1.406l-0.17-1.084
		h1.189c0.508,0,0.943-0.121,1.307-0.363c0.422-0.281,0.633-0.666,0.633-1.154v-3.375h1.084V22.04z"/>
	<path fill="#F1F1F1" d="M96.063,20.843c0,0.423-0.158,0.763-0.475,1.021c-0.293,0.239-0.654,0.358-1.084,0.358h-3.27l-0.146-1.049
		h3.346c0.391,0,0.586-0.138,0.586-0.413c0-0.143-0.053-0.27-0.158-0.384l-2.375-2.524l0.711-0.716l2.377,2.51
		C95.898,19.994,96.063,20.393,96.063,20.843z"/>
</g>
</svg>
