<svg id="Layer_1" data-name="Layer 1" xmlns="http://www.w3.org/2000/svg" viewBox="0 0 231.08 76.26"><defs><style>.cls-1,.cls-2{fill:none;}.cls-1{isolation:isolate;}.cls-2{stroke:#231f20;stroke-miterlimit:10;}.cls-3{fill:#231f20;}</style></defs><title>apple-badge</title><path class="cls-1" transform="translate(0.16 -2.87)"/><rect class="cls-2" x="0.5" y="0.5" width="230.08" height="75.26" rx="10.17" ry="10.17"/><path class="cls-3" d="M40.08,16.24H21.33a4.07,4.07,0,0,0-4.07,4.07V61.83a4.07,4.07,0,0,0,4.07,4.07H40.08a4.07,4.07,0,0,0,4.07-4.07V20.31A4.07,4.07,0,0,0,40.08,16.24ZM30.71,62.91a2.71,2.71,0,1,1,2.71-2.71A2.71,2.71,0,0,1,30.71,62.91ZM41,56.17H20.46V25.55H41Z" transform="translate(0.16 -2.87)"/><path class="cls-3" d="M63.33,22.71l-1.64,5h-2.1L64.94,11.9h2.46l5.38,15.76H70.6l-1.68-5Zm5.17-1.59-1.57-4.54c-.33-1-.56-2-.8-2.87h-.07c-.21.91-.47,1.89-.77,2.85l-1.54,4.56Z" transform="translate(0.16 -2.87)"/><path class="cls-3" d="M74.87,16.35l2.22,6.34c.37,1.05.68,2,.91,2.92h.07c.26-.93.58-1.87,1-2.92l2.2-6.34h2.15L78.94,27.66H77l-4.3-11.31Z" transform="translate(0.16 -2.87)"/><path class="cls-3" d="M92.85,25A18.91,18.91,0,0,0,93,27.66H91.17L91,26.24h-.07a4.18,4.18,0,0,1-3.46,1.68A3.22,3.22,0,0,1,84,24.67c0-2.74,2.43-4.23,6.8-4.21v-.23a2.32,2.32,0,0,0-2.57-2.62,5.45,5.45,0,0,0-3,.84l-.47-1.38a7.35,7.35,0,0,1,3.74-1c3.49,0,4.32,2.36,4.32,4.63Zm-2-3.06c-2.24,0-4.79.35-4.79,2.55a1.8,1.8,0,0,0,1.91,2,2.86,2.86,0,0,0,2.78-1.89,2.13,2.13,0,0,0,.09-.66Z" transform="translate(0.16 -2.87)"/><path class="cls-3" d="M97,14.27a1.32,1.32,0,0,1,0-2.64,1.26,1.26,0,0,1,1.31,1.31A1.29,1.29,0,0,1,97,14.27ZM96,27.66V16.35h2.06V27.66Z" transform="translate(0.16 -2.87)"/><path class="cls-3" d="M101.38,11.06h2.06v16.6h-2.06Z" transform="translate(0.16 -2.87)"/><path class="cls-3" d="M114.71,25a19.05,19.05,0,0,0,.16,2.71H113l-.19-1.43h-.07a4.18,4.18,0,0,1-3.46,1.68,3.22,3.22,0,0,1-3.46-3.25c0-2.74,2.43-4.23,6.8-4.21v-.23a2.32,2.32,0,0,0-2.57-2.62,5.44,5.44,0,0,0-3,.84l-.47-1.38a7.35,7.35,0,0,1,3.74-1c3.48,0,4.32,2.36,4.32,4.63Zm-2-3.06c-2.24,0-4.79.35-4.79,2.55a1.8,1.8,0,0,0,1.92,2,2.86,2.86,0,0,0,2.78-1.89,2.09,2.09,0,0,0,.09-.66Z" transform="translate(0.16 -2.87)"/><path class="cls-3" d="M117.88,11.06h2.06v7.08h0a4.2,4.2,0,0,1,3.85-2.06c2.81,0,4.77,2.34,4.77,5.75,0,4.07-2.57,6.08-5.1,6.08a4.05,4.05,0,0,1-3.79-2.13h0l-.12,1.87h-1.77c.07-.77.09-1.92.09-2.92Zm2.06,12.06a3.72,3.72,0,0,0,.07.75,3.19,3.19,0,0,0,3.08,2.41c2.17,0,3.44-1.75,3.44-4.35,0-2.29-1.17-4.23-3.37-4.23a3.41,3.41,0,0,0-3.23,3.39Z" transform="translate(0.16 -2.87)"/><path class="cls-3" d="M131.07,11.06h2.06v16.6h-2.06Z" transform="translate(0.16 -2.87)"/><path class="cls-3" d="M137.59,22.36a3.61,3.61,0,0,0,3.86,3.93,7.79,7.79,0,0,0,3.13-.56l.37,1.45a9.2,9.2,0,0,1-3.79.73c-3.46,0-5.56-2.31-5.56-5.7s2-6.13,5.33-6.13c3.69,0,4.65,3.25,4.65,5.33a5.3,5.3,0,0,1-.07,1Zm6-1.47c0-1.29-.54-3.34-2.83-3.34-2.1,0-3,1.92-3.15,3.34Z" transform="translate(0.16 -2.87)"/><path class="cls-3" d="M157.46,27.92c-3,0-5.42-2.24-5.42-5.82,0-3.79,2.5-6,5.61-6s5.45,2.36,5.45,5.8c0,4.21-2.92,6-5.61,6Zm.07-1.54c2,0,3.44-1.85,3.44-4.42,0-1.92-1-4.33-3.39-4.33s-3.46,2.24-3.46,4.4c0,2.48,1.4,4.35,3.39,4.35Z" transform="translate(0.16 -2.87)"/><path class="cls-3" d="M165.57,19.41c0-1.19,0-2.13-.1-3.06h1.82l.12,1.85h0a4.19,4.19,0,0,1,3.74-2.1c1.57,0,4,.94,4,4.82v6.75h-2.06V21.14c0-1.82-.68-3.37-2.62-3.37a3,3,0,0,0-2.76,2.1,3.07,3.07,0,0,0-.14,1v6.82h-2.05Z" transform="translate(0.16 -2.87)"/><path class="cls-3" d="M185.74,13.64v2.71h2.94v1.57h-2.94V24c0,1.4.4,2.2,1.54,2.2a3.82,3.82,0,0,0,1.2-.14l.09,1.57a5.59,5.59,0,0,1-1.82.28,2.94,2.94,0,0,1-2.22-.86,4.44,4.44,0,0,1-.79-3V17.91H182V16.35h1.75V14.27Z" transform="translate(0.16 -2.87)"/><path class="cls-3" d="M190.88,11.06h2.06v7.06h0a3.65,3.65,0,0,1,1.47-1.45,4,4,0,0,1,2.1-.58c1.52,0,3.95.94,3.95,4.84v6.73h-2.05v-6.5c0-1.85-.68-3.37-2.62-3.37a3,3,0,0,0-2.76,2.06,2.48,2.48,0,0,0-.14,1v6.82h-2.06Z" transform="translate(0.16 -2.87)"/><path class="cls-3" d="M204.9,22.36a3.61,3.61,0,0,0,3.86,3.93,7.81,7.81,0,0,0,3.13-.56l.37,1.45a9.22,9.22,0,0,1-3.79.73c-3.46,0-5.56-2.31-5.56-5.7s2-6.13,5.33-6.13c3.69,0,4.65,3.25,4.65,5.33a5.3,5.3,0,0,1-.07,1Zm6-1.47c0-1.29-.54-3.34-2.83-3.34-2.1,0-3,1.92-3.16,3.34Z" transform="translate(0.16 -2.87)"/><path class="cls-3" d="M66.24,34.52l-9.65,28.4H61l2.88-8.72h9.34l3,8.72h4.54L71,34.52Zm2.29,4.67c.33,1.27.68,2.58,1.13,4l2.6,7.53h-7.4l2.56-7.58C67.81,41.92,68.18,40.59,68.53,39.19Z" transform="translate(0.16 -2.87)"/><path class="cls-3" d="M93.22,41.88a8,8,0,0,0-6.83,3.28l-.17-2.83H82.29l0,.36c.12,1.76.16,3.7.16,6.48V71.07h4.3V60.85a7.55,7.55,0,0,0,5.87,2.52,8.86,8.86,0,0,0,6.51-2.77A11.75,11.75,0,0,0,102,52.34a11.43,11.43,0,0,0-2.5-7.55A8.18,8.18,0,0,0,93.22,41.88Zm-1.07,3.56c3.83,0,5.55,3.55,5.55,7.07,0,4.54-2.19,7.35-5.71,7.35a5.21,5.21,0,0,1-5.06-4,5.5,5.5,0,0,1-.15-1.39V51A6.42,6.42,0,0,1,86.91,50c0-.12,0-.23.06-.35A5.44,5.44,0,0,1,92.15,45.44Z" transform="translate(0.16 -2.87)"/><path class="cls-3" d="M115.35,41.88a8,8,0,0,0-6.83,3.28l-.17-2.83h-3.93l0,.36c.12,1.76.16,3.7.16,6.48V71.07h4.3V60.85a7.54,7.54,0,0,0,5.87,2.52,8.87,8.87,0,0,0,6.51-2.77,11.75,11.75,0,0,0,2.87-8.27,11.43,11.43,0,0,0-2.5-7.55A8.17,8.17,0,0,0,115.35,41.88Zm-1.07,3.56c3.83,0,5.54,3.55,5.54,7.07,0,4.54-2.19,7.35-5.71,7.35a5.21,5.21,0,0,1-5.06-4,5.51,5.51,0,0,1-.15-1.39V51A6.23,6.23,0,0,1,109,50l.06-.35A5.44,5.44,0,0,1,114.28,45.44Z" transform="translate(0.16 -2.87)"/><path class="cls-3" d="M143.08,46.56c-4-1.55-5.3-2.78-5.3-5,0-1.9,1.51-3.82,4.88-3.82a9.77,9.77,0,0,1,5,1.27l.36.22,1.21-3.59-.24-.14a12.45,12.45,0,0,0-6.26-1.4c-5.48,0-9.31,3.24-9.31,7.87,0,3.73,2.4,6.35,7.54,8.22,3.65,1.36,5,2.76,5,5.15,0,2.71-2.09,4.39-5.46,4.39a11.76,11.76,0,0,1-6.19-1.76L134,57.7l-1.15,3.67.21.14a14.72,14.72,0,0,0,7.26,1.87c7.39,0,10-4.5,10-8.36S148.22,48.59,143.08,46.56Z" transform="translate(0.16 -2.87)"/><path class="cls-3" d="M158.06,37.44l-4.22,1.32v3.57h-3.08v3.43h3.08V56.29c0,2.54.49,4.33,1.49,5.45a5.51,5.51,0,0,0,4.16,1.63,10.1,10.1,0,0,0,3.32-.51l.24-.09-.21-3.44-.41.13a6.49,6.49,0,0,1-2,.23c-1.67,0-2.38-1.05-2.38-3.53V45.77h5.18V42.34h-5.18Z" transform="translate(0.16 -2.87)"/><path class="cls-3" d="M173.89,41.88c-6,0-10.21,4.49-10.21,10.91,0,6.23,4.06,10.58,9.88,10.58h0c4.92,0,10.21-3.43,10.21-11a10.86,10.86,0,0,0-2.74-7.6A9.56,9.56,0,0,0,173.89,41.88Zm-.12,3.39c3.87,0,5.63,3.77,5.63,7.27,0,4.31-2.4,7.44-5.71,7.44h0c-3.26,0-5.63-3.07-5.63-7.31C168,49,169.8,45.28,173.77,45.28Z" transform="translate(0.16 -2.87)"/><path class="cls-3" d="M197,42.08l-.26-.07a4.13,4.13,0,0,0-1.07-.13,6.13,6.13,0,0,0-5.39,3.46l-.13-3h-3.86l0,.36c.11,1.7.16,3.61.16,6.19l0,14h4.3V52a11.24,11.24,0,0,1,.12-1.67c.49-2.63,2.26-4.33,4.52-4.33a11,11,0,0,1,1.15.07l.46,0Z" transform="translate(0.16 -2.87)"/><path class="cls-3" d="M206.64,41.84c-5.72,0-9.72,4.57-9.72,11.12,0,6.3,4,10.38,10.13,10.38a16.49,16.49,0,0,0,6.8-1.31l.26-.12-.83-3.2-.36.14a13.31,13.31,0,0,1-5.38,1c-1.87,0-6.17-.62-6.44-6.23l13.87,0,.06-.27a9.5,9.5,0,0,0,.13-1.79C215.17,47.08,212.94,41.84,206.64,41.84Zm-.29,3.27a4.24,4.24,0,0,1,3.16,1.2,6.11,6.11,0,0,1,1.48,4h-9.8C201.59,47.83,203.14,45.11,206.36,45.11Z" transform="translate(0.16 -2.87)"/></svg>