<?xml version="1.0" encoding="utf-8"?>
<!-- Generator: Adobe Illustrator 19.0.0, SVG Export Plug-In . SVG Version: 6.00 Build 0)  -->
<svg version="1.1" id="Layer_1" xmlns="http://www.w3.org/2000/svg" xmlns:xlink="http://www.w3.org/1999/xlink" x="0px" y="0px"
	 viewBox="0 0 54.5 44.8" style="enable-background:new 0 0 54.5 44.8;" xml:space="preserve">
<style type="text/css">
	.st0{fill:#FFFFFF;stroke:#000000;stroke-linecap:round;stroke-linejoin:bevel;stroke-miterlimit:10;}
	.st1{fill:none;stroke:#FFFFFF;stroke-width:3;stroke-miterlimit:10;}
	.st2{fill:#FFFFFF;}
</style>
<path id="XMLID_2_" class="st0" d="M-401.2-80.2"/>
<path id="XMLID_6_" class="st1" d="M45.3,37.8H9c-0.4,0-0.8-0.4-0.8-0.8V13.4c0-0.4,0.4-0.8,0.8-0.8h36.3c0.4,0,0.8,0.4,0.8,0.8V37
	C46.1,37.4,45.8,37.8,45.3,37.8z"/>
<circle id="XMLID_7_" class="st1" cx="27.2" cy="25.7" r="6.5"/>
<path id="XMLID_8_" class="st2" d="M18.1,12.6h-7.7c-0.3,0-0.6-0.3-0.6-0.6V8.9c0-0.3,0.3-0.6,0.6-0.6h7.7c0.3,0,0.6,0.3,0.6,0.6V12
	C18.7,12.3,18.5,12.6,18.1,12.6z"/>
</svg>
