<?xml version="1.0" encoding="UTF-8" standalone="no"?>
<svg
   xmlns:dc="http://purl.org/dc/elements/1.1/"
   xmlns:cc="http://creativecommons.org/ns#"
   xmlns:rdf="http://www.w3.org/1999/02/22-rdf-syntax-ns#"
   xmlns:svg="http://www.w3.org/2000/svg"
   xmlns="http://www.w3.org/2000/svg"
   viewBox="0 0 208 240"
   height="240"
   width="208"
   xml:space="preserve"
   id="svg2"
   version="1.1"><metadata
     id="metadata8"><rdf:RDF><cc:Work
         rdf:about=""><dc:format>image/svg+xml</dc:format><dc:type
           rdf:resource="http://purl.org/dc/dcmitype/StillImage" /></cc:Work></rdf:RDF></metadata><defs
     id="defs6"><clipPath
       id="clipPath20"
       clipPathUnits="userSpaceOnUse"><path
         style="clip-rule:evenodd"
         id="path18"
         d="m 662.102,1799.99 c 495.408,0 897.018,-401.61 897.018,-897.025 0,-495.41 -401.61,-897.01969 -897.018,-897.01969 -367.719,0 -861.766,279.03169 -569.8911,651.61769 46.8281,59.769 95.3591,93.921 142.0311,111.429 98.957,37.125 189.516,-0.746 237.653,-29.043 l 0.703,-0.41 3.804,-2.281 0.965,-0.59 1.75,-1.078 2.18,-1.367 0.387,-0.246 1.632,-1.039 c 2.793,-1.79 5.372,-3.5 7.723,-5.102 l -0.031,-0.074 -0.008,-0.004 c 8.918,-6.164 15.273,-15.762 17.145,-26.891 V 584.059 l 0.566,-16.207 c 3.414,-97.196 79.566,-176.825 176.82,-176.825 h 0.012 c 97.262,0 176.824,79.567 176.824,176.825 v 126.179 c 0,22.629 18.344,40.973 40.973,40.973 h 126.18 c 233.93,0 233.93,353.656 0,353.656 H 903.34 c -22.629,0 -40.973,18.34 -40.973,40.98 v 126.17 c 0,97.26 -79.562,176.82 -176.824,176.82 h -0.012 c -97.215,0 -176.82,-79.6 -176.82,-176.82 v -126.17 c 0,-14.31 -7.336,-26.91 -18.453,-34.23 l 0.008,-0.01 -2.446,-1.63 -0.382,-0.25 -1.403,-0.92 -1.879,-1.21 -1.437,-0.92 -2.559,-1.61 -0.765,-0.48 -0.317,-0.2 -3.219,-1.97 -0.113,-0.06 -2.199,-1.31 -1.469,-0.87 -2.562,-1.49 -1.254,-0.71 -2.828,-1.6 -0.102,-0.06 -3.789,-2.08 -0.051,-0.03 c -1.262,-0.69 -2.566,-1.38 -3.875,-2.06 l -0.277,-0.14 -2.723,-1.41 -1.789,-0.92 -2.965,-1.48 -1.679,-0.82 -3.137,-1.52 c -1.457,-0.69 -2.938,-1.39 -4.442,-2.08 l -3.296,-1.48 -1.676,-0.74 -3.293,-1.42 -2.18,-0.92 -3.246,-1.34 -2.18,-0.87 c -1.769,-0.71 -3.562,-1.41 -5.379,-2.09 l -3.042,-1.14 -3.442,-1.23 -2.168,-0.76 -3.547,-1.2 -2.703,-0.88 -3.402,-1.09 -2.047,-0.61 c -2.324,-0.7 -4.676,-1.39 -7.055,-2.04 l -2.597,-0.72 c -1.247,-0.33 -2.512,-0.65 -3.77,-0.97 l -2.496,-0.61 -4.004,-0.95 -2.332,-0.51 c -3.199,-0.71 -6.437,-1.37 -9.719,-1.97 l -0.211,-0.04 c -1.382,-0.25 -2.781,-0.48 -4.183,-0.71 l -2.68,-0.44 c -1.332,-0.21 -2.672,-0.4 -4.004,-0.59 l -3.031,-0.41 c -1.301,-0.17 -2.594,-0.33 -3.899,-0.48 l -3.246,-0.34 c -2.371,-0.24 -4.754,-0.45 -7.148,-0.63 -0.992,-0.07 -1.984,-0.15 -2.984,-0.21 -1.379,-0.09 -2.77,-0.15 -4.161,-0.22 l -3.109,-0.12 c -1.359,-0.05 -2.727,-0.09 -4.094,-0.11 -1.16,-0.02 -2.332,-0.02 -3.496,-0.03 -1.289,0 -2.574,-0.02 -3.867,0 h -0.098 c -2.172,0.03 -4.359,0.09 -6.554,0.17 l -0.055,0.01 c -1.313,0.05 -2.641,0.13 -3.969,0.21 -1.187,0.06 -2.375,0.12 -3.566,0.21 -1.332,0.09 -2.676,0.2 -4.02,0.32 -1.242,0.11 -2.488,0.23 -3.734,0.35 -1.336,0.14 -2.676,0.28 -4.02,0.44 -1.257,0.15 -2.527,0.33 -3.797,0.5 -2.265,0.31 -4.542,0.66 -6.828,1.04 -1.355,0.22 -2.714,0.44 -4.074,0.69 -1.402,0.26 -2.82,0.55 -4.226,0.83 l -3.536,0.74 c -1.445,0.31 -2.894,0.64 -4.343,0.98 -1.239,0.3 -2.473,0.61 -3.707,0.93 -1.399,0.35 -2.797,0.7 -4.196,1.08 -1.742,0.48 -3.492,1 -5.234,1.51 -1.93,0.58 -3.859,1.19 -5.801,1.82 -1.402,0.45 -2.797,0.91 -4.199,1.39 -1.316,0.46 -2.641,0.94 -3.965,1.42 -1.449,0.53 -2.898,1.07 -4.348,1.63 -1.261,0.48 -2.527,0.98 -3.789,1.49 -1.597,0.64 -3.199,1.33 -4.796,2.01 -1.133,0.48 -2.258,0.95 -3.391,1.45 -42.289,18.83 -85.789,51.92 -127.8907,105.67 -291.8593,372.57 201.6017,633.4 569.3207,633.4 z" /></clipPath><linearGradient
       id="linearGradient26"
       spreadMethod="pad"
       gradientTransform="matrix(10,0,0,10,-61360,2000)"
       gradientUnits="userSpaceOnUse"
       y2="-194.01199"
       x2="6172.3999"
       y1="-30.8239"
       x1="6244.96"><stop
         id="stop22"
         offset="0"
         style="stop-opacity:1;stop-color:#01a7f2" /><stop
         id="stop24"
         offset="1"
         style="stop-opacity:1;stop-color:#3d4fb4" /></linearGradient></defs><g
     transform="matrix(1.3333333,0,0,-1.3333333,0,240)"
     id="g10"><g
       transform="scale(0.1)"
       id="g12"><g
         id="g14"><g
           clip-path="url(#clipPath20)"
           id="g16"><path
             id="path28"
             style="fill:url(#linearGradient26);fill-opacity:1;fill-rule:nonzero;stroke:none"
             d="m 662.102,1799.99 c 495.408,0 897.018,-401.61 897.018,-897.025 0,-495.41 -401.61,-897.01969 -897.018,-897.01969 -367.719,0 -861.766,279.03169 -569.8911,651.61769 46.8281,59.769 95.3591,93.921 142.0311,111.429 98.957,37.125 189.516,-0.746 237.653,-29.043 l 0.703,-0.41 3.804,-2.281 0.965,-0.59 1.75,-1.078 2.18,-1.367 0.387,-0.246 1.632,-1.039 c 2.793,-1.79 5.372,-3.5 7.723,-5.102 l -0.031,-0.074 -0.008,-0.004 c 8.918,-6.164 15.273,-15.762 17.145,-26.891 V 584.059 l 0.566,-16.207 c 3.414,-97.196 79.566,-176.825 176.82,-176.825 h 0.012 c 97.262,0 176.824,79.567 176.824,176.825 v 126.179 c 0,22.629 18.344,40.973 40.973,40.973 h 126.18 c 233.93,0 233.93,353.656 0,353.656 H 903.34 c -22.629,0 -40.973,18.34 -40.973,40.98 v 126.17 c 0,97.26 -79.562,176.82 -176.824,176.82 h -0.012 c -97.215,0 -176.82,-79.6 -176.82,-176.82 v -126.17 c 0,-14.31 -7.336,-26.91 -18.453,-34.23 l 0.008,-0.01 -2.446,-1.63 -0.382,-0.25 -1.403,-0.92 -1.879,-1.21 -1.437,-0.92 -2.559,-1.61 -0.765,-0.48 -0.317,-0.2 -3.219,-1.97 -0.113,-0.06 -2.199,-1.31 -1.469,-0.87 -2.562,-1.49 -1.254,-0.71 -2.828,-1.6 -0.102,-0.06 -3.789,-2.08 -0.051,-0.03 c -1.262,-0.69 -2.566,-1.38 -3.875,-2.06 l -0.277,-0.14 -2.723,-1.41 -1.789,-0.92 -2.965,-1.48 -1.679,-0.82 -3.137,-1.52 c -1.457,-0.69 -2.938,-1.39 -4.442,-2.08 l -3.296,-1.48 -1.676,-0.74 -3.293,-1.42 -2.18,-0.92 -3.246,-1.34 -2.18,-0.87 c -1.769,-0.71 -3.562,-1.41 -5.379,-2.09 l -3.042,-1.14 -3.442,-1.23 -2.168,-0.76 -3.547,-1.2 -2.703,-0.88 -3.402,-1.09 -2.047,-0.61 c -2.324,-0.7 -4.676,-1.39 -7.055,-2.04 l -2.597,-0.72 c -1.247,-0.33 -2.512,-0.65 -3.77,-0.97 l -2.496,-0.61 -4.004,-0.95 -2.332,-0.51 c -3.199,-0.71 -6.437,-1.37 -9.719,-1.97 l -0.211,-0.04 c -1.382,-0.25 -2.781,-0.48 -4.183,-0.71 l -2.68,-0.44 c -1.332,-0.21 -2.672,-0.4 -4.004,-0.59 l -3.031,-0.41 c -1.301,-0.17 -2.594,-0.33 -3.899,-0.48 l -3.246,-0.34 c -2.371,-0.24 -4.754,-0.45 -7.148,-0.63 -0.992,-0.07 -1.984,-0.15 -2.984,-0.21 -1.379,-0.09 -2.77,-0.15 -4.161,-0.22 l -3.109,-0.12 c -1.359,-0.05 -2.727,-0.09 -4.094,-0.11 -1.16,-0.02 -2.332,-0.02 -3.496,-0.03 -1.289,0 -2.574,-0.02 -3.867,0 h -0.098 c -2.172,0.03 -4.359,0.09 -6.554,0.17 l -0.055,0.01 c -1.313,0.05 -2.641,0.13 -3.969,0.21 -1.187,0.06 -2.375,0.12 -3.566,0.21 -1.332,0.09 -2.676,0.2 -4.02,0.32 -1.242,0.11 -2.488,0.23 -3.734,0.35 -1.336,0.14 -2.676,0.28 -4.02,0.44 -1.257,0.15 -2.527,0.33 -3.797,0.5 -2.265,0.31 -4.542,0.66 -6.828,1.04 -1.355,0.22 -2.714,0.44 -4.074,0.69 -1.402,0.26 -2.82,0.55 -4.226,0.83 l -3.536,0.74 c -1.445,0.31 -2.894,0.64 -4.343,0.98 -1.239,0.3 -2.473,0.61 -3.707,0.93 -1.399,0.35 -2.797,0.7 -4.196,1.08 -1.742,0.48 -3.492,1 -5.234,1.51 -1.93,0.58 -3.859,1.19 -5.801,1.82 -1.402,0.45 -2.797,0.91 -4.199,1.39 -1.316,0.46 -2.641,0.94 -3.965,1.42 -1.449,0.53 -2.898,1.07 -4.348,1.63 -1.261,0.48 -2.527,0.98 -3.789,1.49 -1.597,0.64 -3.199,1.33 -4.796,2.01 -1.133,0.48 -2.258,0.95 -3.391,1.45 -42.289,18.83 -85.789,51.92 -127.8907,105.67 -291.8593,372.57 201.6017,633.4 569.3207,633.4" /></g></g></g></g></svg>