<?xml version="1.0" encoding="utf-8"?>
<!-- Generator: Adobe Illustrator 19.0.0, SVG Export Plug-In . SVG Version: 6.00 Build 0)  -->
<svg version="1.1" id="Layer_1" xmlns="http://www.w3.org/2000/svg" xmlns:xlink="http://www.w3.org/1999/xlink" x="0px" y="0px"
	 viewBox="0 0 59.7 59.7" style="enable-background:new 0 0 59.7 59.7;" xml:space="preserve">
<style type="text/css">
	.st0{fill:none;stroke:#464646;stroke-width:2;stroke-linecap:round;stroke-linejoin:round;stroke-miterlimit:10;}
	.st1{fill:none;stroke:#464646;stroke-width:1.4;stroke-miterlimit:10;}
	.st2{fill:none;stroke:#464646;stroke-width:2;stroke-linecap:round;stroke-miterlimit:10;}
	.st3{fill:#464646;}
</style>
<circle id="XMLID_82_" class="st0" cx="29.6" cy="28.1" r="19.5"/>
<ellipse id="XMLID_170_" class="st1" cx="29.6" cy="28.2" rx="13" ry="13.4"/>
<line id="XMLID_197_" class="st2" x1="26" y1="51" x2="26" y2="34"/>
<ellipse id="XMLID_224_" class="st3" cx="26.2" cy="30.5" rx="3.2" ry="4.1"/>
<line id="XMLID_17_" class="st2" x1="34" y1="51" x2="34" y2="34"/>
<path id="XMLID_7_" class="st3" d="M37,32c0,1.4-1.3,2.6-2.9,2.6c-1.6,0-2.9-1.2-2.9-2.6"/>
<path id="XMLID_16_" class="st3" d="M31.9,32.8L31.9,32.8c-0.4,0-0.6-0.3-0.6-0.6v-5.1c0-0.4,0.3-0.6,0.6-0.6l0,0
	c0.4,0,0.6,0.3,0.6,0.6v5.1C32.5,32.5,32.3,32.8,31.9,32.8z"/>
<path id="XMLID_19_" class="st3" d="M34.1,32.8L34.1,32.8c-0.4,0-0.7-0.3-0.7-0.6v-5.1c0-0.4,0.3-0.6,0.6-0.6h0
	c0.4,0,0.6,0.3,0.6,0.6v5.1C34.8,32.5,34.5,32.8,34.1,32.8z"/>
<path id="XMLID_20_" class="st3" d="M36.4,32.8L36.4,32.8c-0.4,0-0.7-0.3-0.7-0.6v-5.1c0-0.4,0.3-0.6,0.6-0.6h0
	c0.4,0,0.6,0.3,0.6,0.6v5.1C37,32.5,36.8,32.8,36.4,32.8z"/>
</svg>
