<?xml version="1.0" encoding="utf-8"?>
<!-- Generator: Adobe Illustrator 21.1.0, SVG Export Plug-In . SVG Version: 6.00 Build 0)  -->
<svg version="1.1" id="US_UK_Download_on_the" xmlns="http://www.w3.org/2000/svg" xmlns:xlink="http://www.w3.org/1999/xlink"
	 x="0px" y="0px" viewBox="0 0 135 40" style="enable-background:new 0 0 135 40;" xml:space="preserve">
<style type="text/css">
	.st0{fill:#A6A6A6;}
	.st1{fill:#FFFFFF;}
	.st2{display:none;fill:#A6A6A6;}
	.st3{display:none;}
</style>
<g>
	<path class="st0" d="M130.2,40H4.7C2.1,40,0,37.9,0,35.3V4.7C0,2.1,2.1,0,4.7,0h125.5c2.6,0,4.8,2.1,4.8,4.7v30.5
		C135,37.9,132.8,40,130.2,40L130.2,40z"/>
	<path d="M134,35.3c0,2.1-1.7,3.8-3.8,3.8H4.7c-2.1,0-3.8-1.7-3.8-3.8V4.7c0-2.1,1.7-3.8,3.8-3.8h125.5c2.1,0,3.8,1.7,3.8,3.8
		L134,35.3L134,35.3z"/>
</g>
<g>
	<path class="st1" d="M13,29.6c0.2,0.3,0.4,0.5,0.6,0.8l3-2.4c-0.2-0.2-0.4-0.4-0.6-0.7c-2.4-3.1-1.8-7.6,1.3-10
		c2.9-2.3,7-1.9,9.5,0.7l0-0.1c-5.7-6.3-14.4-3.8-14.4-3.8C7.8,24.8,13,29.6,13,29.6z"/>
	<path d="M13.6,30.9l-0.3-0.3c-0.2-0.2-0.4-0.5-0.7-0.8c-0.2-0.2-1.4-1.5-2.1-3.9c-0.4-1.5-0.6-3.2-0.4-5c0.2-2.2,0.8-4.6,1.9-7
		l0.1-0.2l0.2-0.1c0.1,0,2.3-0.7,5.2-0.5c1.7,0.1,3.3,0.4,4.8,1c1.8,0.7,3.5,1.9,4.8,3.4l0,0l0,0.1l-0.6,0.5
		c-1.1-1.2-2.7-1.9-4.3-2.1c-1.7-0.1-3.3,0.4-4.6,1.4c-2.9,2.3-3.5,6.5-1.2,9.4c0.2,0.2,0.4,0.5,0.6,0.7l0.3,0.3L13.6,30.9z
		 M12.7,14.5c-1,2.3-1.6,4.5-1.7,6.6c-0.1,1.7,0,3.2,0.4,4.7c0.7,2.4,1.9,3.6,1.9,3.6l0,0l0,0c0.1,0.2,0.2,0.3,0.4,0.5l2.4-1.9
		c-0.1-0.1-0.2-0.3-0.3-0.4c-2.5-3.3-1.9-8,1.3-10.6c1.5-1.1,3.3-1.7,5.2-1.6c0.2,0,0.5,0.1,0.7,0.1c-0.3-0.2-0.7-0.3-1-0.5
		c-1.4-0.6-2.9-0.9-4.5-1C15.1,13.9,13.2,14.3,12.7,14.5z"/>
</g>
<g>
	<path class="st1" d="M26.4,30.5l0.7-1.3L24,30.3l-0.7-0.6c-2.6,0.7-5.6-0.2-7.3-2.5c-2.2-2.9-1.9-6.9,0.7-9.4l-0.1,0
		c-6.2,5.6-3.7,14.2-3.7,14.2c10.5,4.5,15.3-0.6,15.3-0.6c0.3-0.2,0.5-0.4,0.8-0.6L26.4,30.5z"/>
	<path d="M20.9,34.2c-0.4,0-0.9,0-1.3-0.1c-2.2-0.2-4.5-0.8-6.9-1.8l-0.1-0.1l0-0.1c0-0.1-0.6-2.2-0.5-5.1c0.1-1.7,0.4-3.3,1-4.7
		c0.7-1.8,1.8-3.4,3.3-4.7l0,0l0.4,0.4c-1.2,1.1-1.9,2.7-2.1,4.3c-0.1,1.7,0.4,3.3,1.4,4.6c1.7,2.1,4.4,3.1,7,2.4l0.2,0l0.7,0.5
		l3.7-1.3l-0.8,1.6l2.7,0.4l-0.5,0.4c-0.3,0.2-0.5,0.4-0.8,0.6c-0.2,0.2-1.4,1.4-3.8,2.1C23.4,34.1,22.2,34.2,20.9,34.2z M13.2,31.8
		c2.3,1,4.5,1.6,6.5,1.7c1.7,0.1,3.2,0,4.6-0.4c2.4-0.7,3.6-1.9,3.6-1.9l0,0l0,0c0.1-0.1,0.2-0.1,0.2-0.2l-2.3-0.3l0.5-1l-2.5,0.9
		l-0.7-0.6c-0.6,0.1-1.1,0.2-1.7,0.2c-2.2,0-4.4-1-5.8-2.8c-1.1-1.4-1.7-3.2-1.5-5.1c0-0.4,0.1-0.9,0.2-1.3c-0.3,0.5-0.5,1-0.7,1.5
		c-0.6,1.4-0.9,2.9-1,4.5C12.6,29.4,13,31.3,13.2,31.8z"/>
</g>
<g>
	<path class="st1" d="M30.3,16.2c-0.2-0.3-0.4-0.5-0.6-0.8l-3,2.4c0.2,0.2,0.4,0.4,0.6,0.7c2.4,3.1,1.8,7.6-1.3,10
		c-2.9,2.3-7,1.9-9.5-0.7l0.1,0.1c5.7,6.3,14.3,3.8,14.3,3.8C35.5,21.1,30.3,16.2,30.3,16.2z"/>
	<path d="M26.8,32.5c-0.3,0-0.6,0-0.9,0c-1.7-0.1-3.3-0.4-4.8-1c-1.8-0.7-3.4-1.8-4.7-3.3c0,0,0,0-0.1-0.1l0.4-0.4l0.1,0.1
		c0,0,0,0,0,0c1.1,1.2,2.7,1.9,4.3,2c1.7,0.1,3.4-0.4,4.7-1.4c1.4-1.1,2.4-2.7,2.6-4.5c0.2-1.8-0.3-3.6-1.4-5
		c-0.2-0.2-0.4-0.4-0.6-0.7l-0.2-0.2l3.5-2.8l0.2,0.2c0.2,0.2,0.4,0.5,0.7,0.8c0.2,0.2,1.4,1.4,2.1,3.9c0.4,1.5,0.6,3.2,0.4,4.9
		c-0.2,2.2-0.8,4.5-1.9,7l-0.1,0.1L31,32C30.9,32,29.2,32.5,26.8,32.5z M19.8,30.1c0.5,0.3,1,0.5,1.5,0.7c1.4,0.6,2.9,0.9,4.5,1
		c2.4,0.1,4.3-0.3,4.8-0.4c1-2.3,1.6-4.5,1.8-6.6c0.1-1.7,0-3.3-0.4-4.7c-0.7-2.4-1.9-3.6-1.9-3.7l0,0l0,0c-0.1-0.2-0.3-0.4-0.4-0.5
		l-2.5,2c0.1,0.2,0.3,0.3,0.4,0.5c1.2,1.6,1.7,3.5,1.5,5.5c-0.3,2-1.3,3.7-2.8,4.9c-1.5,1.1-3.3,1.7-5.1,1.5
		C20.6,30.3,20.2,30.2,19.8,30.1z"/>
</g>
<g>
	<path class="st1" d="M15.7,13.7c2.8-0.2,7.1,0.2,10.8,3.9c0.3,0.3,0.6,0.6,0.8,0.9c2.2,2.9,1.9,6.9-0.7,9.4l0.1,0
		c6.2-5.6,3.7-14.2,3.7-14.2C22,10,17.2,12.5,15.7,13.7z"/>
	<path d="M26.7,28.1l-0.3-0.4c1.2-1.2,1.9-2.7,2.1-4.4c0.1-1.7-0.4-3.3-1.4-4.7c-0.2-0.3-0.5-0.6-0.8-0.9l0,0
		c-3.5-3.5-7.7-4-10.6-3.8L14.8,14l0.7-0.5c1.7-1.2,6.5-3.8,14.9-0.1l0.1,0l0,0.1c0,0.1,0.6,2.2,0.5,5.1c-0.1,1.7-0.4,3.3-1,4.7
		C29.3,25.1,28.2,26.7,26.7,28.1L26.7,28.1z M26.6,17.4c0.3,0.3,0.6,0.6,0.8,0.9c1.1,1.4,1.6,3.2,1.5,5c0,0.6-0.2,1.2-0.3,1.7
		c0.4-0.6,0.7-1.3,1-1.9c0.6-1.4,0.9-2.9,1-4.5c0.1-2.4-0.3-4.3-0.4-4.8c-7.1-3-11.5-1.6-13.6-0.4C19.5,13.4,23.3,14.1,26.6,17.4z"
		/>
</g>
<g>
	<path class="st1" d="M26,8.4c1.2-1.1,2.2-2.7,2.2-4.4c-1.5-0.2-3.4,0.5-4.7,1.6c-1.1,0.9-2.2,2.6-2.2,4.2C23,10.2,24.8,9.5,26,8.4z
		"/>
</g>
<g>
	<path class="st2" d="M129.8,40.5H4.3c-2.6,0-4.7-2.1-4.7-4.7V5.2c0-2.6,2.1-4.7,4.7-4.7h125.5c2.6,0,4.8,2.1,4.8,4.7v30.5
		C134.6,38.4,132.4,40.5,129.8,40.5L129.8,40.5z"/>
	<path class="st3" d="M133.6,35.8c0,2.1-1.7,3.8-3.8,3.8H4.3c-2.1,0-3.8-1.7-3.8-3.8V5.2c0-2.1,1.7-3.8,3.8-3.8h125.5
		c2.1,0,3.8,1.7,3.8,3.8L133.6,35.8L133.6,35.8z"/>
	<g>
		<g>
			<path class="st1" d="M48.6,10.5c0,1.2-0.4,2.1-1.1,2.7C46.9,13.7,46,14,44.8,14c-0.6,0-1.1,0-1.5-0.1V7.5
				c0.6-0.1,1.2-0.1,1.8-0.1c1.1,0,2,0.2,2.6,0.7C48.3,8.7,48.6,9.5,48.6,10.5z M47.5,10.5c0-0.8-0.2-1.3-0.6-1.8
				c-0.4-0.4-1-0.6-1.8-0.6c-0.3,0-0.6,0-0.8,0.1v4.9c0.1,0,0.4,0,0.7,0c0.8,0,1.4-0.2,1.9-0.7C47.3,12,47.5,11.4,47.5,10.5z"/>
			<path class="st1" d="M54.5,11.5c0,0.7-0.2,1.3-0.6,1.8c-0.4,0.5-1,0.7-1.7,0.7c-0.7,0-1.2-0.2-1.7-0.7c-0.4-0.5-0.6-1-0.6-1.7
				c0-0.7,0.2-1.3,0.6-1.8c0.4-0.5,1-0.7,1.7-0.7c0.7,0,1.2,0.2,1.7,0.7C54.3,10.3,54.5,10.8,54.5,11.5z M53.4,11.6
				c0-0.4-0.1-0.8-0.3-1.1c-0.2-0.4-0.5-0.6-0.9-0.6c-0.4,0-0.7,0.2-1,0.6c-0.2,0.3-0.3,0.7-0.3,1.1c0,0.4,0.1,0.8,0.3,1.1
				c0.2,0.4,0.5,0.6,1,0.6c0.4,0,0.7-0.2,0.9-0.6C53.3,12.4,53.4,12,53.4,11.6z"/>
			<path class="st1" d="M62.3,9.2l-1.5,4.7h-1l-0.6-2c-0.2-0.5-0.3-1-0.4-1.5h0c-0.1,0.5-0.2,1-0.4,1.5l-0.6,2h-1l-1.4-4.7h1.1
				l0.5,2.2c0.1,0.5,0.2,1,0.3,1.5h0c0.1-0.4,0.2-0.9,0.4-1.5l0.7-2.3h0.9l0.6,2.2c0.2,0.5,0.3,1.1,0.4,1.6h0c0.1-0.5,0.2-1,0.3-1.6
				l0.6-2.2H62.3z"/>
			<path class="st1" d="M67.8,13.9h-1v-2.7c0-0.8-0.3-1.2-1-1.2c-0.3,0-0.6,0.1-0.8,0.3c-0.2,0.2-0.3,0.5-0.3,0.8v2.8h-1v-3.4
				c0-0.4,0-0.9,0-1.3h0.9l0,0.7h0c0.1-0.2,0.3-0.4,0.5-0.6c0.3-0.2,0.6-0.3,1-0.3c0.4,0,0.8,0.1,1.1,0.4c0.4,0.3,0.5,0.9,0.5,1.6
				V13.9z"/>
			<path class="st1" d="M70.7,13.9h-1V7.1h1V13.9z"/>
			<path class="st1" d="M76.8,11.5c0,0.7-0.2,1.3-0.6,1.8c-0.4,0.5-1,0.7-1.7,0.7c-0.7,0-1.2-0.2-1.7-0.7c-0.4-0.5-0.6-1-0.6-1.7
				c0-0.7,0.2-1.3,0.6-1.8s1-0.7,1.7-0.7c0.7,0,1.2,0.2,1.7,0.7C76.6,10.3,76.8,10.8,76.8,11.5z M75.7,11.6c0-0.4-0.1-0.8-0.3-1.1
				c-0.2-0.4-0.5-0.6-0.9-0.6c-0.4,0-0.7,0.2-1,0.6c-0.2,0.3-0.3,0.7-0.3,1.1c0,0.4,0.1,0.8,0.3,1.1c0.2,0.4,0.5,0.6,1,0.6
				c0.4,0,0.7-0.2,0.9-0.6C75.6,12.4,75.7,12,75.7,11.6z"/>
			<path class="st1" d="M81.9,13.9H81l-0.1-0.5h0c-0.3,0.4-0.8,0.6-1.4,0.6c-0.4,0-0.8-0.1-1.1-0.4c-0.2-0.3-0.4-0.6-0.4-1
				c0-0.6,0.2-1,0.7-1.3c0.5-0.3,1.2-0.5,2-0.4v-0.1c0-0.6-0.3-0.9-1-0.9c-0.5,0-0.9,0.1-1.2,0.3l-0.2-0.7c0.4-0.3,1-0.4,1.6-0.4
				c1.2,0,1.8,0.6,1.8,1.9v1.7C81.8,13.3,81.9,13.7,81.9,13.9z M80.8,12.3v-0.7c-1.2,0-1.7,0.3-1.7,1c0,0.2,0.1,0.4,0.2,0.6
				c0.1,0.1,0.3,0.2,0.5,0.2c0.2,0,0.4-0.1,0.6-0.2c0.2-0.1,0.3-0.3,0.4-0.6C80.8,12.4,80.8,12.4,80.8,12.3z"/>
			<path class="st1" d="M87.9,13.9h-0.9l0-0.8h0C86.5,13.8,86,14,85.3,14c-0.6,0-1-0.2-1.4-0.7c-0.4-0.4-0.6-1-0.6-1.7
				c0-0.8,0.2-1.4,0.6-1.9c0.4-0.4,0.9-0.7,1.5-0.7c0.6,0,1.1,0.2,1.3,0.6h0V7.1h1v5.6C87.8,13.1,87.8,13.5,87.9,13.9z M86.8,11.9
				v-0.8c0-0.1,0-0.2,0-0.3c-0.1-0.3-0.2-0.5-0.4-0.6c-0.2-0.2-0.4-0.3-0.7-0.3c-0.4,0-0.7,0.2-0.9,0.5c-0.2,0.3-0.3,0.7-0.3,1.2
				c0,0.5,0.1,0.8,0.3,1.1c0.2,0.3,0.5,0.5,0.9,0.5c0.3,0,0.6-0.1,0.8-0.4C86.7,12.6,86.8,12.3,86.8,11.9z"/>
			<path class="st1" d="M96.8,11.5c0,0.7-0.2,1.3-0.6,1.8c-0.4,0.5-1,0.7-1.7,0.7c-0.7,0-1.2-0.2-1.7-0.7c-0.4-0.5-0.6-1-0.6-1.7
				c0-0.7,0.2-1.3,0.6-1.8c0.4-0.5,1-0.7,1.7-0.7c0.7,0,1.2,0.2,1.7,0.7C96.6,10.3,96.8,10.8,96.8,11.5z M95.7,11.6
				c0-0.4-0.1-0.8-0.3-1.1c-0.2-0.4-0.5-0.6-0.9-0.6c-0.4,0-0.7,0.2-1,0.6c-0.2,0.3-0.3,0.7-0.3,1.1c0,0.4,0.1,0.8,0.3,1.1
				c0.2,0.4,0.5,0.6,1,0.6c0.4,0,0.7-0.2,0.9-0.6C95.6,12.4,95.7,12,95.7,11.6z"/>
			<path class="st1" d="M102.4,13.9h-1v-2.7c0-0.8-0.3-1.2-1-1.2c-0.3,0-0.6,0.1-0.8,0.3c-0.2,0.2-0.3,0.5-0.3,0.8v2.8h-1v-3.4
				c0-0.4,0-0.9,0-1.3h0.9l0,0.7h0c0.1-0.2,0.3-0.4,0.5-0.6c0.3-0.2,0.6-0.3,1-0.3c0.4,0,0.8,0.1,1.1,0.4c0.4,0.3,0.5,0.9,0.5,1.6
				V13.9z"/>
			<path class="st1" d="M109.5,10h-1.2v2.3c0,0.6,0.2,0.9,0.6,0.9c0.2,0,0.3,0,0.5,0l0,0.8c-0.2,0.1-0.5,0.1-0.8,0.1
				c-0.4,0-0.7-0.1-1-0.4c-0.2-0.3-0.3-0.7-0.3-1.3V10h-0.7V9.2h0.7V8.4l1-0.3v1.2h1.2V10z"/>
			<path class="st1" d="M115.1,13.9h-1v-2.7c0-0.8-0.3-1.3-0.9-1.3c-0.5,0-0.8,0.2-1,0.7c0,0.1,0,0.2,0,0.4v2.8h-1V7.1h1v2.8h0
				c0.3-0.5,0.8-0.8,1.4-0.8c0.4,0,0.8,0.1,1.1,0.4c0.4,0.4,0.5,0.9,0.5,1.6V13.9z"/>
			<path class="st1" d="M120.8,11.4c0,0.2,0,0.3,0,0.5h-3.1c0,0.5,0.2,0.8,0.5,1.1c0.3,0.2,0.6,0.3,1,0.3c0.5,0,0.9-0.1,1.3-0.2
				l0.2,0.7c-0.4,0.2-1,0.3-1.6,0.3c-0.7,0-1.3-0.2-1.7-0.6c-0.4-0.4-0.6-1-0.6-1.7c0-0.7,0.2-1.3,0.6-1.8c0.4-0.5,1-0.8,1.6-0.8
				c0.7,0,1.2,0.3,1.5,0.8C120.6,10.3,120.8,10.8,120.8,11.4z M119.8,11.1c0-0.3-0.1-0.6-0.2-0.8c-0.2-0.3-0.5-0.4-0.8-0.4
				c-0.3,0-0.6,0.1-0.8,0.4c-0.2,0.2-0.3,0.5-0.3,0.8H119.8z"/>
		</g>
	</g>
</g>
<g>
	<path class="st1" d="M52.9,30.6c0.8,0.5,2,0.9,3.2,0.9c1.8,0,2.9-1,2.9-2.3c0-1.3-0.7-2-2.6-2.7c-2.2-0.8-3.6-2-3.6-3.9
		c0-2.1,1.8-3.7,4.4-3.7c1.4,0,2.4,0.3,3,0.7l-0.5,1.4c-0.4-0.2-1.4-0.7-2.6-0.7c-1.9,0-2.6,1.1-2.6,2.1c0,1.3,0.8,1.9,2.7,2.7
		c2.3,0.9,3.5,2,3.5,4c0,2.1-1.6,4-4.8,4c-1.3,0-2.8-0.4-3.5-0.9L52.9,30.6z"/>
	<path class="st1" d="M65.1,20.1c0,0.6-0.4,1.1-1.1,1.1c-0.6,0-1.1-0.5-1.1-1.1c0-0.6,0.5-1.1,1.1-1.1C64.7,19,65.1,19.5,65.1,20.1z
		 M63.1,32.8v-9.9h1.8v9.9H63.1z"/>
	<path class="st1" d="M67.8,32.8c0-0.7,0.1-1.7,0.1-2.5V18.3h1.8v6.2h0c0.6-1.1,1.8-1.8,3.4-1.8c2.4,0,4.2,2,4.2,5
		c0,3.5-2.2,5.3-4.4,5.3c-1.4,0-2.6-0.6-3.3-1.9h-0.1l-0.1,1.6H67.8z M69.7,28.8c0,0.2,0,0.4,0.1,0.7c0.3,1.2,1.4,2.1,2.7,2.1
		c1.9,0,3-1.5,3-3.8c0-2-1-3.7-2.9-3.7c-1.2,0-2.4,0.8-2.7,2.2c0,0.2-0.1,0.4-0.1,0.7V28.8z"/>
	<path class="st1" d="M81.8,28.4l-1.4,4.3h-1.8L83.2,19h2.1L90,32.8h-1.9l-1.5-4.3H81.8z M86.3,27.1l-1.3-4
		c-0.3-0.9-0.5-1.7-0.7-2.5h0c-0.2,0.8-0.4,1.7-0.7,2.5l-1.3,4H86.3z"/>
	<path class="st1" d="M91.9,26.1c0-1.3,0-2.3-0.1-3.2h1.6l0.1,1.7h0c0.7-1.2,1.9-1.9,3.5-1.9c2.4,0,4.2,2,4.2,5
		c0,3.5-2.2,5.3-4.5,5.3c-1.3,0-2.4-0.6-3-1.6h0v5.4h-1.8V26.1z M93.7,28.8c0,0.3,0,0.5,0.1,0.7c0.3,1.2,1.4,2.1,2.7,2.1
		c1.9,0,3-1.5,3-3.8c0-2-1-3.7-2.9-3.7c-1.2,0-2.4,0.9-2.7,2.2c-0.1,0.2-0.1,0.5-0.1,0.7V28.8z"/>
	<path class="st1" d="M103.6,26.1c0-1.3,0-2.3-0.1-3.2h1.6l0.1,1.7h0c0.7-1.2,1.9-1.9,3.5-1.9c2.4,0,4.2,2,4.2,5
		c0,3.5-2.2,5.3-4.5,5.3c-1.3,0-2.4-0.6-3-1.6h0v5.4h-1.8V26.1z M105.3,28.8c0,0.3,0,0.5,0.1,0.7c0.3,1.2,1.4,2.1,2.7,2.1
		c1.9,0,3-1.5,3-3.8c0-2-1-3.7-2.9-3.7c-1.2,0-2.4,0.9-2.7,2.2c-0.1,0.2-0.1,0.5-0.1,0.7V28.8z"/>
</g>
</svg>
