<?xml version="1.0" encoding="utf-8"?>
<!-- Generator: Adobe Illustrator 19.0.0, SVG Export Plug-In . SVG Version: 6.00 Build 0)  -->
<svg version="1.1" id="Layer_1" xmlns="http://www.w3.org/2000/svg" xmlns:xlink="http://www.w3.org/1999/xlink" x="0px" y="0px"
	 viewBox="0 0 59.7 59.7" style="enable-background:new 0 0 59.7 59.7;" xml:space="preserve">
<style type="text/css">
	.st0{fill:#464646;}
</style>
<path id="XMLID_7_" class="st0" d="M13.1,44c0.6,0.8,1.5,1.2,2.5,1c9.4-2,19.1-2,28.5,0c0.2,0,0.3,0.1,0.5,0.1
	c0.8,0,1.6-0.5,2.1-1.2c0.5-0.8,0.6-1.7,0.3-2.6c-2.4-7.3-2.4-15.4-0.1-22.8c0.3-1,0.1-2.1-0.5-2.9c-0.6-0.8-1.6-1.1-2.5-0.9
	C34.7,17,25,17,15.8,14.7c-0.9-0.2-1.9,0.1-2.5,0.9c-0.6,0.8-0.8,1.9-0.5,2.8c2.4,7.4,2.3,15.4-0.1,22.8
	C12.4,42.2,12.5,43.3,13.1,44z M14,41.7c1-3.1,1.6-6.3,1.8-9.6v-0.1c0.3-3.5,1.2-5.9,2.7-7.3c0.3-0.3,0.4-0.8,0.1-1.1
	c-0.2-0.3-0.7-0.4-1-0.1c-0.8,0.8-1.5,1.7-1.9,2.7c-0.3-2.8-0.8-5.6-1.7-8.4c-0.1-0.4-0.1-0.9,0.2-1.3c0.3-0.4,0.7-0.5,1.1-0.4
	c9.4,2.4,19.3,2.4,28.8,0c0.4-0.1,0.9,0,1.1,0.4c0.3,0.4,0.4,0.9,0.2,1.3c-2.5,7.7-2.4,16.1,0.1,23.8c0.1,0.4,0.1,0.9-0.2,1.3
	c-0.3,0.4-0.7,0.5-1.1,0.4c-3.4-0.7-6.7-1.1-10.2-1.4c2.9-1.1,5-2.7,6.2-4.9c0.1-0.2,0.2-0.5,0-0.8c-0.1-0.3-0.4-0.4-0.6-0.4
	c-0.3,0-0.5,0.1-0.6,0.4c-2,3.6-6.6,5.4-14.1,5.8H25c-3.3,0.2-6.5,0.7-9.7,1.3c-0.4,0.1-0.8-0.1-1.1-0.4
	C13.9,42.6,13.9,42.2,14,41.7z"/>
</svg>
