<?xml version="1.0" encoding="utf-8"?>
<!-- Generator: Adobe Illustrator 19.0.0, SVG Export Plug-In . SVG Version: 6.00 Build 0)  -->
<svg version="1.1" id="Rounded_Rectangle_1_copy_3__x2B__Layer_8__x2B__Layer_6__x2B__Ellipse_14_copy_xA0_Image_1_"
	 xmlns="http://www.w3.org/2000/svg" xmlns:xlink="http://www.w3.org/1999/xlink" x="0px" y="0px" viewBox="-209 290 175.7 261.9"
	 style="enable-background:new -209 290 175.7 261.9;" xml:space="preserve">
<style type="text/css">
	.st0{display:none;fill:#12B2CE;}
	.st1{fill:none;stroke:#000000;stroke-miterlimit:10;}
	.st2{fill:none;stroke:#FF0000;stroke-miterlimit:10;}
	.st3{fill:none;stroke:#FFFFFF;stroke-width:20;stroke-miterlimit:10;}
	.st4{fill:none;stroke:#FFFFFF;stroke-width:17;stroke-miterlimit:10;}
	.st5{fill:none;stroke:#FFFFFF;stroke-width:15;stroke-linecap:round;stroke-linejoin:round;stroke-miterlimit:10;}
	.st6{fill:none;stroke:#FFFFFF;stroke-width:17;stroke-linecap:round;stroke-linejoin:round;stroke-miterlimit:10;}
</style>
<path class="st0" d="M112.5,648.6h-284.6c-20.4,0-36.9-16.5-36.9-36.9V327.3c0-20.4,16.5-36.9,36.9-36.9h284.6
	c20.4,0,36.9,16.5,36.9,36.9v284.4C149.3,632.1,132.8,648.6,112.5,648.6z"/>
<path id="XMLID_122_" class="st1" d="M102.9,491.7"/>
<path id="XMLID_121_" class="st2" d="M114.6,514.1"/>
<g>
	<path class="st3" d="M-43.3,405.2v102.6c0,18.7-15.3,34-34,34H-165c-18.7,0-34-15.3-34-34V405.2"/>
	<path class="st3" d="M-199,405.2v-23.1c0-31.2,25.5-56.7,56.7-56.7h42.3c31.2,0,56.7,25.5,56.7,56.7v23.1"/>
	<path class="st4" d="M-44.8,402.4c0,12.5,0.8,25.2-2.1,37.4c-2.9,12.2-10,23-20,30.7"/>
	<path class="st4" d="M-197.4,402.4c0,12.5-0.8,25.2,2.1,37.4c2.9,12.2,10,23,20,30.7"/>
	<g id="LINE">
		<line class="st5" x1="-199" y1="410.9" x2="-199" y2="426.7"/>
	</g>
	<g id="ARC">
		<path class="st5" d="M-199,423.9c-0.4,16.2,6.4,31.7,18.5,42.3"/>
	</g>
	<g id="LINE_1_">
		<line class="st6" x1="-131.4" y1="506.2" x2="-180.4" y2="466.3"/>
	</g>
	<g id="LINE_3_">
		<line class="st6" x1="-110.9" y1="506.2" x2="-61.8" y2="466.3"/>
	</g>
	<g id="ARC_1_">
		<path class="st6" d="M-131.4,506.2c6,4.8,14.5,4.8,20.5,0"/>
	</g>
	<g id="LINE_4_">
		<line class="st5" x1="-43.3" y1="410.9" x2="-43.3" y2="426.7"/>
	</g>
	<g id="ARC_2_">
		<path class="st5" d="M-61.8,466.3c12.1-10.7,18.9-26.2,18.5-42.3"/>
	</g>
	<circle class="st4" cx="-121.1" cy="408.6" r="30"/>
	<path class="st6" d="M-151,325.9v-15.3c0-6.6,4.7-12,10.5-12h38.8c5.8,0,10.5,5.4,10.5,12V326"/>
</g>
<image style="display:none;overflow:visible;enable-background:new    ;" width="1496" height="1496" id="Rounded_Rectangle_1_copy_3__x2B__Layer_8__x2B__Layer_6__x2B__Ellipse_14_copy_xA0_Image_2_" xlink:href="47A51C31.png"  transform="matrix(0.2395 0 0 0.2397 -209 290.435)">
</image>
</svg>
