<?xml version="1.0" encoding="utf-8"?>
<!-- Generator: Adobe Illustrator 19.0.0, SVG Export Plug-In . SVG Version: 6.00 Build 0)  -->
<svg version="1.1" id="Layer_1" xmlns="http://www.w3.org/2000/svg" xmlns:xlink="http://www.w3.org/1999/xlink" x="0px" y="0px"
	 viewBox="0 0 59.7 59.7" style="enable-background:new 0 0 59.7 59.7;" xml:space="preserve">
<style type="text/css">
	.st0{fill:none;stroke:#464646;stroke-width:2;stroke-miterlimit:10;}
	.st1{fill:none;stroke:#464646;stroke-width:1.4;stroke-miterlimit:10;}
	.st2{fill:none;stroke:#464646;stroke-width:2;stroke-linecap:round;stroke-miterlimit:10;}
	.st3{fill:none;stroke:#464646;stroke-linecap:round;stroke-linejoin:round;stroke-miterlimit:10;}
	.st4{fill:none;stroke:#464646;stroke-width:2;stroke-linecap:round;stroke-linejoin:round;stroke-miterlimit:10;}
	.st5{fill:none;stroke:#464646;stroke-linecap:round;stroke-miterlimit:10;}
	.st6{fill:none;stroke:#464646;stroke-width:1.4;stroke-linecap:round;stroke-linejoin:round;stroke-miterlimit:10;}
	.st7{fill:none;stroke:#464646;stroke-miterlimit:10;}
</style>
<path id="XMLID_36_" class="st0" d="M44.7,34v14.1c0,0.8-0.9,1.5-2,1.5h-19c-1.1,0-2-0.7-2-1.5v-7.2"/>
<path id="XMLID_35_" class="st1" d="M30.1,49.6v-7.5c0-0.4,0.2-0.8,0.5-0.8h5.1c0.3,0,0.5,0.3,0.5,0.8v7.5"/>
<path id="XMLID_34_" class="st2" d="M28.9,26.7l3.2-3.2c0.6-0.6,1.6-0.6,2.2,0l10.4,10.4"/>
<path id="XMLID_33_" class="st3" d="M43,18.6h-1.9c-0.2,0-0.4-0.2-0.4-0.4v-4c0-0.2,0.2-0.4,0.4-0.4H43c0.2,0,0.4,0.2,0.4,0.4v4
	C43.4,18.5,43.2,18.6,43,18.6z"/>
<path id="XMLID_32_" class="st3" d="M36.2,18.6h-1.9c-0.2,0-0.4-0.2-0.4-0.4v-4c0-0.2,0.2-0.4,0.4-0.4h1.9c0.2,0,0.4,0.2,0.4,0.4v4
	C36.6,18.5,36.4,18.6,36.2,18.6z"/>
<path id="XMLID_20_" class="st3" d="M50.2,18.6h-1.9c-0.2,0-0.4-0.2-0.4-0.4v-4c0-0.2,0.2-0.4,0.4-0.4h1.9c0.2,0,0.4,0.2,0.4,0.4v4
	C50.6,18.5,50.4,18.6,50.2,18.6z"/>
<path id="XMLID_19_" class="st3" d="M43,26h-1.9c-0.2,0-0.4-0.2-0.4-0.4v-4c0-0.2,0.2-0.4,0.4-0.4H43c0.2,0,0.4,0.2,0.4,0.4v4
	C43.4,25.8,43.2,26,43,26z"/>
<path id="XMLID_17_" class="st3" d="M50.2,26h-1.9c-0.2,0-0.4-0.2-0.4-0.4v-4c0-0.2,0.2-0.4,0.4-0.4h1.9c0.2,0,0.4,0.2,0.4,0.4v4
	C50.6,25.8,50.4,26,50.2,26z"/>
<path id="XMLID_16_" class="st3" d="M50.2,33.8h-1.9c-0.2,0-0.4-0.2-0.4-0.4v-4c0-0.2,0.2-0.4,0.4-0.4h1.9c0.2,0,0.4,0.2,0.4,0.4v4
	C50.6,33.6,50.4,33.8,50.2,33.8z"/>
<path id="XMLID_7_" class="st4" d="M26.8,24.3V11.2c0-1.1,1-1.9,2.3-1.9h23.3c1.2,0,2.3,0.9,2.3,1.9v33.9c0,1.1-1,1.9-2.3,1.9h-7.7"
	/>
<line id="XMLID_55_" class="st3" x1="18.5" y1="50" x2="18.5" y2="25"/>
<line id="XMLID_56_" class="st5" x1="23.2" y1="28.7" x2="19.1" y2="32.8"/>
<line id="XMLID_57_" class="st5" x1="18.6" y1="37.4" x2="11.4" y2="33.6"/>
<path id="XMLID_41_" class="st6" d="M14.6,38.2c-1.7,1.4-4,1.8-6.1,1c-2.7-1.1-3.5-3.7-3.7-4.4c-0.2-0.5-1.1-3.8,1-6.4
	c1.2-1.6,3.3-2.7,5.4-2.4c0.6,0.1,1.1,0.2,1.4,0.4c0-0.2-0.1-0.4-0.1-0.6c-0.1-2.4,1.5-4.1,1.6-4.2c1.7-1.7,3.9-1.7,4.5-1.6
	c0,0,2,0.1,3.6,1.3c0.3,0.2,0.8,0.6,1.3,1.4c0.2,0.3,0.2,0.6,0.3,0.7c0.2,0.1,0.5,0.1,0.7,0.2c0.7,0.3,2.3,1.1,3.4,2.8
	c1.1,1.7,1.1,3.4,1.1,4c0,0.5-0.1,2.7-1.4,3.9c-0.7,0.7-1.7,1-1.7,1c-0.3,0.1-0.5,0.2-0.6,0.2c0,0.2,0,0.5-0.1,0.8
	c-0.3,2.5-2.2,4-2.4,4.1c-0.4,0.3-1.8,1.3-3.7,1.2c-2.7-0.2-4.1-2.4-4.3-2.7L14.6,38.2L14.6,38.2z"/>
<path id="XMLID_38_" class="st7" d="M38.9,28.1"/>
</svg>
